<svg width="220" height="220" viewBox="0 0 220 220" fill="none" xmlns="http://www.w3.org/2000/svg">
<path d="M141.93 80.9702C150.312 75.6973 157.299 68.4104 162.216 59.7886H57.7843C62.7009 68.4104 69.6881 75.6968 78.0696 80.9702C82.9448 84.0375 83.1595 91.0801 78.375 94.2868C63.151 104.491 53.1287 121.852 53.1287 141.557V217.8H67.9725V142.093C67.9725 118.955 86.4481 99.756 109.586 99.5316C132.949 99.305 152.028 118.245 152.028 141.557V217.8H166.872V141.557C166.872 121.853 156.85 104.491 141.626 94.2873C136.841 91.0806 137.055 84.0375 141.93 80.9702Z" fill="#83E1E5"/>
<path d="M109.585 99.5314C86.4482 99.7558 67.9722 118.955 67.9722 142.093V217.8H152.028V141.557C152.028 118.245 132.949 99.3048 109.585 99.5314Z" fill="#AAB1BA"/>
<path d="M119.126 217.8H100.874V169.247C100.874 167.294 102.457 165.71 104.41 165.71H115.59C117.543 165.71 119.126 167.294 119.126 169.247V217.8Z" fill="#ECF4F7"/>
<path d="M110 121.477L100.617 141.388C98.5182 145.841 99.839 151.156 103.778 154.11C107.466 156.874 112.535 156.874 116.222 154.11C120.161 151.156 121.482 145.842 119.383 141.388L110 121.477Z" fill="#FDDF7F"/>
<path d="M178.893 95.3233C183.49 95.3233 187.216 91.597 187.216 87.0003C187.216 82.4036 183.49 78.6772 178.893 78.6772C174.296 78.6772 170.57 82.4036 170.57 87.0003C170.57 91.597 174.296 95.3233 178.893 95.3233Z" fill="#FDDF7F"/>
<path d="M41.1071 95.3233C45.7038 95.3233 49.4301 91.597 49.4301 87.0003C49.4301 82.4036 45.7038 78.6772 41.1071 78.6772C36.5104 78.6772 32.7841 82.4036 32.7841 87.0003C32.7841 91.597 36.5104 95.3233 41.1071 95.3233Z" fill="#FDDF7F"/>
<path d="M188.864 131.789C188.864 133.005 187.879 133.989 186.664 133.989H184.035V136.618C184.035 137.834 183.05 138.818 181.835 138.818C180.62 138.818 179.635 137.834 179.635 136.618V133.989H177.006C175.791 133.989 174.806 133.005 174.806 131.789C174.806 130.574 175.791 129.589 177.006 129.589H179.635V126.96C179.635 125.745 180.62 124.76 181.835 124.76C183.05 124.76 184.035 125.745 184.035 126.96V129.589H186.664C187.88 129.589 188.864 130.574 188.864 131.789ZM38.1643 138.818C39.3792 138.818 40.3643 137.834 40.3643 136.618V133.989H42.9933C44.2082 133.989 45.1933 133.005 45.1933 131.789C45.1933 130.574 44.2082 129.589 42.9933 129.589H40.3643V126.96C40.3643 125.745 39.3792 124.76 38.1643 124.76C36.9495 124.76 35.9643 125.745 35.9643 126.96V129.589H33.3353C32.1205 129.589 31.1353 130.574 31.1353 131.789C31.1353 133.005 32.1205 133.989 33.3353 133.989H35.9643V136.618C35.9643 137.834 36.9495 138.818 38.1643 138.818ZM76.898 82.8326C78.5906 83.8974 79.618 85.716 79.6466 87.6977C79.6744 89.6416 78.7649 91.3774 77.1501 92.4598C60.731 103.465 50.9287 121.819 50.9287 141.557V208.445C50.9287 209.66 51.9139 210.645 53.1287 210.645C54.3436 210.645 55.3287 209.66 55.3287 208.445V141.557C55.3287 123.288 64.402 106.301 79.5996 96.1149C82.4332 94.2159 84.0955 91.0457 84.0458 87.6344C83.9956 84.157 82.1995 80.9701 79.241 79.1085C72.2652 74.7195 66.2676 68.8494 61.7206 61.9894H70.0533C71.2682 61.9894 72.2533 61.0047 72.2533 59.7894C72.2533 58.5741 71.2682 57.5894 70.0533 57.5894H57.7844C57.0003 57.5894 56.2756 58.0065 55.8822 58.6841C55.4884 59.3622 55.4849 60.1982 55.8734 60.8788C60.9502 69.7818 68.2203 77.3731 76.898 82.8326ZM77.4106 61.989H79.3298C80.5447 61.989 81.5298 61.0042 81.5298 59.789C81.5298 58.5737 80.5447 57.589 79.3298 57.589H77.4106C76.1957 57.589 75.2106 58.5737 75.2106 59.789C75.2106 61.0042 76.1953 61.989 77.4106 61.989ZM86.5265 61.989H158.279C153.733 68.849 147.735 74.7195 140.759 79.108C137.8 80.9692 136.004 84.1566 135.954 87.6339C135.905 91.0452 137.567 94.2154 140.4 96.1145C155.598 106.3 164.671 123.288 164.671 141.557V208.445C164.671 209.66 165.656 210.645 166.871 210.645C168.086 210.645 169.071 209.66 169.071 208.445V141.557C169.071 121.819 159.269 103.465 142.85 92.4598C141.235 91.3774 140.325 89.6416 140.353 87.6977C140.382 85.716 141.409 83.8974 143.102 82.8326C151.779 77.3731 159.049 69.7818 164.127 60.8784C164.515 60.1977 164.512 59.3617 164.118 58.6837C163.724 58.0061 162.999 57.589 162.216 57.589H86.5265C85.3116 57.589 84.3265 58.5737 84.3265 59.789C84.3265 61.0042 85.3116 61.989 86.5265 61.989ZM152.028 210.645C153.243 210.645 154.228 209.66 154.228 208.445V141.557C154.228 129.681 149.568 118.525 141.107 110.145C132.647 101.767 121.444 97.2154 109.564 97.3315C85.4172 97.566 65.7726 117.646 65.7726 142.093V208.445C65.7726 209.66 66.7577 210.645 67.9726 210.645C69.1874 210.645 70.1726 209.66 70.1726 208.445V142.093C70.1726 120.049 87.8628 101.942 109.607 101.732C120.306 101.638 130.392 105.726 138.011 113.271C145.631 120.818 149.828 130.864 149.828 141.557V208.445C149.828 209.66 150.813 210.645 152.028 210.645ZM100.874 189.231C99.6592 189.231 98.674 190.216 98.674 191.431V208.445C98.674 209.66 99.6592 210.645 100.874 210.645C102.089 210.645 103.074 209.66 103.074 208.445V191.431C103.074 190.216 102.089 189.231 100.874 189.231ZM103.074 182.653C103.074 181.438 102.089 180.453 100.874 180.453C99.6592 180.453 98.674 181.438 98.674 182.653V183.799C98.674 185.014 99.6592 185.999 100.874 185.999C102.089 185.999 103.074 185.014 103.074 183.799V182.653ZM112.2 158.168V163.511H115.59C118.753 163.511 121.327 166.085 121.327 169.247V208.445C121.327 209.66 120.341 210.645 119.127 210.645C117.912 210.645 116.927 209.66 116.927 208.445V169.247C116.927 168.51 116.327 167.911 115.59 167.911H104.411C103.674 167.911 103.074 168.51 103.074 169.247V176.356C103.074 177.572 102.089 178.556 100.874 178.556C99.6592 178.556 98.674 177.572 98.674 176.356V169.247C98.674 166.085 101.248 163.511 104.411 163.511H107.8V158.168C105.901 157.835 104.064 157.073 102.458 155.87C97.7064 152.307 96.0952 145.822 98.6269 140.449L108.01 120.539C108.373 119.768 109.149 119.277 110 119.277C110.852 119.277 111.628 119.768 111.991 120.539L121.374 140.449C123.906 145.822 122.294 152.307 117.543 155.87C115.937 157.073 114.1 157.835 112.2 158.168ZM105.098 152.349C107.984 154.513 112.016 154.513 114.903 152.349C117.991 150.033 119.039 145.817 117.393 142.325L110 126.638L102.607 142.325C100.961 145.817 102.009 150.033 105.098 152.349ZM181.708 215.6H38.2924C37.0775 215.6 36.0924 216.585 36.0924 217.8C36.0924 219.015 37.0775 220 38.2924 220H181.707C182.922 220 183.907 219.015 183.907 217.8C183.907 216.585 182.923 215.6 181.708 215.6ZM28.0866 215.6H25.8852C24.6704 215.6 23.6852 216.585 23.6852 217.8C23.6852 219.015 24.6704 220 25.8852 220H28.0861C29.301 220 30.2861 219.015 30.2861 217.8C30.2861 216.585 29.3014 215.6 28.0866 215.6ZM194.115 215.6H191.914C190.699 215.6 189.714 216.585 189.714 217.8C189.714 219.015 190.699 220 191.914 220H194.115C195.33 220 196.315 219.015 196.315 217.8C196.315 216.585 195.33 215.6 194.115 215.6ZM90.362 49.1568C91.5768 49.1568 92.562 48.1721 92.562 46.9568V14.9877C92.562 13.7724 91.5768 12.7877 90.362 12.7877C89.1471 12.7877 88.162 13.7724 88.162 14.9877V46.9568C88.162 48.1716 89.1471 49.1568 90.362 49.1568ZM90.362 7.59704C91.5768 7.59704 92.562 6.61232 92.562 5.39704V2.2C92.562 0.98472 91.5768 0 90.362 0C89.1471 0 88.162 0.98472 88.162 2.2V5.39704C88.162 6.61188 89.1471 7.59704 90.362 7.59704ZM110 49.1568C111.215 49.1568 112.2 48.1721 112.2 46.9568V14.9877C112.2 13.7724 111.215 12.7877 110 12.7877C108.785 12.7877 107.8 13.7724 107.8 14.9877V46.9568C107.8 48.1716 108.785 49.1568 110 49.1568ZM110 7.59704C111.215 7.59704 112.2 6.61232 112.2 5.39704V2.2C112.2 0.98472 111.215 0 110 0C108.785 0 107.8 0.98472 107.8 2.2V5.39704C107.8 6.61188 108.785 7.59704 110 7.59704ZM129.638 49.1568C130.853 49.1568 131.838 48.1721 131.838 46.9568V14.9877C131.838 13.7724 130.853 12.7877 129.638 12.7877C128.423 12.7877 127.438 13.7724 127.438 14.9877V46.9568C127.438 48.1716 128.423 49.1568 129.638 49.1568ZM129.638 7.59704C130.853 7.59704 131.838 6.61232 131.838 5.39704V2.2C131.838 0.98472 130.853 0 129.638 0C128.423 0 127.438 0.98472 127.438 2.2V5.39704C127.438 6.61188 128.423 7.59704 129.638 7.59704ZM197.502 87.0008C197.502 88.216 196.517 89.2008 195.302 89.2008H189.183C188.911 90.4732 188.408 91.6599 187.721 92.7172L192.052 97.0482C192.911 97.907 192.911 99.3001 192.052 100.159C191.622 100.589 191.059 100.804 190.496 100.804C189.933 100.804 189.37 100.589 188.94 100.159L184.609 95.828C183.552 96.5153 182.365 97.0182 181.093 97.2902V103.41C181.093 104.625 180.108 105.61 178.893 105.61C177.678 105.61 176.693 104.625 176.693 103.41V97.2902C175.421 97.0182 174.234 96.5153 173.177 95.828L168.846 100.159C168.416 100.589 167.853 100.804 167.29 100.804C166.727 100.804 166.164 100.589 165.734 100.159C164.875 99.3001 164.875 97.907 165.734 97.0482L170.065 92.7172C169.378 91.6599 168.875 90.4732 168.603 89.2008H162.484C161.269 89.2008 160.284 88.216 160.284 87.0008C160.284 85.7855 161.269 84.8008 162.484 84.8008H168.603C168.875 83.5283 169.378 82.3416 170.065 81.2838L165.734 76.9529C164.875 76.094 164.875 74.701 165.734 73.8421C166.593 72.9828 167.986 72.9828 168.845 73.8421L173.176 78.173C174.233 77.4858 175.421 76.9828 176.693 76.7109V70.591C176.693 69.3757 177.678 68.391 178.893 68.391C180.107 68.391 181.093 69.3757 181.093 70.591V76.7109C182.365 76.9828 183.552 77.4858 184.609 78.173L188.94 73.8421C189.8 72.9828 191.192 72.9832 192.051 73.8421C192.91 74.701 192.911 76.094 192.051 76.9529L187.72 81.2838C188.407 82.3412 188.91 83.5283 189.182 84.8008H195.301C196.517 84.8008 197.502 85.7855 197.502 87.0008ZM185.016 87.0008C185.016 83.6246 182.269 80.8777 178.893 80.8777C175.517 80.8777 172.77 83.6246 172.77 87.0008C172.77 90.3769 175.517 93.1234 178.893 93.1234C182.269 93.1234 185.016 90.3764 185.016 87.0008ZM35.3901 95.828L31.0592 100.159C30.6293 100.589 30.0666 100.804 29.5034 100.804C28.9402 100.804 28.3774 100.589 27.9475 100.159C27.0882 99.3001 27.0882 97.907 27.9475 97.0482L32.2789 92.7172C31.5916 91.6599 31.0887 90.4732 30.8168 89.2008H24.6977C23.4828 89.2008 22.4977 88.216 22.4977 87.0008C22.4977 85.7855 23.4828 84.8008 24.6977 84.8008H30.8172C31.0891 83.5283 31.592 82.3416 32.2793 81.2838L27.948 76.9529C27.0886 76.094 27.0886 74.701 27.948 73.8421C28.8073 72.9828 30.1999 72.9828 31.0592 73.8421L35.3901 78.173C36.4474 77.4858 37.6346 76.9828 38.9066 76.7109V70.591C38.9066 69.3757 39.8918 68.391 41.1066 68.391C42.3214 68.391 43.3066 69.3757 43.3066 70.591V76.7109C44.5791 76.9828 45.7658 77.4858 46.8231 78.173L51.154 73.8421C52.0138 72.9828 53.4064 72.9832 54.2652 73.8421C55.1246 74.701 55.1246 76.094 54.2652 76.9529L49.9339 81.2838C50.6212 82.3412 51.1241 83.5283 51.396 84.8008H57.5155C58.7304 84.8008 59.7155 85.7855 59.7155 87.0008C59.7155 88.216 58.7304 89.2008 57.5155 89.2008H51.396C51.1241 90.4732 50.6212 91.6599 49.9339 92.7172L54.2652 97.0482C55.1246 97.907 55.1246 99.3001 54.2652 100.159C53.8354 100.589 53.2726 100.804 52.7094 100.804C52.1462 100.804 51.5834 100.589 51.1536 100.159L46.8226 95.828C45.7653 96.5153 44.5782 97.0182 43.3062 97.2902V103.41C43.3062 104.625 42.321 105.61 41.1062 105.61C39.8913 105.61 38.9062 104.625 38.9062 103.41V97.2902C37.6346 97.0182 36.4479 96.5153 35.3901 95.828ZM34.984 87.0008C34.984 90.3769 37.7309 93.1234 41.107 93.1234C44.4832 93.1234 47.2301 90.3769 47.2301 87.0008C47.2301 83.6246 44.4832 80.8777 41.107 80.8777C37.7309 80.8777 34.984 83.6246 34.984 87.0008Z" fill="#1C1D21"/>
</svg>
