<svg width="220" height="220" viewBox="0 0 220 220" fill="none" xmlns="http://www.w3.org/2000/svg">
<path d="M163.038 141.2C163.301 141.2 163.56 141.215 163.817 141.239C165.797 135.457 166.874 129.255 166.874 122.8C166.874 91.3898 141.411 65.9261 110 65.9261C78.5892 65.9261 53.1255 91.3898 53.1255 122.8C53.1255 129.254 54.2026 135.456 56.1831 141.239C56.4396 141.215 56.6987 141.2 56.9618 141.2H163.038Z" fill="#83E1E5"/>
<path d="M122.194 67.2417V55.2913C122.194 52.2241 124.681 49.7376 127.748 49.7376H130.875C135.67 49.7376 139.556 45.8511 139.556 41.0564V32.9543C139.556 28.16 135.67 24.2735 130.875 24.2735H89.125C84.3308 24.2735 80.4438 28.16 80.4438 32.9543V41.0564C80.4438 45.8507 84.3303 49.7376 89.125 49.7376H92.2525C95.3197 49.7376 97.8062 52.2241 97.8062 55.2913V67.2417C101.735 66.3833 105.814 65.927 110 65.927C114.187 65.927 118.265 66.3833 122.194 67.2417Z" fill="#AAB1BA"/>
<path d="M163.038 141.2H56.962C52.4023 141.2 48.7059 144.896 48.7059 149.456V166.5V189.503C48.7059 191.445 50.2798 193.019 52.2215 193.019H58.7599C60.3984 193.019 61.8201 191.887 62.1862 190.29L66.3208 172.267C66.3244 172.251 66.3283 172.235 66.3323 172.219C66.8867 169.873 69.0581 168.266 71.4684 168.266H74.3891C75.4935 168.266 76.5711 168.609 77.4678 169.253C86.6281 175.834 97.8596 179.714 110 179.714C122.141 179.714 133.372 175.834 142.532 169.253C143.429 168.609 144.507 168.266 145.611 168.266H148.532C150.942 168.266 153.113 169.873 153.668 172.219C153.672 172.234 153.675 172.251 153.679 172.267L157.814 190.29C158.18 191.887 159.602 193.019 161.24 193.019H167.779C169.72 193.019 171.294 191.445 171.294 189.503V166.5V149.456C171.294 144.896 167.598 141.2 163.038 141.2Z" fill="#AAB1BA"/>
<path d="M58.9117 217.8H51.2742C49.2339 217.8 47.5795 216.146 47.5795 214.105V205.597C47.5795 203.556 49.2335 201.902 51.2742 201.902H58.9117C60.952 201.902 62.6064 203.556 62.6064 205.597V214.105C62.6064 216.146 60.9524 217.8 58.9117 217.8Z" fill="#AAB1BA"/>
<path d="M168.726 217.8H161.088C159.048 217.8 157.394 216.146 157.394 214.105V205.597C157.394 203.556 159.048 201.902 161.088 201.902H168.726C170.766 201.902 172.421 203.556 172.421 205.597V214.105C172.42 216.146 170.766 217.8 168.726 217.8Z" fill="#AAB1BA"/>
<path d="M50.9257 122.801C50.9257 126.302 51.2381 129.824 51.8545 133.268C52.0684 134.463 53.2093 135.258 54.4078 135.046C55.6042 134.831 56.3997 133.688 56.1859 132.492C55.6152 129.304 55.3257 126.043 55.3257 122.801C55.3257 120.31 55.4968 117.858 55.8211 115.454C71.8943 121.829 90.5543 125.195 110 125.195C129.445 125.195 148.106 121.829 164.179 115.454C164.503 117.858 164.674 120.31 164.674 122.801C164.674 126.043 164.385 129.304 163.814 132.492C163.6 133.688 164.396 134.831 165.592 135.046C165.723 135.069 165.853 135.08 165.982 135.08C167.027 135.08 167.954 134.332 168.145 133.268C168.762 129.824 169.074 126.302 169.074 122.801C169.074 119.108 168.73 115.495 168.079 111.988C168.073 111.957 168.068 111.927 168.061 111.896C166.557 103.868 163.426 96.4062 159.021 89.87C159.02 89.8678 159.02 89.8656 159.019 89.8638C158.929 89.6821 158.812 89.5255 158.684 89.3812C154.173 82.8287 148.376 77.2275 141.657 72.9463C141.515 72.8336 141.364 72.7346 141.2 72.6603C132.14 67.0023 121.445 63.7265 110 63.7265C98.5517 63.7265 87.8562 67.0032 78.7953 72.6629C78.6329 72.7364 78.4837 72.8345 78.3434 72.9454C71.625 77.2262 65.828 82.8274 61.3158 89.3798C61.1874 89.5246 61.0703 89.6812 60.981 89.8634C60.9801 89.8656 60.9797 89.8678 60.9788 89.8696C56.5735 96.4062 53.4429 103.868 51.9386 111.896C51.932 111.926 51.9262 111.957 51.921 111.987C51.2698 115.495 50.9257 119.108 50.9257 122.801ZM110 120.795C90.7637 120.795 72.3528 117.414 56.6074 111.023C57.9868 104.764 60.4407 98.905 63.7671 93.6483C77.4907 100.032 93.4244 103.407 110 103.407C126.576 103.407 142.509 100.032 156.233 93.6483C159.559 98.9045 162.013 104.764 163.393 111.023C147.647 117.414 129.236 120.795 110 120.795ZM135.045 74.21C127.1 76.7963 118.698 78.1097 110 78.1097C101.302 78.1097 92.8999 76.7963 84.9548 74.21C92.4625 70.3243 100.979 68.1265 110 68.1265C119.021 68.1265 127.537 70.3243 135.045 74.21ZM79.9864 77.125C89.4221 80.6951 99.5114 82.5097 110 82.5097C120.489 82.5097 130.578 80.6951 140.014 77.125C145.279 80.5966 149.912 84.9508 153.699 89.9791C140.709 95.8905 125.663 99.0075 110 99.0075C94.337 99.0075 79.2916 95.8905 66.3015 89.9791C70.0877 84.9512 74.7213 80.5966 79.9864 77.125ZM103.034 6.96652C103.034 5.75168 104.018 4.76652 105.234 4.76652H107.8V2.2C107.8 0.98516 108.785 0 110 0C111.215 0 112.2 0.98516 112.2 2.2V4.76652H114.767C115.982 4.76652 116.967 5.75168 116.967 6.96652C116.967 8.18136 115.982 9.16652 114.767 9.16652H112.2V11.733C112.2 12.9479 111.215 13.933 110 13.933C108.785 13.933 107.8 12.9479 107.8 11.733V9.16652H105.234C104.018 9.16652 103.034 8.18136 103.034 6.96652ZM55.6398 38.4793C55.6398 37.2645 56.6246 36.2793 57.8398 36.2793H60.4064V33.7128C60.4064 32.498 61.3911 31.5128 62.6064 31.5128C63.8216 31.5128 64.8064 32.498 64.8064 33.7128V36.2793H67.3729C68.5882 36.2793 69.5729 37.2645 69.5729 38.4793C69.5729 39.6942 68.5882 40.6793 67.3729 40.6793H64.8064V43.2458C64.8064 44.4607 63.8216 45.4458 62.6064 45.4458C61.3911 45.4458 60.4064 44.4607 60.4064 43.2458V40.6793H57.8398C56.6246 40.6793 55.6398 39.6942 55.6398 38.4793ZM150.427 38.4793C150.427 37.2645 151.412 36.2793 152.627 36.2793H155.194V33.7128C155.194 32.498 156.179 31.5128 157.394 31.5128C158.609 31.5128 159.594 32.498 159.594 33.7128V36.2793H162.16C163.376 36.2793 164.36 37.2645 164.36 38.4793C164.36 39.6942 163.376 40.6793 162.16 40.6793H159.594V43.2458C159.594 44.4607 158.609 45.4458 157.394 45.4458C156.179 45.4458 155.194 44.4607 155.194 43.2458V40.6793H152.627C151.412 40.6793 150.427 39.6942 150.427 38.4793ZM202.411 215.6H174.421C174.547 215.122 174.62 214.623 174.62 214.105V205.597C174.62 202.346 171.976 199.702 168.726 199.702H167.107V195.219H167.779C170.93 195.219 173.494 192.655 173.494 189.504V149.457C173.494 143.691 168.803 139 163.038 139H56.962C51.1963 139 46.5059 143.691 46.5059 149.456V189.504C46.5059 192.655 49.0698 195.219 52.221 195.219H52.8925V199.702H51.2737C48.0234 199.702 45.3795 202.346 45.3795 205.596V214.105C45.3795 214.622 45.453 215.121 45.5788 215.6H17.5895C16.3742 215.6 15.3895 216.585 15.3895 217.8C15.3895 219.014 16.3742 220 17.5895 220H51.2746H55.0934H58.9126C62.1628 220 64.8068 217.355 64.8068 214.105V205.596C64.8068 202.346 62.1624 199.702 58.9126 199.702H57.2934V195.219H58.7603C61.4412 195.219 63.7319 193.394 64.3312 190.781L68.461 172.78L68.4738 172.725C68.7831 171.416 70.0424 170.466 71.4688 170.466H74.39C75.0416 170.466 75.6625 170.665 76.1848 171.039C86.0861 178.153 97.7795 181.914 110.001 181.914C122.222 181.914 133.915 178.153 143.816 171.039C144.339 170.664 144.959 170.466 145.611 170.466H148.532C149.958 170.466 151.218 171.416 151.535 172.758L155.669 190.781C156.269 193.394 158.559 195.218 161.24 195.218H162.707V199.701H161.088C157.838 199.701 155.194 202.346 155.194 205.596V214.104C155.194 217.355 157.838 219.999 161.088 219.999H164.907H168.726H202.411C203.626 219.999 204.611 219.014 204.611 217.799C204.611 216.584 203.626 215.6 202.411 215.6ZM60.4064 205.597V214.105C60.4064 214.929 59.7362 215.6 58.9121 215.6H55.0929H51.2742C50.45 215.6 49.7799 214.929 49.7799 214.105V205.597C49.7799 204.772 50.45 204.102 51.2742 204.102H58.9117C59.7362 204.102 60.4064 204.772 60.4064 205.597ZM159.958 189.798L155.819 171.756C155.818 171.75 155.81 171.719 155.809 171.712C155.804 171.689 155.796 171.667 155.79 171.644L153.281 160.972C153.003 159.789 151.819 159.056 150.635 159.334C149.453 159.612 148.72 160.796 148.997 161.979L149.992 166.209C149.518 166.118 149.031 166.066 148.532 166.066H145.611C144.033 166.066 142.524 166.55 141.249 167.466C132.1 174.039 121.294 177.514 110 177.514C98.7057 177.514 87.9002 174.039 78.7508 167.466C77.4757 166.55 75.9674 166.066 74.3891 166.066H71.468C70.9677 166.066 70.4797 166.118 70.005 166.209L70.9998 161.979C71.2779 160.796 70.5448 159.612 69.3617 159.333C68.179 159.054 66.9949 159.788 66.7164 160.971L64.193 171.701C64.1926 171.702 64.1921 171.703 64.1921 171.704L60.0416 189.797C59.9039 190.399 59.3759 190.818 58.759 190.818H52.2206C51.4955 190.818 50.9054 190.228 50.9054 189.503V149.456C50.9054 146.117 53.6224 143.4 56.9616 143.4H163.038C166.377 143.4 169.094 146.117 169.094 149.456V189.504C169.094 190.229 168.504 190.819 167.779 190.819H161.24C160.623 190.819 160.096 190.399 159.958 189.798ZM164.907 215.6H161.088C160.264 215.6 159.594 214.929 159.594 214.105V205.597C159.594 204.772 160.264 204.102 161.088 204.102H168.726C169.55 204.102 170.22 204.772 170.22 205.597V214.105C170.22 214.929 169.55 215.6 168.726 215.6H164.907ZM12.2215 217.8C12.2215 219.015 11.2368 220 10.0215 220H7.33531C6.12003 220 5.13531 219.015 5.13531 217.8C5.13531 216.585 6.12003 215.6 7.33531 215.6H10.0215C11.2368 215.6 12.2215 216.585 12.2215 217.8ZM80.8334 217.8C80.8334 219.015 79.8486 220 78.6334 220H75.9467C74.7314 220 73.7467 219.015 73.7467 217.8C73.7467 216.585 74.7314 215.6 75.9467 215.6H78.6334C79.8486 215.6 80.8334 216.585 80.8334 217.8ZM146.254 217.8C146.254 219.015 145.269 220 144.054 220H141.367C140.152 220 139.167 219.015 139.167 217.8C139.167 216.585 140.152 215.6 141.367 215.6H144.054C145.269 215.6 146.254 216.585 146.254 217.8ZM214.865 217.8C214.865 219.015 213.88 220 212.665 220H209.979C208.763 220 207.779 219.015 207.779 217.8C207.779 216.585 208.763 215.6 209.979 215.6H212.665C213.88 215.6 214.865 216.585 214.865 217.8ZM78.2435 41.0564V32.9542C78.2435 26.9544 83.1249 22.0735 89.1247 22.0735H130.875C136.875 22.0735 141.756 26.9548 141.756 32.9542V41.0564C141.756 47.0562 136.875 51.9372 130.875 51.9372H127.748C125.899 51.9372 124.394 53.4415 124.394 55.2908V59.1796C124.394 60.3944 123.41 61.3796 122.194 61.3796C120.979 61.3796 119.994 60.3944 119.994 59.1796V55.2908C119.994 51.0154 123.472 47.5372 127.748 47.5372H130.875C134.449 47.5372 137.356 44.6301 137.356 41.0564V32.9542C137.356 29.3806 134.449 26.4735 130.875 26.4735H89.1247C85.551 26.4735 82.6435 29.3806 82.6435 32.9542V41.0564C82.6435 44.6301 85.551 47.5372 89.1247 47.5372H92.2518C96.5273 47.5372 100.005 51.0154 100.005 55.2908V59.1796C100.005 60.3944 99.0208 61.3796 97.8055 61.3796C96.5902 61.3796 95.6055 60.3944 95.6055 59.1796V55.2908C95.6055 53.4415 94.1011 51.9372 92.2518 51.9372H89.1247C83.1249 51.9376 78.2435 47.0562 78.2435 41.0564ZM72.5508 154.936L72.4575 155.365C72.2331 156.394 71.3223 157.098 70.3099 157.098C70.1545 157.098 69.9975 157.081 69.84 157.047C68.6528 156.789 67.9 155.617 68.1583 154.429L68.2516 154.001C68.5103 152.814 69.6829 152.063 70.8691 152.319C72.0562 152.577 72.8091 153.749 72.5508 154.936ZM151.839 154.427C152.099 155.614 151.347 156.787 150.16 157.046C150.002 157.081 149.843 157.097 149.688 157.097C148.677 157.097 147.766 156.395 147.541 155.367L147.447 154.938C147.188 153.751 147.94 152.578 149.126 152.319C150.316 152.06 151.486 152.812 151.746 153.998L151.839 154.427ZM135.76 217.8C135.76 219.015 134.775 220 133.56 220H86.4403C85.225 220 84.2403 219.015 84.2403 217.8C84.2403 216.585 85.225 215.6 86.4403 215.6H133.56C134.775 215.6 135.76 216.585 135.76 217.8Z" fill="#1C1D21"/>
</svg>
