<svg width="220" height="220" viewBox="0 0 220 220" fill="none" xmlns="http://www.w3.org/2000/svg">
<path d="M78.2538 155.328V153.367V141.276C65.2135 131.573 56.7655 116.044 56.7655 98.541C56.7655 69.1402 80.5994 45.3067 110 45.3067C139.4 45.3067 163.234 69.1407 163.234 98.541C163.234 116.044 154.786 131.573 141.746 141.276V153.367V155.328C141.746 157.219 143.279 158.752 145.169 158.752H148.043C167.979 146.129 181.217 123.882 181.217 98.5406C181.217 59.2081 149.332 27.3231 109.999 27.3231C70.6669 27.3231 38.7827 59.2085 38.7827 98.541C38.7827 123.882 52.0206 146.13 71.9565 158.752H74.8302C76.7208 158.752 78.2538 157.219 78.2538 155.328Z" fill="#FDDF7F"/>
<path d="M163.234 98.541C163.234 69.1402 139.401 45.3067 110 45.3067C80.5998 45.3067 56.7659 69.1406 56.7659 98.541C56.7659 116.044 65.2139 131.573 78.2542 141.276V137.548C78.2542 129.959 84.4062 123.807 91.9958 123.807H110C96.0464 123.807 84.7349 112.495 84.7349 98.5414C84.7349 84.5877 96.0464 73.2762 110 73.2762C123.954 73.2762 135.265 84.5877 135.265 98.5414C135.265 112.495 123.954 123.806 110 123.806H128.005C135.594 123.806 141.746 129.958 141.746 137.547V141.276C154.786 131.573 163.234 116.044 163.234 98.541Z" fill="#83E1E5"/>
<path d="M161.432 158.752H145.17C143.279 158.752 141.747 157.219 141.747 155.328V153.367V137.548C141.747 129.959 135.595 123.807 128.005 123.807H91.9954C84.4063 123.807 78.2538 129.959 78.2538 137.548V153.367V155.329C78.2538 157.22 76.7208 158.753 74.8301 158.753H58.5686C54.3358 158.753 50.6935 162.005 50.4942 166.234C50.2817 170.748 53.8787 174.475 58.3464 174.475H88.5867V191.197H131.413V174.475H161.654C166.121 174.475 169.718 170.749 169.506 166.234C169.307 162.005 165.665 158.752 161.432 158.752Z" fill="#ECF4F7"/>
<path d="M110 123.806C123.954 123.806 135.265 112.495 135.265 98.541C135.265 84.5874 123.954 73.2758 110 73.2758C96.0464 73.2758 84.7347 84.5874 84.7347 98.541C84.7347 112.495 96.0464 123.806 110 123.806Z" fill="#FDDF7F"/>
<path d="M58.3461 158.753C54.0046 158.753 50.4846 162.272 50.4846 166.614C50.4846 170.956 54.0042 174.476 58.3461 174.476H65.5485V158.753H58.3461V158.753Z" fill="#FDDF7F"/>
<path d="M169.515 166.614C169.515 162.272 165.995 158.752 161.654 158.752H154.451V174.475H161.654C165.995 174.475 169.515 170.955 169.515 166.614Z" fill="#FDDF7F"/>
<path d="M153.258 217.8H66.7421C59.8878 217.8 54.3311 212.243 54.3311 205.389V203.607C54.3311 196.753 59.8878 191.196 66.7421 191.196H153.258C160.113 191.196 165.67 196.753 165.67 203.607V205.389C165.67 212.243 160.113 217.8 153.258 217.8Z" fill="#AAB1BA"/>
<path d="M125.984 191.196H94.0157V217.8H125.984V191.196Z" fill="#FDDF7F"/>
<path d="M110 151.146C113.856 151.146 116.982 148.02 116.982 144.164C116.982 140.309 113.856 137.183 110 137.183C106.144 137.183 103.019 140.309 103.019 144.164C103.019 148.02 106.144 151.146 110 151.146Z" fill="#FDDF7F"/>
<path d="M110 105.523C113.856 105.523 116.982 102.397 116.982 98.5412C116.982 94.6854 113.856 91.5597 110 91.5597C106.144 91.5597 103.019 94.6854 103.019 98.5412C103.019 102.397 106.144 105.523 110 105.523Z" fill="#ECF4F7"/>
<path d="M110 174.654C113.856 174.654 116.982 171.528 116.982 167.672C116.982 163.816 113.856 160.691 110 160.691C106.144 160.691 103.019 163.816 103.019 167.672C103.019 171.528 106.144 174.654 110 174.654Z" fill="#83E1E5"/>
<path d="M30.1255 172.279C28.9107 172.279 27.9255 171.294 27.9255 170.079C27.9255 168.864 28.9107 167.879 30.1255 167.879H32.7545V165.25C32.7545 164.035 33.7397 163.05 34.9545 163.05C36.1693 163.05 37.1545 164.035 37.1545 165.25V167.879H39.7835C40.9983 167.879 41.9835 168.864 41.9835 170.079C41.9835 171.294 40.9983 172.279 39.7835 172.279H37.1545V174.907C37.1545 176.122 36.1693 177.107 34.9545 177.107C33.7397 177.107 32.7545 176.122 32.7545 174.907V172.279H30.1255ZM189.875 167.879H187.246V165.25C187.246 164.035 186.26 163.05 185.046 163.05C183.831 163.05 182.846 164.035 182.846 165.25V167.879H180.217C179.002 167.879 178.017 168.864 178.017 170.079C178.017 171.294 179.002 172.279 180.217 172.279H182.846V174.907C182.846 176.122 183.831 177.107 185.046 177.107C186.26 177.107 187.246 176.122 187.246 174.907V172.279H189.875C191.089 172.279 192.075 171.294 192.075 170.079C192.075 168.864 191.089 167.879 189.875 167.879ZM105.171 9.229H107.8V11.8576C107.8 13.0724 108.785 14.0576 110 14.0576C111.215 14.0576 112.2 13.0724 112.2 11.8576V9.229H114.829C116.044 9.229 117.029 8.24384 117.029 7.029C117.029 5.81416 116.044 4.829 114.829 4.829H112.2V2.2C112.2 0.98516 111.215 0 110 0C108.785 0 107.8 0.98516 107.8 2.2V4.829H105.171C103.956 4.829 102.971 5.81416 102.971 7.029C102.971 8.24384 103.956 9.229 105.171 9.229ZM149.863 133.887C150.271 134.22 150.763 134.383 151.253 134.383C151.891 134.383 152.524 134.107 152.959 133.574C161.004 123.721 165.435 111.28 165.435 98.5406C165.435 67.9738 140.567 43.1064 110 43.1064C92.4722 43.1064 75.7865 51.5376 65.3664 65.6599C64.6448 66.6376 64.8529 68.0148 65.8306 68.7364C66.8083 69.4575 68.1855 69.2498 68.9071 68.2722C78.5013 55.2693 93.8635 47.5064 110.001 47.5064C138.142 47.5064 161.035 70.4004 161.035 98.5406C161.035 110.268 156.956 121.721 149.551 130.791C148.782 131.732 148.922 133.118 149.863 133.887ZM60.1234 79.7632C60.4041 79.8824 60.6958 79.9388 60.9827 79.9388C61.8389 79.9388 62.6525 79.4358 63.0085 78.5985C63.4608 77.5337 63.9566 76.4698 64.4825 75.4362C65.0333 74.3534 64.6021 73.029 63.5193 72.4777C62.4356 71.9268 61.1121 72.358 60.5607 73.4408C59.9896 74.5637 59.4506 75.72 58.9587 76.8777C58.4835 77.9962 59.0053 79.288 60.1234 79.7632ZM55.5025 88.3414C54.8808 91.6819 54.5657 95.1135 54.5657 98.5406C54.5657 111.04 58.6274 122.839 66.3111 132.663C66.7449 133.218 67.3922 133.508 68.0456 133.508C68.5195 133.508 68.9973 133.355 69.3995 133.041C70.3565 132.292 70.5254 130.909 69.777 129.952C62.704 120.909 58.9657 110.048 58.9657 98.5406C58.9657 95.3828 59.2561 92.2218 59.8281 89.1462C60.0503 87.9516 59.2623 86.8032 58.0677 86.581C56.874 86.3584 55.7243 87.1473 55.5025 88.3414ZM61.7025 150.886C62.5535 150.018 62.5398 148.625 61.6726 147.774C48.33 134.684 40.9821 117.2 40.9821 98.5411C40.9821 60.4846 71.9431 29.5236 110 29.5236C148.056 29.5236 179.017 60.4846 179.017 98.5411C179.017 117.632 171.386 135.398 157.531 148.565C156.65 149.402 156.614 150.795 157.451 151.675C157.884 152.13 158.465 152.36 159.046 152.36C159.591 152.36 160.136 152.159 160.561 151.755C175.3 137.749 183.417 118.851 183.417 98.5415C183.417 58.0589 150.482 25.124 110 25.124C69.5174 25.124 36.5825 58.0584 36.5825 98.5411C36.5825 118.391 44.3991 136.991 58.5917 150.915C59.4585 151.767 60.8516 151.753 61.7025 150.886ZM119.181 144.164C119.181 149.227 115.063 153.346 110 153.346C104.937 153.346 100.819 149.227 100.819 144.164C100.819 139.102 104.937 134.983 110 134.983C115.063 134.983 119.181 139.102 119.181 144.164ZM114.781 144.164C114.781 141.528 112.636 139.383 110 139.383C107.364 139.383 105.219 141.528 105.219 144.164C105.219 146.801 107.364 148.946 110 148.946C112.636 148.946 114.781 146.801 114.781 144.164ZM119.181 98.5411C119.181 103.604 115.063 107.723 110 107.723C104.937 107.723 100.819 103.604 100.819 98.5411C100.819 93.4784 104.937 89.3596 110 89.3596C115.063 89.3596 119.181 93.4784 119.181 98.5411ZM114.781 98.5411C114.781 95.9046 112.636 93.7596 110 93.7596C107.364 93.7596 105.219 95.9046 105.219 98.5411C105.219 101.178 107.364 103.323 110 103.323C112.636 103.323 114.781 101.178 114.781 98.5411ZM119.181 167.672C119.181 172.735 115.063 176.854 110 176.854C104.937 176.854 100.819 172.735 100.819 167.672C100.819 162.609 104.937 158.491 110 158.491C115.063 158.491 119.181 162.609 119.181 167.672ZM114.781 167.672C114.781 165.036 112.636 162.891 110 162.891C107.364 162.891 105.219 165.036 105.219 167.672C105.219 170.309 107.364 172.454 110 172.454C112.636 172.454 114.781 170.309 114.781 167.672ZM129.213 174.475C129.213 173.26 130.199 172.275 131.413 172.275H152.251V160.952H145.17C142.069 160.952 139.546 158.429 139.546 155.328V137.548C139.546 131.184 134.369 126.006 128.005 126.006H91.9952C85.6315 126.006 80.454 131.184 80.454 137.548V155.328C80.454 158.429 77.9311 160.952 74.8304 160.952H67.749V172.275H88.587C89.8018 172.275 90.787 173.26 90.787 174.475V183.539C90.787 184.754 89.8018 185.739 88.587 185.739C87.3721 185.739 86.387 184.754 86.387 183.539V176.675H58.3462C55.5689 176.675 52.9835 175.568 51.0655 173.558C49.1489 171.549 48.1655 168.911 48.2962 166.13C48.5492 160.759 53.0614 156.552 58.5684 156.552H74.8299C75.5049 156.552 76.0536 156.003 76.0536 155.328V137.548C76.0536 128.757 83.2049 121.606 91.9948 121.606H95.117C87.5534 116.709 82.5343 108.203 82.5343 98.5411C82.5343 83.3967 94.8552 71.0758 110 71.0758C125.144 71.0758 137.465 83.3967 137.465 98.5411C137.465 108.203 132.446 116.709 124.882 121.606H128.004C136.795 121.606 143.946 128.758 143.946 137.548V155.328C143.946 156.003 144.495 156.552 145.169 156.552H161.431C166.938 156.552 171.45 160.759 171.703 166.13C171.834 168.911 170.85 171.549 168.934 173.558C167.016 175.568 164.43 176.675 161.653 176.675H133.612V183.539C133.612 184.753 132.627 185.739 131.412 185.739C130.197 185.739 129.212 184.753 129.212 183.539V174.475H129.213ZM63.3486 160.952H58.5684C55.4677 160.952 52.8313 163.368 52.6918 166.337C52.6179 167.905 53.1709 169.39 54.2494 170.521C55.3287 171.652 56.7838 172.275 58.3467 172.275H63.349V160.952H63.3486ZM110 121.606C122.718 121.606 133.065 111.259 133.065 98.5411C133.065 85.8229 122.718 75.4758 110 75.4758C97.2818 75.4758 86.9348 85.8229 86.9348 98.5411C86.9348 111.259 97.2818 121.606 110 121.606ZM156.651 172.275H161.654C163.217 172.275 164.671 171.652 165.751 170.521C166.83 169.39 167.383 167.904 167.309 166.337C167.169 163.368 164.532 160.952 161.432 160.952H156.652V172.275H156.651ZM86.3865 138.607V163.214C86.3865 164.429 87.3717 165.414 88.5865 165.414C89.8014 165.414 90.7865 164.429 90.7865 163.214V138.607C90.7865 137.393 89.8014 136.407 88.5865 136.407C87.3717 136.407 86.3865 137.392 86.3865 138.607ZM131.413 165.414C132.628 165.414 133.613 164.429 133.613 163.214V138.607C133.613 137.392 132.628 136.407 131.413 136.407C130.199 136.407 129.213 137.392 129.213 138.607V163.214C129.213 164.429 130.198 165.414 131.413 165.414ZM23.7459 215.6H20.7715C19.5567 215.6 18.5715 216.585 18.5715 217.8C18.5715 219.015 19.5567 220 20.7715 220H23.7459C24.9608 220 25.9459 219.015 25.9459 217.8C25.9459 216.585 24.9608 215.6 23.7459 215.6ZM191.019 217.8C191.019 219.015 190.033 220 188.819 220H153.259H149.409H70.591H66.7419H31.1815C29.9667 220 28.9815 219.015 28.9815 217.8C28.9815 216.585 29.9667 215.6 31.1815 215.6H56.3046C53.7249 212.964 52.1308 209.36 52.1308 205.389V203.607C52.1308 195.551 58.685 188.996 66.7419 188.996H153.259C161.315 188.996 167.87 195.551 167.87 203.607V205.389C167.87 209.36 166.275 212.964 163.696 215.6H188.819C190.033 215.6 191.019 216.585 191.019 217.8ZM70.591 215.6H91.8157V198.407C91.8157 197.192 92.8008 196.207 94.0157 196.207C95.2305 196.207 96.2157 197.192 96.2157 198.407V202.298H123.784V193.396H66.7419C61.1116 193.396 56.5308 197.977 56.5308 203.607V205.388C56.5308 211.019 61.1116 215.6 66.7419 215.6H70.591V215.6ZM153.258 215.6C158.888 215.6 163.469 211.019 163.469 205.389V203.607C163.469 197.977 158.888 193.396 153.258 193.396H128.184V210.393C128.184 211.608 127.199 212.593 125.984 212.593C124.769 212.593 123.784 211.608 123.784 210.393V206.698H96.2157V215.6H149.409H153.258ZM199.228 215.6H196.254C195.039 215.6 194.054 216.585 194.054 217.8C194.054 219.015 195.039 220 196.254 220H199.228C200.443 220 201.428 219.015 201.428 217.8C201.428 216.585 200.443 215.6 199.228 215.6Z" fill="#1C1D21"/>
</svg>
