<svg width="220" height="220" viewBox="0 0 220 220" fill="none" xmlns="http://www.w3.org/2000/svg">
<path d="M49.905 86.3606C56.19 58.9882 80.7481 38.5106 110 38.5106C139.252 38.5106 163.81 58.9882 170.095 86.361H180.266C173.832 53.4231 144.821 28.5644 110 28.5644C75.1791 28.5644 46.1685 53.4231 39.7349 86.3606H49.905Z" fill="#FDDF7F"/>
<path d="M70.5913 86.3606C76.3042 70.0965 91.8076 58.4017 110 58.4017C128.192 58.4017 143.696 70.0969 149.408 86.3606H159.835C153.78 64.5291 133.733 48.4559 110 48.4559C86.2667 48.4559 66.2199 64.5291 60.165 86.3606H70.5913Z" fill="#83E1E5"/>
<path d="M60.1651 86.3606C66.22 64.5291 86.2668 48.4559 110 48.4559C133.733 48.4559 153.78 64.5291 159.835 86.3606H170.095C163.81 58.9882 139.252 38.5106 110 38.5106C80.7479 38.5106 56.1897 58.9882 49.9048 86.3611H60.1651V86.3606Z" fill="#ECF4F7"/>
<path d="M55.2487 152.118C54.0343 150.903 52.9836 149.587 52.0878 148.2L39.3181 160.97C39.2891 160.94 39.2653 160.906 39.2354 160.876C36.7362 158.377 32.6838 158.377 30.1846 160.876C27.6854 163.376 27.6854 167.428 30.1846 169.927C31.6718 171.414 33.7072 172.009 35.6393 171.726C35.3572 173.658 35.9521 175.694 37.4393 177.181C39.9385 179.68 43.9909 179.681 46.4901 177.181C48.9893 174.682 48.9893 170.629 46.4901 168.13C46.4602 168.1 46.4267 168.077 46.3968 168.048L59.1665 155.278C57.7792 154.383 56.4636 153.333 55.2487 152.118Z" fill="#ECF4F7"/>
<path d="M84.9453 144.001C88.1556 144.001 91.1014 145.11 93.4408 146.954C93.4408 146.953 93.4408 146.953 93.4408 146.953C93.2552 145.953 93.1469 144.925 93.1469 143.871C93.1469 134.655 100.553 127.174 109.738 127.043C112.106 118.999 110.117 109.944 103.77 103.597C94.525 94.3514 79.536 94.3514 70.2907 103.597L55.2493 118.638C46.004 127.883 46.004 142.872 55.2493 152.118C59.688 156.556 65.4502 158.857 71.2653 159.034C71.2257 158.61 71.1993 158.182 71.1993 157.747C71.1988 150.155 77.3531 144.001 84.9453 144.001Z" fill="#FDDF7F"/>
<path d="M192.321 163.95C194.696 161.053 195.994 157.423 195.994 153.677V142.165C195.994 137.66 194.118 133.358 190.817 130.293C185.583 125.432 177.783 124.573 171.616 128.179L165.76 131.602L159.904 128.179C153.737 124.574 145.938 125.432 140.703 130.293C137.402 133.358 135.526 137.66 135.526 142.165V144.012C142.899 144.261 148.802 150.312 148.802 157.747C148.802 160.677 147.882 163.391 146.32 165.622C146.334 165.622 146.349 165.621 146.364 165.621C153.851 165.621 159.936 171.608 160.102 179.056H179.933C179.941 179.047 179.949 179.038 179.957 179.029L192.321 163.95Z" fill="#FDDF7F"/>
<path d="M179.837 117.538C186.241 115.168 190.323 110.25 188.955 106.553C187.587 102.855 181.286 101.778 174.883 104.147C168.479 106.516 164.397 111.434 165.766 115.132C167.134 118.83 173.434 119.907 179.837 117.538Z" fill="#83E1E5"/>
<path d="M15.4501 179.057C15.4501 191.929 25.8856 202.364 38.7582 202.364H61.5982C53.5602 202.926 47.2128 209.619 47.2128 217.8H172.787C172.787 209.619 166.44 202.926 158.402 202.364H181.242C194.115 202.364 204.55 191.929 204.55 179.057H15.4501Z" fill="#ECF4F7"/>
<path d="M59.8982 179.056H109.987C109.981 178.971 109.975 178.885 109.971 178.799C109.975 178.885 109.981 178.97 109.987 179.056H160.102C159.936 171.608 153.851 165.621 146.363 165.621C146.349 165.621 146.334 165.622 146.319 165.622C147.882 163.391 148.802 160.677 148.802 157.746C148.802 150.154 142.647 144 135.055 144C131.825 144 128.86 145.122 126.513 146.988C126.703 145.977 126.814 144.937 126.814 143.871C126.814 134.573 119.278 127.037 109.981 127.037C100.684 127.037 93.1472 134.573 93.1472 143.871C93.1472 144.925 93.2555 145.953 93.4411 146.953C93.4411 146.953 93.4411 146.953 93.4411 146.953C91.1017 145.109 88.1559 144 84.9456 144C77.3534 144 71.1991 150.155 71.1991 157.746C71.1991 160.677 72.1188 163.391 73.6812 165.622C73.6667 165.622 73.6521 165.621 73.6372 165.621C66.1493 165.621 60.0641 171.609 59.8982 179.056Z" fill="#83E1E5"/>
<path d="M20.1241 217.8C20.1241 219.015 19.1394 220 17.9241 220H15.45C14.2347 220 13.25 219.015 13.25 217.8C13.25 216.585 14.2347 215.6 15.45 215.6H17.9241C19.1394 215.6 20.1241 216.585 20.1241 217.8ZM204.55 215.6H202.076C200.86 215.6 199.876 216.585 199.876 217.8C199.876 219.015 200.86 220 202.076 220H204.55C205.765 220 206.75 219.015 206.75 217.8C206.75 216.585 205.765 215.6 204.55 215.6ZM105.171 9.229H107.8V11.858C107.8 13.0733 108.785 14.058 110 14.058C111.215 14.058 112.2 13.0733 112.2 11.858V9.229H114.829C116.044 9.229 117.029 8.24428 117.029 7.029C117.029 5.81372 116.044 4.829 114.829 4.829H112.2V2.2C112.2 0.98472 111.215 0 110 0C108.785 0 107.8 0.98472 107.8 2.2V4.829H105.171C103.956 4.829 102.971 5.81372 102.971 7.029C102.971 8.24428 103.956 9.229 105.171 9.229ZM173.435 45.742H176.064V48.371C176.064 49.5862 177.048 50.571 178.264 50.571C179.479 50.571 180.464 49.5862 180.464 48.371V45.742H183.093C184.308 45.742 185.293 44.7572 185.293 43.542C185.293 42.3267 184.308 41.342 183.093 41.342H180.464V38.713C180.464 37.4977 179.479 36.513 178.264 36.513C177.048 36.513 176.064 37.4977 176.064 38.713V41.342H173.435C172.219 41.342 171.235 42.3267 171.235 43.542C171.235 44.7572 172.219 45.742 173.435 45.742ZM36.9075 45.742H39.5365V48.371C39.5365 49.5862 40.5212 50.571 41.7365 50.571C42.9518 50.571 43.9365 49.5862 43.9365 48.371V45.742H46.5655C47.7808 45.742 48.7655 44.7572 48.7655 43.542C48.7655 42.3267 47.7808 41.342 46.5655 41.342H43.9365V38.713C43.9365 37.4977 42.9518 36.513 41.7365 36.513C40.5212 36.513 39.5365 37.4977 39.5365 38.713V41.342H36.9075C35.6922 41.342 34.7075 42.3267 34.7075 43.542C34.7075 44.7572 35.6922 45.742 36.9075 45.742ZM144.509 164.373L141.372 168.543C140.641 169.514 140.836 170.893 141.807 171.623C142.203 171.922 142.667 172.066 143.128 172.066C143.796 172.066 144.455 171.763 144.887 171.188L147.383 167.871C150.97 168.185 154.191 170.138 156.137 173.239C156.555 173.905 157.271 174.269 158.003 174.269C158.402 174.269 158.807 174.16 159.17 173.932C160.199 173.286 160.51 171.928 159.863 170.899C157.551 167.216 153.934 164.7 149.812 163.794C150.596 161.89 151.001 159.844 151.001 157.747C151.001 148.954 143.847 141.801 135.054 141.801C132.908 141.801 130.862 142.23 128.991 143.001C128.534 132.909 120.182 124.838 109.979 124.838C99.7813 124.838 91.4327 132.9 90.9681 142.985C89.1082 142.224 87.075 141.801 84.944 141.801C76.1511 141.801 68.9976 148.954 68.9976 157.747C68.9976 159.845 69.4028 161.89 70.186 163.794C66.0641 164.7 62.4477 167.216 60.1351 170.899C59.4887 171.928 59.7994 173.286 60.8281 173.932C61.1915 174.16 61.5963 174.269 61.9958 174.269C62.7276 174.269 63.4434 173.904 63.861 173.239C65.8062 170.141 69.024 168.188 72.5756 167.872L75.0709 171.188C75.503 171.763 76.1625 172.066 76.8304 172.066C77.2907 172.066 77.7553 171.922 78.1513 171.623C79.1224 170.893 79.3169 169.514 78.5865 168.543L75.6416 164.629C75.5949 164.537 75.5417 164.446 75.481 164.36C74.117 162.413 73.3967 160.126 73.3967 157.747C73.3967 151.38 78.5764 146.201 84.9432 146.201C87.6241 146.201 90.0925 147.121 92.0544 148.661C92.0628 148.667 92.0685 148.675 92.0769 148.682C92.7681 149.227 93.3863 149.839 93.9262 150.504C93.953 150.538 93.979 150.572 94.0054 150.605C94.0996 150.724 94.1906 150.844 94.28 150.965C94.3275 151.03 94.3737 151.096 94.4199 151.162C94.4837 151.253 94.5453 151.345 94.606 151.438C94.6619 151.523 94.7178 151.609 94.7714 151.695C94.8163 151.768 94.859 151.841 94.9021 151.914C94.9628 152.018 95.0244 152.121 95.0821 152.227C95.1072 152.273 95.13 152.319 95.1547 152.365C95.3773 152.786 95.5749 153.221 95.7447 153.67C95.7615 153.714 95.7795 153.758 95.7953 153.802C95.8402 153.925 95.8811 154.049 95.9221 154.174C95.944 154.243 95.9674 154.311 95.988 154.38C96.0232 154.495 96.0554 154.611 96.0871 154.728C96.109 154.81 96.131 154.892 96.1513 154.974C96.1786 155.084 96.2041 155.194 96.2278 155.305C96.2476 155.397 96.2661 155.491 96.2837 155.584C96.3035 155.688 96.3229 155.793 96.34 155.899C96.3568 156.002 96.3704 156.105 96.3845 156.209C96.3977 156.308 96.4118 156.407 96.4223 156.506C96.4346 156.622 96.443 156.738 96.4518 156.854C96.4588 156.945 96.4676 157.035 96.4725 157.126C96.4808 157.282 96.4839 157.439 96.4857 157.597C96.4861 157.647 96.4896 157.696 96.4896 157.746C96.4896 159.419 96.1262 161.043 95.4411 162.538C95.1516 163.17 94.8106 163.78 94.4058 164.358C94.4032 164.362 94.4014 164.366 94.3988 164.37L91.2602 168.542C90.5298 169.512 90.7243 170.892 91.6954 171.622C92.0914 171.92 92.5556 172.064 93.0163 172.064C93.6842 172.064 94.3438 171.761 94.7758 171.187L97.2742 167.867C99.6634 168.08 101.938 169.038 103.769 170.618C104.689 171.412 106.077 171.31 106.872 170.39C107.666 169.47 107.564 168.081 106.644 167.287C104.639 165.557 102.249 164.366 99.6994 163.799C99.736 163.71 99.7672 163.62 99.802 163.531C99.8314 163.456 99.8605 163.381 99.8886 163.305C100.009 162.983 100.122 162.657 100.221 162.328C100.223 162.32 100.225 162.311 100.227 162.303C100.323 161.982 100.406 161.656 100.481 161.329C100.499 161.25 100.517 161.171 100.534 161.091C100.678 160.416 100.778 159.73 100.834 159.035C100.841 158.956 100.847 158.877 100.852 158.797C100.875 158.448 100.89 158.098 100.89 157.746C100.89 157.626 100.883 157.507 100.881 157.388C100.877 157.23 100.876 157.072 100.868 156.915C100.86 156.765 100.846 156.615 100.834 156.466C100.824 156.341 100.817 156.215 100.804 156.091C100.787 155.923 100.762 155.756 100.74 155.589C100.726 155.487 100.715 155.384 100.699 155.283C100.671 155.1 100.636 154.918 100.601 154.737C100.586 154.655 100.572 154.573 100.555 154.492C100.515 154.296 100.468 154.102 100.42 153.908C100.405 153.845 100.391 153.782 100.374 153.72C100.321 153.513 100.261 153.308 100.199 153.104C100.185 153.058 100.172 153.012 100.158 152.966C100.09 152.751 100.018 152.538 99.9406 152.326C99.9296 152.295 99.9186 152.263 99.9071 152.233C99.8253 152.011 99.7386 151.792 99.6471 151.574C99.6392 151.555 99.6317 151.537 99.6238 151.519C99.5278 151.293 99.4271 151.07 99.3206 150.849C99.3167 150.841 99.3127 150.833 99.3087 150.825C98.7121 149.59 97.954 148.433 97.048 147.381C96.9389 147.254 96.8311 147.126 96.7184 147.003C96.6846 146.967 96.6489 146.931 96.6146 146.894C96.4536 146.721 96.2894 146.551 96.1209 146.385C96.1046 146.37 96.0879 146.355 96.0721 146.339C95.8798 146.151 95.6827 145.969 95.4816 145.791C95.4807 145.791 95.4803 145.79 95.4794 145.789C95.3896 145.134 95.3456 144.501 95.3456 143.87C95.3456 135.801 101.91 129.236 109.979 129.236C118.048 129.236 124.613 135.801 124.613 143.87C124.613 144.514 124.567 145.16 124.474 145.827C124.467 145.834 124.461 145.84 124.454 145.846C124.275 146.006 124.1 146.17 123.929 146.337C123.897 146.368 123.864 146.398 123.832 146.429C123.684 146.576 123.54 146.727 123.398 146.879C122.649 147.68 121.99 148.548 121.428 149.471C121.424 149.477 121.42 149.483 121.417 149.488C121.289 149.699 121.166 149.912 121.048 150.129C121.042 150.141 121.035 150.154 121.028 150.166C120.914 150.377 120.804 150.591 120.699 150.807C120.689 150.828 120.679 150.848 120.669 150.869C120.569 151.078 120.473 151.29 120.382 151.504C120.368 151.536 120.355 151.567 120.342 151.598C120.256 151.804 120.174 152.011 120.097 152.221C120.079 152.266 120.064 152.312 120.048 152.357C119.976 152.555 119.908 152.755 119.845 152.956C119.825 153.018 119.807 153.081 119.789 153.144C119.732 153.332 119.677 153.52 119.627 153.711C119.605 153.793 119.587 153.876 119.567 153.959C119.524 154.133 119.482 154.308 119.445 154.484C119.423 154.589 119.405 154.696 119.385 154.803C119.356 154.96 119.326 155.117 119.301 155.276C119.28 155.408 119.265 155.542 119.248 155.675C119.23 155.811 119.21 155.947 119.196 156.084C119.178 156.252 119.168 156.423 119.155 156.592C119.148 156.698 119.137 156.803 119.131 156.909C119.117 157.186 119.109 157.465 119.109 157.746C119.109 158.094 119.125 158.44 119.147 158.785C119.152 158.873 119.158 158.959 119.165 159.046C119.193 159.384 119.227 159.72 119.275 160.054C119.276 160.061 119.277 160.067 119.278 160.074C119.327 160.414 119.392 160.751 119.463 161.086C119.481 161.169 119.5 161.252 119.518 161.334C119.592 161.656 119.673 161.975 119.767 162.29C119.771 162.304 119.774 162.317 119.778 162.331C119.876 162.657 119.988 162.979 120.107 163.298C120.137 163.379 120.168 163.46 120.199 163.541C120.233 163.626 120.264 163.714 120.299 163.799C117.749 164.366 115.359 165.557 113.354 167.288C112.434 168.082 112.333 169.471 113.126 170.391C113.561 170.895 114.175 171.153 114.792 171.153C115.301 171.153 115.813 170.977 116.229 170.618C118.05 169.047 120.311 168.09 122.686 167.87L125.182 171.187C125.614 171.762 126.273 172.064 126.941 172.064C127.401 172.064 127.866 171.92 128.262 171.622C129.233 170.892 129.428 169.512 128.697 168.542L125.753 164.629C125.706 164.536 125.653 164.445 125.592 164.358C124.229 162.412 123.508 160.126 123.508 157.746C123.508 157.535 123.515 157.326 123.526 157.118C123.53 157.047 123.537 156.978 123.542 156.908C123.552 156.771 123.562 156.634 123.577 156.498C123.586 156.413 123.598 156.328 123.609 156.244C123.625 156.125 123.641 156.007 123.66 155.89C123.675 155.796 123.692 155.703 123.71 155.61C123.73 155.505 123.75 155.399 123.773 155.294C123.795 155.195 123.818 155.096 123.842 154.997C123.866 154.902 123.89 154.808 123.916 154.714C123.944 154.609 123.974 154.503 124.005 154.4C124.031 154.317 124.058 154.235 124.084 154.154C124.121 154.041 124.158 153.929 124.198 153.818C124.221 153.754 124.247 153.69 124.272 153.625C124.441 153.183 124.636 152.754 124.857 152.339C124.875 152.305 124.892 152.27 124.911 152.236C124.97 152.126 125.034 152.019 125.097 151.912C125.137 151.845 125.175 151.777 125.216 151.711C125.273 151.618 125.333 151.527 125.392 151.436C125.447 151.353 125.501 151.271 125.558 151.189C125.61 151.114 125.664 151.039 125.718 150.964C125.792 150.862 125.868 150.761 125.947 150.661C125.988 150.608 126.029 150.555 126.071 150.503C126.189 150.358 126.31 150.214 126.436 150.073C126.44 150.068 126.445 150.062 126.45 150.057C126.884 149.573 127.363 149.122 127.882 148.708C127.887 148.705 127.891 148.7 127.895 148.696C129.865 147.134 132.352 146.197 135.055 146.197C141.422 146.197 146.602 151.377 146.602 157.744C146.602 160.123 145.881 162.41 144.517 164.357C144.514 164.364 144.513 164.369 144.509 164.373ZM190.351 104.856C190.958 105.359 191.249 106.147 191.116 106.924C190.121 112.708 186.089 117.565 180.594 119.599C178.748 120.281 176.82 120.615 174.902 120.615C172.512 120.615 170.139 120.097 167.959 119.091V127.768L170.505 126.28C177.56 122.155 186.324 123.121 192.313 128.682C196.05 132.152 198.193 137.067 198.193 142.166V153.677C198.193 157.92 196.712 162.064 194.021 165.345L188.078 172.594C187.643 173.124 187.012 173.399 186.375 173.399C185.885 173.399 185.391 173.235 184.982 172.9C184.042 172.129 183.905 170.743 184.676 169.804L190.619 162.555C192.666 160.059 193.793 156.906 193.793 153.677V142.166C193.793 138.286 192.163 134.546 189.319 131.906C184.763 127.675 178.094 126.94 172.725 130.079L166.869 133.502C166.797 133.544 166.722 133.58 166.646 133.613C166.633 133.619 166.621 133.626 166.608 133.632C166.491 133.681 166.37 133.716 166.248 133.744C166.216 133.751 166.184 133.757 166.151 133.763C165.892 133.81 165.627 133.81 165.367 133.763C165.335 133.757 165.303 133.751 165.27 133.744C165.148 133.716 165.027 133.681 164.91 133.632C164.897 133.626 164.885 133.619 164.873 133.613C164.797 133.58 164.722 133.544 164.649 133.502L158.793 130.079C153.425 126.94 146.756 127.675 142.199 131.906C140.819 133.187 139.728 134.708 138.956 136.425C138.457 137.533 137.155 138.027 136.047 137.53C134.939 137.031 134.444 135.729 134.943 134.622C135.958 132.364 137.392 130.365 139.205 128.682C145.194 123.119 153.958 122.155 161.013 126.28L163.559 127.768V102.136C163.559 100.921 164.544 99.9363 165.759 99.9363C166.975 99.9363 167.959 100.921 167.959 102.136V106.128C169.657 104.358 171.748 102.957 174.113 102.083C179.608 100.049 185.831 101.112 190.351 104.856ZM175.64 106.209C172.026 107.546 169.275 110.55 168.222 114.219C171.409 116.318 175.454 116.809 179.067 115.472C182.682 114.135 185.432 111.13 186.485 107.462C183.298 105.362 179.254 104.871 175.64 106.209ZM81.9177 110.681L80.9757 111.623C80.1164 112.482 80.1164 113.875 80.9757 114.734C81.4051 115.163 81.9683 115.378 82.5311 115.378C83.0938 115.378 83.6575 115.163 84.0865 114.734L85.0285 113.791C85.8878 112.933 85.8878 111.54 85.0285 110.681C84.1701 109.821 82.7762 109.821 81.9177 110.681ZM95.0922 125.739L96.0342 124.797C96.8936 123.938 96.8936 122.545 96.0342 121.686C95.1758 120.827 93.7819 120.827 92.9234 121.686L91.9814 122.628C91.1221 123.487 91.1221 124.88 91.9814 125.739C92.4108 126.169 92.974 126.384 93.5368 126.384C94.0996 126.384 94.6632 126.169 95.0922 125.739ZM75.0902 123.729L76.0323 122.787C76.8916 121.928 76.8916 120.535 76.0323 119.676C75.1738 118.817 73.7799 118.817 72.9215 119.676L71.9794 120.619C71.1201 121.477 71.1201 122.87 71.9794 123.729C72.4089 124.159 72.9721 124.374 73.5348 124.374C74.0976 124.374 74.6612 124.159 75.0902 123.729ZM82.9852 131.624C82.1258 132.483 82.1258 133.876 82.9852 134.735C83.4146 135.165 83.9778 135.38 84.5406 135.38C85.1033 135.38 85.667 135.165 86.096 134.735L87.038 133.793C87.8973 132.934 87.8973 131.541 87.038 130.682C86.1796 129.823 84.7856 129.823 83.9272 130.682L82.9852 131.624ZM67.036 128.673C66.1776 127.813 64.7837 127.813 63.9252 128.673L62.9832 129.615C62.1239 130.474 62.1239 131.867 62.9832 132.726C63.4126 133.155 63.9758 133.37 64.5386 133.37C65.1014 133.37 65.665 133.155 66.094 132.726L67.036 131.784C67.8958 130.925 67.8958 129.532 67.036 128.673ZM181.242 204.564H169C172.153 207.356 174.297 211.249 174.845 215.6H193.485C194.7 215.6 195.685 216.585 195.685 217.8C195.685 219.015 194.7 220 193.485 220H172.788H47.2123H26.5151C25.2998 220 24.3151 219.015 24.3151 217.8C24.3151 216.585 25.2998 215.6 26.5151 215.6H45.1553C45.7031 211.249 47.8468 207.356 50.9998 204.564H38.7581C24.6931 204.564 13.25 193.121 13.25 179.056C13.25 177.841 14.2347 176.856 15.45 176.856H34.462C33.9467 175.94 33.6022 174.942 33.4544 173.9C31.6451 173.632 29.9405 172.794 28.6284 171.483C27.0048 169.858 26.1099 167.699 26.1099 165.402C26.1094 163.105 27.004 160.945 28.6289 159.321C30.2529 157.697 32.4124 156.802 34.7092 156.802C36.2976 156.802 37.8205 157.23 39.1458 158.031L49.3177 147.859C47.2294 144.08 46.1145 139.816 46.1145 135.378C46.1145 128.467 48.8055 121.969 53.693 117.083L68.7344 102.041C78.8228 91.953 95.2365 91.953 105.325 102.041C109.45 106.166 112.004 111.401 112.71 117.18C112.858 118.386 112 119.483 110.794 119.63C109.584 119.782 108.491 118.92 108.343 117.714C107.757 112.92 105.638 108.576 102.214 105.152C93.8413 96.7802 80.2184 96.7802 71.8452 105.152L56.8038 120.193C49.521 127.477 48.5767 138.731 53.9641 147.048C54.1542 147.341 54.3513 147.629 54.555 147.913C54.5669 147.929 54.5774 147.946 54.5893 147.962C55.0359 148.578 55.5138 149.171 56.0198 149.735C56.2741 150.018 56.5354 150.294 56.8034 150.562C57.8761 151.635 59.0725 152.6 60.3586 153.431C60.3599 153.432 60.3617 153.433 60.363 153.434C61.4986 154.166 62.7007 154.792 63.9666 155.301C65.0943 155.753 65.6417 157.034 65.1889 158.162C64.844 159.021 64.0185 159.543 63.146 159.543C62.8732 159.543 62.596 159.493 62.3276 159.385C61.3565 158.995 60.4202 158.543 59.5116 158.044L49.3348 168.221C50.1352 169.546 50.5633 171.069 50.5633 172.657C50.5633 174.153 50.1779 175.587 49.4646 176.857H204.549C205.764 176.857 206.749 177.841 206.749 179.057C206.75 193.121 195.307 204.564 181.242 204.564ZM35.3208 169.55C35.4269 169.535 35.5329 169.527 35.639 169.527C36.218 169.527 36.779 169.756 37.1944 170.171C37.6858 170.662 37.9164 171.357 37.8156 172.045C37.6216 173.378 38.051 174.683 38.9944 175.627C40.6325 177.264 43.2963 177.264 44.9335 175.627C45.7273 174.833 46.1642 173.779 46.1642 172.657C46.1642 171.556 45.7431 170.519 44.9775 169.731C44.9419 169.701 44.908 169.67 44.8754 169.638C44.4478 169.229 44.2031 168.665 44.1965 168.073C44.1899 167.481 44.4227 166.912 44.8411 166.493L55.7852 155.549C55.7826 155.547 55.7804 155.545 55.7778 155.543C55.4495 155.278 55.1274 155.004 54.8111 154.722C54.7741 154.689 54.735 154.658 54.698 154.625C54.3561 154.318 54.0204 154.001 53.693 153.674C53.3683 153.349 53.0546 153.016 52.7492 152.677C52.7061 152.629 52.6656 152.579 52.623 152.53C52.351 152.224 52.0866 151.914 51.8305 151.596C51.8266 151.591 51.8222 151.587 51.8182 151.581L40.8736 162.525C40.4556 162.944 39.896 163.175 39.2945 163.17C38.7027 163.163 38.1386 162.919 37.729 162.492C37.6968 162.458 37.6652 162.423 37.6352 162.389C35.9949 160.795 33.3637 160.809 31.7401 162.432C30.9468 163.226 30.5103 164.28 30.5103 165.402C30.5103 166.524 30.9468 167.578 31.7401 168.372C32.6835 169.315 33.9859 169.743 35.3208 169.55ZM181.242 200.164C192.138 200.164 201.132 191.865 202.236 181.256H17.764C18.8679 191.865 27.862 200.164 38.7581 200.164H61.5976H126.814C128.029 200.164 129.014 201.149 129.014 202.364C129.014 203.58 128.029 204.564 126.814 204.564H61.7059C55.5538 205.015 50.5959 209.681 49.5962 215.6H170.404C169.405 209.681 164.446 205.015 158.294 204.564H145.418C144.203 204.564 143.218 203.58 143.218 202.364C143.218 201.149 144.203 200.164 145.418 200.164H158.402H181.242ZM136.949 200.164H134.778C133.563 200.164 132.578 201.149 132.578 202.364C132.578 203.58 133.563 204.564 134.778 204.564H136.949C138.165 204.564 139.149 203.58 139.149 202.364C139.149 201.149 138.165 200.164 136.949 200.164ZM39.3125 88.5201C40.5027 88.7528 41.6608 87.9749 41.8936 86.783C48.2335 54.3233 76.8766 30.7644 110 30.7644C143.123 30.7644 171.766 54.3233 178.106 86.7825C178.311 87.8324 179.232 88.561 180.263 88.561C180.402 88.561 180.545 88.5478 180.687 88.5196C181.88 88.2869 182.657 87.1314 182.424 85.9386C175.682 51.4188 145.223 26.3644 110 26.3644C74.777 26.3644 44.318 51.4188 37.575 85.9386C37.3422 87.1314 38.1201 88.2869 39.3125 88.5201ZM69.8617 88.4365C71.0101 88.8386 72.2641 88.2358 72.6667 87.0896C78.2318 71.2461 93.235 60.6016 110 60.6016C126.765 60.6016 141.767 71.2461 147.333 87.0896C147.651 87.9947 148.501 88.561 149.409 88.561C149.651 88.561 149.897 88.521 150.138 88.4365C151.284 88.0334 151.887 86.7777 151.485 85.6315C145.301 68.0284 128.629 56.2016 110 56.2016C91.3702 56.2016 74.6991 68.0284 68.5153 85.6315C68.1127 86.7781 68.7155 88.0334 69.8617 88.4365ZM110 40.7101C137.44 40.7101 161.812 60.1159 167.951 86.8529C168.185 87.8711 169.091 88.561 170.093 88.561C170.256 88.561 170.422 88.543 170.587 88.5047C171.771 88.2328 172.511 87.0522 172.239 85.8682C169.06 72.0214 161.177 59.4462 150.042 50.4583C138.738 41.3349 124.518 36.3101 110 36.3101C95.482 36.3101 81.2617 41.3349 69.9576 50.4583C58.8226 59.4462 50.9391 72.0214 47.7605 85.8682C47.4886 87.0522 48.2282 88.2328 49.4123 88.5047C50.5968 88.7779 51.7768 88.0374 52.0488 86.8529C58.1872 60.1163 82.5597 40.7101 110 40.7101ZM59.5772 88.4809C60.7484 88.8052 61.9602 88.1197 62.2849 86.9488C68.2113 65.5807 87.8322 50.6568 109.999 50.6568C132.167 50.6568 151.788 65.5807 157.714 86.9488C157.984 87.923 158.869 88.5614 159.832 88.5614C160.027 88.5614 160.225 88.5355 160.422 88.4809C161.592 88.1562 162.278 86.944 161.954 85.7732C155.502 62.5064 134.137 46.2563 110 46.2563C85.8628 46.2563 64.4981 62.5064 58.0451 85.7732C57.7208 86.944 58.4063 88.1558 59.5772 88.4809Z" fill="#1C1D21"/>
</svg>
