<svg width="220" height="220" viewBox="0 0 220 220" fill="none" xmlns="http://www.w3.org/2000/svg">
<path d="M152.962 3.17459L155.954 9.23691C156.208 9.75303 156.701 10.1108 157.27 10.1935L163.96 11.1654C165.395 11.374 165.968 13.1366 164.93 14.1482L160.089 18.8672C159.676 19.2689 159.489 19.848 159.586 20.4151L160.728 27.078C160.974 28.5067 159.474 29.5962 158.191 28.9216L152.207 25.7756C151.697 25.5077 151.089 25.5077 150.579 25.7756L144.595 28.9216C143.312 29.5962 141.813 28.5067 142.058 27.078L143.201 20.4151C143.298 19.848 143.11 19.2689 142.698 18.8672L137.857 14.1482C136.819 13.1366 137.392 11.374 138.826 11.1654L145.516 10.1935C146.086 10.1108 146.579 9.75303 146.833 9.23691L149.825 3.17459C150.467 1.87527 152.32 1.87527 152.962 3.17459Z" fill="#83E1E5"/>
<path d="M111.568 3.17459L114.56 9.23691C114.815 9.75303 115.307 10.1108 115.877 10.1935L122.567 11.1654C124.001 11.374 124.574 13.1366 123.536 14.1482L118.695 18.8672C118.283 19.2689 118.095 19.848 118.192 20.4151L119.335 27.078C119.58 28.5067 118.081 29.5962 116.798 28.9216L110.814 25.7756C110.304 25.5077 109.696 25.5077 109.186 25.7756L103.202 28.9216C101.919 29.5962 100.42 28.5067 100.665 27.078L101.807 20.4151C101.905 19.848 101.717 19.2689 101.304 18.8672L96.4635 14.1482C95.4255 13.1366 95.9984 11.374 97.4328 11.1654L104.123 10.1935C104.692 10.1108 105.185 9.75303 105.439 9.23691L108.431 3.17459C109.073 1.87527 110.927 1.87527 111.568 3.17459Z" fill="#83E1E5"/>
<path d="M70.1747 3.17454L73.1667 9.23686C73.4214 9.75298 73.9138 10.1107 74.4832 10.1934L81.1734 11.1654C82.6078 11.3739 83.1806 13.1366 82.1427 14.1481L77.3018 18.8671C76.8895 19.2689 76.7016 19.8479 76.7989 20.4151L77.9416 27.078C78.1866 28.5067 76.6871 29.5961 75.4041 28.9216L69.4201 25.7756C68.9105 25.5076 68.302 25.5076 67.7925 25.7756L61.8085 28.9216C60.5255 29.5961 59.0259 28.5067 59.271 27.078L60.4137 20.4151C60.5109 19.8479 60.3231 19.2689 59.9108 18.8671L55.0703 14.1486C54.0324 13.137 54.6053 11.3744 56.0397 11.1658L62.7299 10.1939C63.2997 10.1111 63.792 9.75342 64.0463 9.2373L67.0384 3.17498C67.6799 1.87522 69.5332 1.87522 70.1747 3.17454Z" fill="#83E1E5"/>
<path d="M128.729 194.531V179.906H155.179C159.086 179.906 162.233 176.646 162.047 172.697C161.872 168.999 158.687 166.154 154.984 166.154H140.761C139.107 166.154 137.767 164.813 137.767 163.159V161.443V147.608C137.767 140.97 132.386 135.589 125.748 135.589H94.2523C87.6144 135.589 82.2332 140.97 82.2332 147.608V161.444V163.16C82.2332 164.814 80.8926 166.155 79.2386 166.155H65.0156C61.3134 166.155 58.1274 169 57.9532 172.698C57.767 176.646 60.9135 179.906 64.8211 179.906H91.2708V194.531H128.729V194.531Z" fill="#FDDF7F"/>
<path d="M137.767 147.608C137.767 140.97 132.385 135.589 125.748 135.589H94.2524C87.6145 135.589 82.2333 140.97 82.2333 147.608V156.659H91.2709V194.531H128.729V156.659H137.767V147.608Z" fill="#ECF4F7"/>
<path d="M118.684 156.057C117.447 153.068 113.57 152.296 111.283 154.583L110 155.867L108.717 154.583C106.43 152.296 102.552 153.068 101.316 156.057C100.668 157.623 100.946 159.419 102.038 160.715L110 170.17L117.962 160.715C119.053 159.419 119.332 157.623 118.684 156.057Z" fill="#83E1E5"/>
<path d="M110 135.589C128.556 135.589 143.599 120.546 143.599 101.99C143.599 83.4334 128.556 68.3905 110 68.3905C91.4435 68.3905 76.4006 83.4334 76.4006 101.99C76.4006 120.546 91.4435 135.589 110 135.589Z" fill="#FDDF7F"/>
<path d="M147.836 217.8H72.1645C66.1695 217.8 61.3093 212.94 61.3093 206.945V205.386C61.3093 199.391 66.1695 194.531 72.1645 194.531H147.836C153.831 194.531 158.691 199.391 158.691 205.386V206.945C158.691 212.94 153.831 217.8 147.836 217.8Z" fill="#AAB1BA"/>
<path d="M123.981 194.531H96.0194V217.8H123.981V194.531Z" fill="#FDDF7F"/>
<path d="M48.5021 101.99C48.5021 100.775 49.4868 99.7898 50.7021 99.7898H53.3311V97.1608C53.3311 95.9455 54.3158 94.9608 55.5311 94.9608C56.7464 94.9608 57.7311 95.9455 57.7311 97.1608V99.7898H60.3601C61.5754 99.7898 62.5601 100.775 62.5601 101.99C62.5601 103.205 61.5754 104.19 60.3601 104.19H57.7311V106.819C57.7311 108.034 56.7464 109.019 55.5311 109.019C54.3158 109.019 53.3311 108.034 53.3311 106.819V104.19H50.7021C49.4873 104.19 48.5021 103.205 48.5021 101.99ZM166.669 97.1608C166.669 95.9455 165.684 94.9608 164.469 94.9608C163.254 94.9608 162.269 95.9455 162.269 97.1608V99.7898H159.64C158.425 99.7898 157.44 100.775 157.44 101.99C157.44 103.205 158.425 104.19 159.64 104.19H162.269V106.819C162.269 108.034 163.254 109.019 164.469 109.019C165.684 109.019 166.669 108.034 166.669 106.819V104.19H169.298C170.513 104.19 171.498 103.205 171.498 101.99C171.498 100.775 170.513 99.7898 169.298 99.7898H166.669V97.1608ZM102.207 71.4991C102.376 71.4991 102.547 71.4798 102.718 71.4388C103.033 71.3636 103.351 71.2936 103.67 71.2281C104.86 70.9843 105.627 69.8218 105.384 68.6316C105.141 67.4414 103.978 66.6736 102.788 66.9174C102.423 66.9922 102.06 67.0727 101.7 67.1581C100.518 67.4397 99.7876 68.6255 100.069 69.8073C100.309 70.8189 101.211 71.4991 102.207 71.4991ZM23.7459 215.6H20.7715C19.5563 215.6 18.5715 216.585 18.5715 217.8C18.5715 219.015 19.5563 220 20.7715 220H23.7459C24.9612 220 25.9459 219.015 25.9459 217.8C25.9459 216.585 24.9608 215.6 23.7459 215.6ZM191.019 217.8C191.019 219.015 190.034 220 188.819 220H149.409C149.251 220 149.096 219.982 148.947 219.949C148.581 219.981 148.21 220 147.836 220H72.1649C71.79 220 71.4204 219.981 71.0534 219.949C70.9043 219.982 70.7498 220 70.591 220H31.1815C29.9662 220 28.9815 219.015 28.9815 217.8C28.9815 216.585 29.9662 215.6 31.1815 215.6H62.4021C60.3557 213.294 59.1092 210.263 59.1092 206.945V205.386C59.1092 198.188 64.966 192.331 72.1649 192.331H147.836C155.034 192.331 160.891 198.188 160.891 205.386V206.945C160.891 210.263 159.645 213.294 157.598 215.6H188.819C190.034 215.6 191.019 216.585 191.019 217.8ZM98.2199 200.838V203.966H121.781V196.731H72.1649C67.3922 196.731 63.5092 200.614 63.5092 205.386V206.945C63.5092 211.717 67.3922 215.6 72.1649 215.6H93.8199V200.838C93.8199 199.622 94.8046 198.638 96.0199 198.638C97.2352 198.638 98.2199 199.623 98.2199 200.838ZM156.491 205.386C156.491 200.614 152.608 196.731 147.835 196.731H126.18V211.321C126.18 212.537 125.195 213.521 123.98 213.521C122.765 213.521 121.78 212.537 121.78 211.321V208.366H98.2195V215.6H147.835C152.608 215.6 156.491 211.717 156.491 206.945V205.386ZM199.228 215.6H196.254C195.039 215.6 194.054 216.585 194.054 217.8C194.054 219.015 195.039 220 196.254 220H199.228C200.444 220 201.428 219.015 201.428 217.8C201.428 216.585 200.444 215.6 199.228 215.6ZM121.06 67.9474C135.402 72.6185 145.799 86.1098 145.799 101.99C145.799 115.554 138.216 127.38 127.066 133.452C134.29 134.12 139.967 140.213 139.967 147.608V163.159C139.967 163.598 140.323 163.955 140.761 163.955L154.984 163.954C159.948 163.954 164.016 167.75 164.244 172.594C164.362 175.102 163.475 177.482 161.746 179.295C160.016 181.108 157.684 182.107 155.178 182.107H130.929V187.835C130.929 189.05 129.944 190.035 128.729 190.035C127.513 190.035 126.529 189.05 126.529 187.835V150.137C126.529 148.922 127.513 147.937 128.729 147.937C129.944 147.937 130.929 148.922 130.929 150.137V154.459H135.567V147.608C135.567 142.194 131.162 137.79 125.748 137.79H94.2524C88.8378 137.79 84.4334 142.194 84.4334 147.608V154.459H89.0714V150.137C89.0714 148.922 90.0561 147.937 91.2714 147.937C92.4867 147.937 93.4714 148.922 93.4714 150.137V187.834C93.4714 189.05 92.4867 190.034 91.2714 190.034C90.0561 190.034 89.0714 189.05 89.0714 187.834V182.106H64.8217C62.3168 182.106 59.9843 181.108 58.2542 179.294C56.5251 177.482 55.6385 175.102 55.7564 172.594C55.9843 167.749 60.0517 163.954 65.0157 163.954L79.2387 163.954C79.677 163.954 80.0334 163.597 80.0334 163.159V147.607C80.0334 140.212 85.7094 134.119 92.9337 133.452C81.7841 127.38 74.2007 115.554 74.2007 101.989C74.2007 88.0708 82.3693 75.306 95.0114 69.4703C96.1149 68.963 97.4217 69.443 97.9313 70.5456C98.4403 71.6487 97.959 72.956 96.8559 73.4655C85.7666 78.5844 78.6012 89.7811 78.6012 101.989C78.6012 119.303 92.6869 133.389 110 133.389C127.314 133.389 141.4 119.303 141.4 101.989C141.4 84.6771 127.316 70.5927 110.004 70.5905C110.002 70.5905 110 70.591 109.998 70.591C109.86 70.591 109.723 70.5747 109.59 70.5492C109.545 70.5408 109.504 70.5267 109.461 70.5162C109.374 70.4942 109.29 70.4695 109.208 70.4378C109.158 70.4185 109.11 70.3965 109.062 70.3736C108.989 70.3388 108.919 70.3006 108.85 70.2588C108.805 70.231 108.761 70.2038 108.719 70.1734C108.649 70.1232 108.585 70.0678 108.521 70.0097C108.487 69.9794 108.453 69.9508 108.421 69.9186C108.348 69.843 108.282 69.7607 108.22 69.6749C108.204 69.6533 108.185 69.6344 108.17 69.612C108.097 69.502 108.033 69.3849 107.98 69.2608C107.964 69.2243 107.955 69.1843 107.941 69.1464C107.913 69.0694 107.882 68.9942 107.862 68.9128C107.859 68.9005 107.86 68.8886 107.857 68.8763C107.841 68.8032 107.835 68.7271 107.826 68.6519C107.817 68.5771 107.805 68.5027 107.804 68.4284C107.804 68.4156 107.8 68.4037 107.8 68.3914C107.8 68.3382 107.811 68.2889 107.815 68.2365C107.821 68.1547 107.825 68.0728 107.84 67.9932C107.852 67.9237 107.874 67.8577 107.893 67.7904C107.913 67.7213 107.93 67.6522 107.957 67.5853C107.984 67.5162 108.019 67.4524 108.053 67.3869C108.084 67.3266 108.113 67.2659 108.15 67.2087C108.189 67.148 108.234 67.0934 108.278 67.0366C108.321 66.9816 108.363 66.9258 108.412 66.8747C108.46 66.8246 108.512 66.781 108.565 66.7357C108.619 66.6882 108.672 66.6402 108.732 66.598C108.791 66.5562 108.855 66.5218 108.919 66.4862C108.978 66.4519 109.036 66.4162 109.1 66.3876C109.175 66.3538 109.254 66.3304 109.333 66.3049C109.383 66.2891 109.427 66.2662 109.478 66.2539L119.815 63.7318C121.826 63.2412 123.231 61.4522 123.231 59.382C123.231 57.2977 121.535 55.6015 119.451 55.6015C117.367 55.6015 115.671 57.2972 115.671 59.382V60.21C115.671 61.4253 114.686 62.41 113.471 62.41C112.255 62.41 111.271 61.4253 111.271 60.21V59.382C111.271 54.8711 114.94 51.2015 119.451 51.2015C123.962 51.2015 127.631 54.8711 127.631 59.382C127.631 63.4159 124.938 66.9051 121.06 67.9474ZM84.4334 158.859V163.159C84.4334 166.024 82.1031 168.355 79.2387 168.355L65.0157 168.354C62.4488 168.354 60.2668 170.349 60.1511 172.801C60.0899 174.096 60.5471 175.323 61.4377 176.257C62.3291 177.191 63.5307 177.706 64.8213 177.706H89.071V158.858H84.4334V158.859ZM135.567 163.159V158.859H130.929V177.706H155.178C156.469 177.706 157.67 177.192 158.562 176.257C159.452 175.324 159.91 174.097 159.848 172.802C159.733 170.35 157.551 168.355 154.984 168.355L140.761 168.355C137.897 168.355 135.567 166.024 135.567 163.159ZM120.717 155.216C121.682 157.55 121.272 160.2 119.644 162.132L111.682 171.587C111.264 172.083 110.648 172.37 110 172.37C109.351 172.37 108.735 172.083 108.317 171.587L100.355 162.132C98.7277 160.2 98.3167 157.55 99.2825 155.216C100.145 153.132 101.981 151.625 104.193 151.184C106.281 150.768 108.424 151.36 109.999 152.77C111.574 151.36 113.719 150.769 115.805 151.184C118.019 151.625 119.854 153.131 120.717 155.216ZM116.651 156.899C116.347 156.164 115.726 155.655 114.947 155.5C114.169 155.345 113.4 155.577 112.839 156.139L111.555 157.422C110.697 158.281 109.303 158.281 108.445 157.422L107.162 156.139C106.714 155.691 106.135 155.452 105.523 155.452C105.368 155.452 105.21 155.468 105.053 155.499C104.273 155.654 103.653 156.164 103.349 156.898C103.014 157.708 103.156 158.627 103.721 159.297L110 166.754L116.279 159.298C116.844 158.627 116.986 157.708 116.651 156.899ZM136.321 15.7238C135.237 14.667 134.854 13.1155 135.322 11.6758C135.79 10.2362 137.012 9.20656 138.51 8.98876L144.965 8.05112L147.852 2.20132C148.522 0.84348 149.879 0 151.393 0C152.907 0 154.264 0.84348 154.934 2.20132L157.821 8.05112L164.277 8.98876C165.775 9.20656 166.996 10.2362 167.464 11.6758C167.932 13.1155 167.549 14.667 166.466 15.7238L161.794 20.2774L162.896 26.7067C163.153 28.1983 162.551 29.6784 161.326 30.5681C160.101 31.4582 158.508 31.5731 157.167 30.8691L151.393 27.834L145.62 30.8691C145.037 31.1753 144.406 31.3267 143.778 31.3271C142.963 31.3271 142.153 31.0715 141.46 30.5681C140.236 29.6784 139.634 28.1978 139.891 26.7058L140.993 20.2774L136.321 15.7238ZM140.048 13.2114L144.234 17.292C145.165 18.1997 145.59 19.5065 145.369 20.7878L144.382 26.5487L149.556 23.8282C150.132 23.5255 150.762 23.3746 151.393 23.3746C152.025 23.3746 152.656 23.5259 153.231 23.8282L158.406 26.5487L157.418 20.7865C157.197 19.5065 157.622 18.1997 158.553 17.292L162.74 13.2114L156.955 12.371C155.668 12.1836 154.557 11.3762 153.982 10.2111L151.394 4.96848L148.807 10.2106C148.231 11.3762 147.12 12.1836 145.834 12.371L140.048 13.2114ZM94.9283 15.7238C93.8441 14.6674 93.4609 13.116 93.929 11.6758C94.3967 10.2362 95.6186 9.20656 97.1168 8.98876L103.572 8.05112L106.459 2.20132C107.129 0.84348 108.486 0 110 0C111.514 0 112.871 0.84348 113.541 2.20132L116.428 8.05112L122.884 8.98876C124.382 9.20656 125.604 10.2362 126.071 11.6758C126.539 13.116 126.156 14.6674 125.072 15.7238L120.401 20.2774L121.504 26.7062C121.76 28.1992 121.158 29.6789 119.933 30.5686C118.708 31.4582 117.115 31.5731 115.775 30.8691L110 27.834L104.226 30.8691C103.643 31.1753 103.012 31.3271 102.384 31.3271C101.569 31.3271 100.76 31.0715 100.067 30.5686C98.8425 29.6789 98.2406 28.1987 98.4967 26.7067L99.5993 20.2774L94.9283 15.7238ZM98.6542 13.2114L102.841 17.292C103.771 18.1993 104.196 19.5052 103.977 20.786L102.988 26.5487L108.163 23.8282C108.739 23.5259 109.369 23.375 110 23.375C110.632 23.375 111.262 23.5259 111.837 23.8278L117.013 26.5487L116.024 20.7869C115.805 19.5052 116.23 18.1988 117.16 17.292L121.347 13.2114L115.562 12.371C114.274 12.1836 113.163 11.3753 112.588 10.2098L110 4.96804L107.412 10.2106C106.838 11.3753 105.727 12.1836 104.44 12.371L98.6542 13.2114ZM53.5348 15.7238C52.4507 14.667 52.0679 13.1155 52.5356 11.6758C53.0037 10.2362 54.2252 9.20656 55.7234 8.98876L62.1786 8.05112L65.0659 2.20132C65.7356 0.84348 67.0925 0 68.6066 0C70.1206 0 71.4776 0.84348 72.1477 2.20132L75.035 8.05112L81.4902 8.98876C82.9884 9.20656 84.2099 10.2362 84.678 11.6758C85.1457 13.1155 84.7629 14.667 83.6792 15.7238L79.0077 20.2774L80.1099 26.7067C80.3664 28.1983 79.7645 29.6784 78.54 30.5681C77.315 31.4582 75.7209 31.5731 74.3807 30.8691L68.607 27.834L62.8333 30.8691C62.2508 31.1753 61.6194 31.3267 60.9919 31.3271C60.1762 31.3271 59.3666 31.0715 58.674 30.5681C57.4495 29.6784 56.8476 28.1978 57.1041 26.7058L58.2063 20.2774L53.5348 15.7238ZM57.2612 13.2114L61.4478 17.292C62.3788 18.1997 62.8034 19.5065 62.583 20.7878L61.5952 26.5487L66.77 23.8282C67.3451 23.5255 67.9761 23.3746 68.607 23.3746C69.2384 23.3746 69.8694 23.5259 70.4449 23.8282L75.6193 26.5487L74.6315 20.7865C74.4111 19.5065 74.8357 18.1997 75.7667 17.292L79.9533 13.2114L74.1682 12.371C72.8816 12.1836 71.7706 11.3762 71.1951 10.2111L68.6079 4.96848L66.0203 10.2106C65.4447 11.3762 64.3337 12.1836 63.0481 12.371L57.2612 13.2114Z" fill="#1C1D21"/>
</svg>
