<svg width="220" height="220" viewBox="0 0 220 220" fill="none" xmlns="http://www.w3.org/2000/svg">
<g clip-path="url(#clip0_101_396)">
<path d="M87.4322 46.3641C79.9206 39.9313 70.6044 35.944 60.8171 34.9157C54.8634 43.1464 51.5929 53.1075 51.5626 63.3309C59.6735 64.8877 67.579 67.7802 74.9208 72.0205C77.4403 62.6133 81.7408 53.9365 87.4322 46.3641Z" fill="#FDDF7F"/>
<path d="M168.437 63.3309C168.407 53.1075 165.137 43.1464 159.183 34.9157C149.396 35.944 140.08 39.9313 132.568 46.3641C138.259 53.9365 142.56 62.6133 145.079 72.0205C152.421 67.7807 160.326 64.8877 168.437 63.3309Z" fill="#FDDF7F"/>
<path d="M217.8 153.139C210.268 145.257 198.117 139.201 183.59 136.321C183.296 136.625 183.009 136.933 182.709 137.233C163.009 156.933 135.112 163.411 110 156.71C84.8883 163.411 56.991 156.933 37.2909 137.233C36.9908 136.933 36.7035 136.626 36.41 136.322C21.8825 139.201 9.73193 145.257 2.20001 153.139C10.2723 161.586 23.6469 167.941 39.5697 170.531C39.5701 170.53 39.5705 170.53 39.571 170.529C31.3219 179.183 29.2785 189.411 33.4365 198.847C49.357 201.42 66.6424 200.072 81.1246 194.801C85.2949 204.605 95.8743 212.849 110 217.8C124.126 212.849 134.705 204.605 138.875 194.801C153.358 200.072 170.643 201.42 186.564 198.847C190.722 189.411 188.678 179.184 180.43 170.531C196.353 167.941 209.728 161.586 217.8 153.139Z" fill="#83E1E5"/>
<path d="M202.186 64.5238C183.156 59.4453 162.529 61.9432 145.079 72.0205C139.867 52.5558 127.047 36.2045 110 26.3388C92.9526 36.204 80.1337 52.5558 74.9205 72.0205C57.4706 61.9427 36.8443 59.4453 17.8138 64.5238C11.1126 89.6354 17.5907 117.533 37.2909 137.233C56.991 156.933 84.8883 163.412 110 156.71C135.112 163.411 163.009 156.933 182.709 137.233C202.409 117.533 208.887 89.6354 202.186 64.5238Z" fill="#ECF4F7"/>
<path d="M102.971 7.029C102.971 5.81416 103.956 4.829 105.171 4.829H107.8V2.2C107.8 0.98516 108.785 0 110 0C111.215 0 112.2 0.98516 112.2 2.2V4.829H114.829C116.044 4.829 117.029 5.81416 117.029 7.029C117.029 8.24384 116.044 9.229 114.829 9.229H112.2V11.858C112.2 13.0728 111.215 14.058 110 14.058C108.785 14.058 107.8 13.0728 107.8 11.858V9.229H105.171C103.956 9.229 102.971 8.24384 102.971 7.029ZM180.429 44.44H183.058V47.069C183.058 48.2838 184.043 49.269 185.258 49.269C186.474 49.269 187.458 48.2838 187.458 47.069V44.44H190.087C191.303 44.44 192.287 43.4548 192.287 42.24C192.287 41.0252 191.303 40.04 190.087 40.04H187.458V37.411C187.458 36.1962 186.474 35.211 185.258 35.211C184.043 35.211 183.058 36.1962 183.058 37.411V40.04H180.429C179.214 40.04 178.229 41.0252 178.229 42.24C178.229 43.4548 179.215 44.44 180.429 44.44ZM29.9124 44.44H32.5414V47.069C32.5414 48.2838 33.5261 49.269 34.7414 49.269C35.9567 49.269 36.9414 48.2838 36.9414 47.069V44.44H39.5704C40.7857 44.44 41.7704 43.4548 41.7704 42.24C41.7704 41.0252 40.7857 40.04 39.5704 40.04H36.9414V37.411C36.9414 36.1962 35.9567 35.211 34.7414 35.211C33.5261 35.211 32.5414 36.1962 32.5414 37.411V40.04H29.9124C28.6971 40.04 27.7124 41.0252 27.7124 42.24C27.7124 43.4548 28.6976 44.44 29.9124 44.44ZM219.391 151.619C213.699 145.663 205.524 140.721 195.751 137.328C194.602 136.93 193.35 137.538 192.951 138.685C192.553 139.833 193.16 141.086 194.308 141.485C202.564 144.351 209.553 148.358 214.67 153.139C206.94 160.353 194.926 165.758 181.194 168.169C180.381 167.364 179.52 166.575 178.622 165.814L178.569 165.77C178.181 165.442 177.784 165.116 177.378 164.795L177.215 164.67C176.841 164.376 176.461 164.083 176.07 163.794C175.999 163.741 175.926 163.689 175.852 163.637L175.724 163.545C175.387 163.299 175.049 163.055 174.699 162.812C174.554 162.712 174.404 162.613 174.256 162.514L173.837 162.233C173.646 162.104 173.455 161.975 173.26 161.848C172.768 161.529 172.265 161.214 171.751 160.903C170.712 160.274 169.359 160.606 168.729 161.645C168.1 162.684 168.432 164.037 169.472 164.666C169.947 164.954 170.412 165.246 170.869 165.542C171.04 165.653 171.206 165.765 171.372 165.877L171.823 166.18C171.948 166.263 172.073 166.346 172.195 166.43C172.516 166.651 172.825 166.877 173.133 167.101L173.453 167.33C173.809 167.594 174.156 167.86 174.497 168.129L174.647 168.244C175.017 168.537 175.378 168.833 175.717 169.119L175.779 169.171C176.87 170.095 177.899 171.063 178.838 172.048C186.079 179.644 188.243 188.413 185.003 196.862C170.392 199.027 154.818 197.787 141.716 193.45C143.224 188.703 143.344 183.473 142.021 178.481C140.831 173.987 138.489 169.824 135.249 166.441C134.409 165.563 133.017 165.533 132.139 166.374C131.262 167.214 131.231 168.607 132.072 169.484C134.798 172.331 136.768 175.831 137.768 179.608C139.05 184.447 138.724 189.537 136.851 193.939C133.069 202.829 123.305 210.646 110.001 215.464C104.951 213.636 100.392 211.379 96.4391 208.748C91.3782 205.379 87.5023 201.544 84.9199 197.35C81.59 191.941 80.6035 185.788 82.1431 180.024C83.1555 176.233 85.2165 172.544 88.1042 169.357C88.9199 168.457 88.8513 167.065 87.9511 166.249C87.0495 165.433 85.6587 165.502 84.8433 166.403C81.4875 170.107 79.0837 174.424 77.8913 178.889C76.6109 183.684 76.772 188.685 78.301 193.445C65.1947 197.786 49.6134 199.027 34.9975 196.862C31.7573 188.412 33.9221 179.643 41.1637 172.047C42.1 171.065 43.1283 170.097 44.2181 169.173C44.2283 169.165 44.263 169.137 44.2727 169.128C44.6247 168.831 44.9842 168.536 45.3542 168.243L45.5025 168.129C45.8439 167.86 46.1907 167.594 46.5471 167.33L46.8647 167.102C47.1745 166.877 47.4843 166.652 47.8041 166.43C47.926 166.346 48.0519 166.263 48.1773 166.18L48.6283 165.877C48.7941 165.765 48.9596 165.653 49.1321 165.541C49.5875 165.246 50.0525 164.955 50.5277 164.666C51.567 164.037 51.8992 162.684 51.2705 161.645C50.6408 160.606 49.2887 160.274 48.249 160.903C47.7351 161.214 47.2321 161.529 46.7411 161.847C46.5449 161.975 46.3539 162.103 46.1629 162.232L45.7445 162.513C45.5958 162.612 45.4466 162.711 45.3005 162.812C44.9516 163.054 44.6133 163.299 44.2745 163.546L44.1482 163.636C44.0747 163.688 44.0017 163.741 43.9308 163.793C43.5397 164.082 43.1595 164.375 42.7851 164.669L42.6231 164.794C42.217 165.115 41.8215 165.44 41.4404 165.762C41.4294 165.771 41.3876 165.806 41.3766 165.815C40.4781 166.577 39.6175 167.365 38.8066 168.169C25.0742 165.758 13.0604 160.353 5.33006 153.138C10.4728 148.332 17.5009 144.31 25.8028 141.44C26.9508 141.043 27.5602 139.79 27.1633 138.642C26.7669 137.495 25.5155 136.884 24.3653 137.282C14.5432 140.677 6.32886 145.635 0.610181 151.619C-0.202499 152.47 -0.202499 153.809 0.610181 154.659C8.51742 162.933 20.7776 169.02 35.4124 172.003C28.8217 180.547 27.3437 190.473 31.4247 199.734C31.7252 200.416 32.3505 200.9 33.0866 201.019C38.4119 201.879 43.8745 202.303 49.323 202.303C59.9899 202.303 70.5988 200.678 79.9888 197.528C80.3527 198.247 80.7434 198.958 81.1737 199.657C84.0918 204.397 88.4073 208.688 94.0015 212.411C98.449 215.372 103.587 217.883 109.274 219.875C109.509 219.958 109.755 219.999 110.001 219.999C110.247 219.999 110.493 219.958 110.729 219.875C124.654 214.995 135.194 206.924 140.022 197.531C149.41 200.679 160.014 202.302 170.679 202.302C176.127 202.302 181.591 201.879 186.915 201.018C187.651 200.899 188.277 200.416 188.577 199.734C192.658 190.472 191.179 180.544 184.587 171.999C199.066 169.022 211.606 162.805 219.391 154.659C220.203 153.809 220.203 152.469 219.391 151.619ZM70.9433 102.585C71.1004 103.682 72.0415 104.473 73.1182 104.473C73.2216 104.473 73.3272 104.465 73.4333 104.45C74.6358 104.278 75.4713 103.163 75.2984 101.96C75.2179 101.399 75.144 100.836 75.0767 100.27C74.9328 99.0642 73.8416 98.2027 72.6311 98.3466C71.4247 98.4909 70.5636 99.5856 70.7075 100.792C70.7796 101.392 70.8579 101.989 70.9433 102.585ZM15.5213 103.457C12.1853 90.5256 12.2429 76.8662 15.6881 63.9562C15.8914 63.1954 16.4858 62.6006 17.2466 62.3977C27.778 59.5874 38.7885 59.0788 49.4445 60.7596C49.976 51.058 53.3305 41.5105 59.0338 33.6266C59.4949 32.9886 60.2623 32.6449 61.0459 32.7281C70.6014 33.7322 79.5506 37.3564 87.0737 43.237C93.1008 35.6959 100.504 29.2921 108.898 24.435C109.579 24.0407 110.42 24.0407 111.101 24.435C119.495 29.2921 126.898 35.6959 132.925 43.237C140.449 37.3564 149.398 33.7322 158.953 32.7281C159.735 32.6449 160.504 32.9886 160.965 33.6266C166.668 41.5105 170.023 51.058 170.554 60.7596C181.21 59.0788 192.221 59.5874 202.752 62.3982C203.513 62.601 204.108 63.1959 204.311 63.9566C207.756 76.8667 207.814 90.526 204.478 103.458C201.039 116.786 194.049 129.004 184.264 138.789C174.479 148.574 162.261 155.564 148.933 159.002C142.574 160.643 136.039 161.463 129.505 161.463C122.943 161.463 116.384 160.629 109.999 158.977C103.616 160.629 97.0551 161.463 90.4943 161.463C83.9585 161.463 77.4254 160.643 71.0661 159.002C57.7376 155.564 45.5201 148.574 35.7349 138.789C25.9498 129.004 18.9599 116.786 15.5213 103.457ZM147.621 73.117C149.084 79.112 149.841 85.2914 149.841 91.5244C149.841 105.363 146.145 118.944 139.151 130.801C133.281 140.753 125.226 149.29 115.672 155.746C139.332 160.268 164.013 152.817 181.154 135.678C199.229 117.602 206.534 91.1376 200.379 66.3304C182.643 61.9348 163.58 64.3914 147.621 73.117ZM135.574 46.75C136.839 48.5307 138.038 50.3611 139.151 52.2478C142.227 57.4618 144.663 63.0102 146.43 68.7667C152.667 65.4676 159.332 63.0612 166.198 61.5771C165.835 52.9404 163.012 44.4092 158.138 37.2552C149.862 38.3526 142.124 41.6139 135.574 46.75ZM53.8027 61.5776C60.6684 63.0617 67.3331 65.468 73.5705 68.7672C75.3371 63.0106 77.7734 57.4622 80.849 52.2482C81.9618 50.3615 83.1608 48.5311 84.4258 46.7504C77.8755 41.6143 70.1381 38.3526 61.8621 37.2557C56.9887 44.4096 54.1648 52.9408 53.8027 61.5776ZM38.8462 135.678C55.9873 152.818 80.6682 160.269 104.329 155.746C88.2551 144.877 76.6739 128.238 72.2219 109.351C71.943 108.169 72.6756 106.984 73.8583 106.705C75.0437 106.426 76.2259 107.16 76.5045 108.342C80.9942 127.388 93.1703 144.016 110 154.155C131.893 140.965 145.441 117.087 145.441 91.5244C145.441 65.9622 131.893 42.0834 110 28.8939C88.1064 42.0834 74.5588 65.9622 74.5588 91.5244C74.5588 92.7392 73.5741 93.7244 72.3588 93.7244C71.1435 93.7244 70.1588 92.7392 70.1588 91.5244C70.1588 85.2909 70.9156 79.1116 72.379 73.117C56.4198 64.3914 37.3577 61.9348 19.6204 66.3304C13.4657 91.1376 20.771 117.602 38.8462 135.678Z" fill="#1C1D21"/>
</g>
<defs>
<clipPath id="clip0_101_396">
<rect width="220" height="220" fill="white"/>
</clipPath>
</defs>
</svg>
