<svg width="220" height="220" viewBox="0 0 220 220" fill="none" xmlns="http://www.w3.org/2000/svg">
<path d="M161.542 131.827H132.451V124.066C132.45 124.066 132.449 124.067 132.448 124.067C150.328 115.587 162.649 97.295 162.449 76.1451C162.176 47.2291 138.249 23.844 109.333 24.2039C80.6723 24.5608 57.5481 47.9054 57.5481 76.6515C57.5481 97.5867 69.8149 115.655 87.5517 124.067C87.5508 124.067 87.5495 124.066 87.5486 124.066V131.827H58.4576C47.0823 131.827 37.8612 141.048 37.8612 152.423V217.8H182.139V152.423C182.139 141.048 172.917 131.827 161.542 131.827Z" fill="#FDDF7F"/>
<path d="M110 89.2641C117.829 89.2641 124.177 78.2724 124.177 64.7134C124.177 51.1545 117.829 40.1627 110 40.1627C102.17 40.1627 95.823 51.1545 95.823 64.7134C95.823 78.2724 102.17 89.2641 110 89.2641Z" fill="#83E1E5"/>
<path d="M95.8231 64.7134C95.8231 62.1724 96.1601 59.7106 96.788 57.3676C90.2157 53.5721 82.4471 52.6314 75.2799 54.5441C72.7561 64.0019 75.1959 74.5091 82.6156 81.9284C90.0353 89.3477 100.542 91.7879 110 89.2641C101.528 84.3611 95.8231 75.2065 95.8231 64.7134Z" fill="#ECF4F7"/>
<path d="M144.72 54.5441C137.553 52.6314 129.784 53.5721 123.212 57.3676C123.839 59.7106 124.177 62.1719 124.177 64.7134C124.177 75.2065 118.473 84.3611 110 89.2641C119.458 91.7879 129.965 89.3481 137.384 81.9284C144.804 74.5087 147.244 64.0019 144.72 54.5441Z" fill="#ECF4F7"/>
<path d="M23.4667 139.665H20.8377C19.6224 139.665 18.6377 138.68 18.6377 137.465C18.6377 136.25 19.6224 135.265 20.8377 135.265H23.4667V132.636C23.4667 131.421 24.4514 130.436 25.6667 130.436C26.882 130.436 27.8667 131.421 27.8667 132.636V135.265H30.4957C31.711 135.265 32.6957 136.25 32.6957 137.465C32.6957 138.68 31.711 139.665 30.4957 139.665H27.8667V142.294C27.8667 143.509 26.882 144.494 25.6667 144.494C24.4514 144.494 23.4667 143.509 23.4667 142.294V139.665ZM105.171 9.229H107.8V11.858C107.8 13.0728 108.785 14.058 110 14.058C111.215 14.058 112.2 13.0728 112.2 11.858V9.229H114.829C116.044 9.229 117.029 8.24384 117.029 7.029C117.029 5.81416 116.044 4.829 114.829 4.829H112.2V2.2C112.2 0.98516 111.215 0 110 0C108.785 0 107.8 0.98516 107.8 2.2V4.829H105.171C103.956 4.829 102.971 5.81416 102.971 7.029C102.971 8.24384 103.956 9.229 105.171 9.229ZM199.163 135.265H196.534V132.636C196.534 131.421 195.549 130.436 194.334 130.436C193.118 130.436 192.134 131.421 192.134 132.636V135.265H189.505C188.289 135.265 187.305 136.25 187.305 137.465C187.305 138.68 188.289 139.665 189.505 139.665H192.134V142.294C192.134 143.509 193.118 144.494 194.334 144.494C195.549 144.494 196.534 143.509 196.534 142.294V139.665H199.163C200.378 139.665 201.363 138.68 201.363 137.465C201.363 136.25 200.378 135.265 199.163 135.265ZM66.5154 47.2322C66.9092 47.5235 67.3677 47.6639 67.8222 47.6639C68.4959 47.6639 69.1612 47.3554 69.5924 46.7724C69.7283 46.589 69.8656 46.4059 70.0042 46.2242C70.7403 45.2575 70.5529 43.8772 69.5862 43.1411C68.6186 42.4054 67.2388 42.592 66.5031 43.5596C66.3526 43.7571 66.203 43.9556 66.0552 44.1553C65.3323 45.1321 65.5386 46.5098 66.5154 47.2322ZM86.6094 126.055C93.8245 129.477 101.913 131.287 110 131.287C118.089 131.287 126.179 129.478 133.395 126.055C133.42 126.043 133.444 126.031 133.468 126.019C152.614 116.901 164.85 97.3267 164.65 76.1244C164.512 61.5586 158.664 47.8896 148.183 37.6358C137.861 27.5365 124.326 22 109.999 22C109.77 22 109.537 22.0013 109.307 22.0044C95.1079 22.1813 81.7205 27.775 71.6093 37.7546C70.7447 38.6082 70.7359 40.0008 71.5891 40.8659C72.4427 41.7309 73.8353 41.7393 74.7003 40.8861C83.9971 31.7095 96.3065 26.5663 109.361 26.4035C109.574 26.4009 109.785 26.3996 109.998 26.3996C123.166 26.3996 135.613 31.4921 145.106 40.7805C154.745 50.2106 160.123 62.7774 160.249 76.1653C160.433 95.6877 149.151 113.71 131.505 122.079C131.492 122.085 131.477 122.092 131.464 122.099C131.454 122.104 131.444 122.108 131.435 122.114C124.824 125.236 117.413 126.886 110 126.886C102.561 126.886 95.1242 125.224 88.4943 122.079C71.0316 113.797 59.7482 95.9653 59.7482 76.6511C59.7482 68.1806 61.8946 59.8079 65.9549 52.4379C66.5414 51.3735 66.1537 50.0355 65.0898 49.4494C64.0241 48.8629 62.6879 49.2505 62.1014 50.3144C57.6833 58.333 55.3478 67.4401 55.3478 76.6511C55.3478 87.1944 58.3569 97.4288 64.0497 106.248C69.5932 114.836 77.3944 121.685 86.6094 126.055ZM81.0605 83.4843C73.3772 75.801 70.3478 64.4943 73.1546 53.977C73.3579 53.2162 73.9523 52.6214 74.7131 52.4185C81.6224 50.5749 89.0544 51.2481 95.4969 54.2291C97.9301 47.6062 102.62 41.892 108.899 38.2589C109.58 37.8646 110.421 37.8646 111.102 38.2589C117.381 41.892 122.071 47.6067 124.504 54.2291C130.947 51.2481 138.379 50.5749 145.288 52.4185C146.049 52.6214 146.643 53.2162 146.846 53.977C149.653 64.4943 146.624 75.801 138.94 83.4843C133.153 89.272 125.307 92.4194 117.293 92.4194C114.86 92.4194 112.412 92.1254 110.001 91.5314C107.589 92.1254 105.141 92.4194 102.709 92.4194C94.693 92.4189 86.8487 89.2725 81.0605 83.4843ZM125.898 59.3718C125.92 59.495 125.944 59.6178 125.965 59.741C126.002 59.9672 126.036 60.1938 126.068 60.4212C126.107 60.6962 126.142 60.9721 126.174 61.2484C126.19 61.3923 126.21 61.5353 126.224 61.6792C126.267 62.1064 126.298 62.5359 126.323 62.9662C126.33 63.0912 126.336 63.2166 126.342 63.3415C126.362 63.7974 126.377 64.2541 126.377 64.713C126.377 65.219 126.36 65.7228 126.335 66.2253C126.33 66.3203 126.326 66.4149 126.321 66.5095C126.292 66.9935 126.252 67.4753 126.2 67.9549C126.19 68.046 126.179 68.1366 126.168 68.2273C126.112 68.71 126.047 69.1909 125.967 69.6683C125.965 69.6854 125.963 69.7022 125.959 69.7193C125.878 70.2068 125.781 70.6904 125.676 71.1718C125.655 71.2655 125.635 71.3596 125.614 71.4534C125.508 71.9198 125.391 72.3835 125.263 72.8433C125.24 72.9265 125.215 73.0092 125.191 73.0924C125.061 73.5469 124.922 73.9983 124.771 74.4454C124.761 74.4731 124.753 74.5012 124.743 74.529C124.585 74.9914 124.413 75.4486 124.234 75.9022C124.199 75.9906 124.165 76.0791 124.129 76.1671C123.949 76.6097 123.76 77.048 123.56 77.4809C123.527 77.5535 123.491 77.6257 123.457 77.6978C123.259 78.1194 123.052 78.5365 122.835 78.9483C122.816 78.9831 122.799 79.0183 122.78 79.053C122.552 79.4816 122.311 79.9036 122.062 80.3211C122.014 80.4025 121.966 80.4839 121.916 80.5649C121.668 80.9741 121.411 81.3784 121.143 81.7758C121.102 81.8365 121.059 81.8963 121.018 81.957C120.756 82.3394 120.487 82.7165 120.208 83.087C120.179 83.1257 120.151 83.1648 120.122 83.2036C119.829 83.5899 119.524 83.9674 119.212 84.3401C119.151 84.4131 119.09 84.4862 119.028 84.5588C118.715 84.9257 118.395 85.2861 118.064 85.6385C118.018 85.6874 117.971 85.7349 117.925 85.7837C117.605 86.1199 117.277 86.4494 116.942 86.772C116.901 86.8111 116.862 86.8512 116.821 86.8903C116.468 87.2256 116.105 87.5508 115.735 87.8698C115.698 87.9019 115.663 87.9362 115.626 87.9679C123.06 88.4435 130.473 85.73 135.829 80.3739C142.1 74.1026 144.748 65.0087 142.897 56.3693C137.12 55.1333 131.01 55.8985 125.743 58.5077C125.801 58.7937 125.847 59.0832 125.898 59.3718ZM98.0766 63.0546C98.0744 63.0898 98.0736 63.1246 98.0714 63.1598C98.0568 63.3978 98.0445 63.6363 98.037 63.8757C98.0282 64.1546 98.0234 64.434 98.0234 64.7134C98.0234 64.9977 98.0282 65.281 98.0375 65.5635C98.0406 65.6577 98.0467 65.7514 98.0511 65.8456C98.0595 66.0343 98.0674 66.2226 98.0797 66.4105C98.0872 66.5214 98.0978 66.6314 98.1061 66.7423C98.1198 66.9126 98.1325 67.0828 98.1488 67.2527C98.1602 67.3706 98.1752 67.4876 98.1884 67.6051C98.2064 67.767 98.2245 67.929 98.2456 68.09C98.2614 68.2106 98.2799 68.3302 98.2975 68.4504C98.3204 68.6074 98.3433 68.765 98.3688 68.9216C98.389 69.0435 98.4115 69.1649 98.433 69.2868C98.4607 69.4404 98.488 69.5935 98.518 69.7462C98.5422 69.8689 98.5686 69.9908 98.5945 70.1127C98.6266 70.2636 98.6592 70.415 98.694 70.565C98.7221 70.6869 98.752 70.8079 98.782 70.9293C98.8189 71.0785 98.8559 71.2276 98.8955 71.3764C98.9276 71.4969 98.961 71.617 98.9949 71.7367C99.0367 71.885 99.0789 72.0333 99.1234 72.1807C99.159 72.299 99.1956 72.4174 99.233 72.5353C99.2796 72.6827 99.3271 72.8297 99.376 72.9762C99.4151 73.0932 99.4552 73.2094 99.4961 73.3256C99.5471 73.4716 99.5999 73.6173 99.6536 73.7625C99.6963 73.8773 99.7394 73.9917 99.7834 74.1057C99.8397 74.2513 99.8974 74.3961 99.9563 74.5404C100.002 74.6522 100.048 74.7639 100.095 74.8748C100.157 75.0204 100.22 75.1648 100.284 75.3091C100.333 75.4178 100.38 75.526 100.43 75.6338C100.497 75.7786 100.566 75.9224 100.636 76.0663C100.687 76.1715 100.737 76.2771 100.79 76.3818C100.862 76.5266 100.937 76.6704 101.012 76.8139C101.066 76.9151 101.118 77.0167 101.172 77.1175C101.251 77.264 101.333 77.4088 101.415 77.5535C101.469 77.649 101.522 77.7449 101.577 77.84C101.664 77.99 101.754 78.1378 101.844 78.2861C101.898 78.3741 101.95 78.463 102.005 78.5501C102.102 78.7059 102.202 78.8594 102.302 79.013C102.353 79.0909 102.403 79.1696 102.455 79.2471C102.569 79.4169 102.686 79.585 102.803 79.7522C102.844 79.8112 102.884 79.8706 102.926 79.9291C103.079 80.1438 103.237 80.3568 103.397 80.5671C103.405 80.5768 103.412 80.5873 103.42 80.597C103.759 81.0418 104.114 81.4757 104.482 81.899C104.526 81.9496 104.572 81.9984 104.616 82.0486C104.756 82.2065 104.896 82.3636 105.039 82.518C105.101 82.5845 105.164 82.6487 105.227 82.7147C105.356 82.8507 105.484 82.9866 105.616 83.12C105.689 83.193 105.763 83.2638 105.836 83.336C105.961 83.4596 106.086 83.5833 106.214 83.7043C106.293 83.7795 106.374 83.853 106.455 83.9274C106.579 84.0426 106.704 84.1575 106.83 84.2706C106.915 84.3458 107.002 84.4197 107.087 84.4941C107.213 84.6028 107.339 84.7114 107.467 84.8184C107.556 84.8927 107.647 84.9658 107.737 85.0392C107.864 85.1426 107.992 85.2452 108.121 85.3464C108.215 85.4198 108.31 85.4916 108.405 85.5637C108.534 85.6614 108.663 85.7586 108.795 85.8546C108.893 85.9263 108.992 85.9967 109.091 86.0671C109.222 86.1599 109.353 86.2514 109.486 86.3421C109.588 86.4116 109.691 86.4798 109.793 86.548C109.862 86.5933 109.931 86.6373 110 86.6818C110.069 86.6373 110.138 86.5933 110.207 86.548C110.31 86.4798 110.412 86.4116 110.514 86.3421C110.647 86.2519 110.779 86.1599 110.909 86.0671C111.009 85.9967 111.108 85.9263 111.206 85.8546C111.337 85.7591 111.466 85.6618 111.595 85.5637C111.69 85.4916 111.785 85.4198 111.879 85.3464C112.008 85.2456 112.136 85.1426 112.263 85.0392C112.354 84.9658 112.444 84.8927 112.534 84.8184C112.662 84.7119 112.788 84.6032 112.913 84.4941C112.999 84.4197 113.085 84.3458 113.17 84.2706C113.297 84.1575 113.421 84.0426 113.546 83.9274C113.626 83.853 113.707 83.7795 113.787 83.7043C113.914 83.5833 114.04 83.4596 114.165 83.336C114.238 83.2638 114.312 83.193 114.384 83.12C114.516 82.9866 114.645 82.8507 114.774 82.7147C114.836 82.6492 114.9 82.5845 114.961 82.518C115.105 82.3636 115.245 82.2061 115.384 82.0486C115.428 81.9984 115.474 81.9496 115.518 81.899C115.887 81.4761 116.241 81.0418 116.581 80.597C116.588 80.5873 116.595 80.5768 116.603 80.5671C116.763 80.3568 116.921 80.1442 117.075 79.9291C117.116 79.8706 117.156 79.8107 117.197 79.7522C117.315 79.585 117.432 79.4169 117.546 79.2471C117.598 79.1696 117.647 79.0909 117.698 79.013C117.798 78.8594 117.899 78.7059 117.996 78.5501C118.05 78.4626 118.103 78.3741 118.156 78.2861C118.247 78.1378 118.336 77.99 118.424 77.84C118.479 77.7449 118.532 77.649 118.585 77.5535C118.667 77.4088 118.749 77.2636 118.828 77.1175C118.883 77.0167 118.935 76.9151 118.988 76.8139C119.063 76.6704 119.138 76.5266 119.211 76.3818C119.263 76.2771 119.314 76.1715 119.365 76.0663C119.434 75.9229 119.503 75.779 119.57 75.6338C119.62 75.526 119.668 75.4173 119.717 75.3091C119.781 75.1648 119.844 75.0204 119.906 74.8748C119.953 74.7635 119.999 74.6522 120.044 74.5404C120.103 74.3961 120.161 74.2513 120.217 74.1057C120.261 73.9917 120.304 73.8773 120.347 73.7625C120.401 73.6173 120.453 73.4716 120.504 73.3256C120.545 73.2094 120.585 73.0928 120.624 72.9762C120.673 72.8297 120.721 72.6827 120.767 72.5353C120.804 72.4174 120.841 72.2995 120.877 72.1807C120.921 72.0333 120.964 71.885 121.005 71.7367C121.039 71.6166 121.073 71.4969 121.105 71.3764C121.144 71.2281 121.181 71.0789 121.218 70.9293C121.248 70.8079 121.278 70.6869 121.307 70.565C121.342 70.4145 121.374 70.2636 121.406 70.1127C121.432 69.9908 121.459 69.8685 121.483 69.7462C121.513 69.5935 121.541 69.4399 121.568 69.2868C121.589 69.1654 121.612 69.0439 121.632 68.9216C121.658 68.765 121.68 68.6074 121.703 68.4504C121.721 68.3302 121.739 68.2106 121.755 68.09C121.776 67.929 121.794 67.767 121.812 67.6051C121.825 67.4876 121.84 67.3706 121.852 67.2527C121.868 67.0828 121.881 66.9126 121.894 66.7423C121.903 66.6318 121.914 66.5214 121.921 66.4105C121.933 66.2226 121.941 66.0339 121.949 65.8456C121.954 65.7514 121.96 65.6577 121.963 65.5635C121.972 65.2806 121.977 64.9972 121.977 64.7134C121.977 64.434 121.972 64.1546 121.963 63.8757C121.955 63.6363 121.944 63.3978 121.929 63.1598C121.927 63.1246 121.926 63.0898 121.924 63.0546C121.395 54.8178 116.955 47.2406 110 42.7416C103.046 47.2402 98.6055 54.8174 98.0766 63.0546ZM84.1713 80.373C89.5274 85.7283 96.9388 88.4413 104.374 87.967C104.337 87.9353 104.302 87.901 104.265 87.8689C103.896 87.5499 103.533 87.2247 103.18 86.8894C103.139 86.8507 103.099 86.8102 103.058 86.7711C102.723 86.449 102.395 86.1194 102.076 85.7828C102.03 85.734 101.982 85.6865 101.936 85.6376C101.606 85.2852 101.285 84.9244 100.972 84.5579C100.91 84.4853 100.849 84.4122 100.788 84.3392C100.476 83.9665 100.171 83.5886 99.8776 83.2022C99.8485 83.1644 99.8212 83.1252 99.7926 83.0874C99.5137 82.7165 99.2439 82.3394 98.9821 81.9566C98.9408 81.8959 98.8981 81.8365 98.8572 81.7753C98.5897 81.378 98.3323 80.9736 98.0837 80.5644C98.0344 80.4835 97.986 80.4021 97.9376 80.3207C97.689 79.9031 97.4479 79.4816 97.2195 79.0526C97.201 79.0178 97.1839 78.9826 97.1654 78.9479C96.948 78.536 96.7412 78.1189 96.5428 77.6974C96.5085 77.6248 96.4733 77.5531 96.4398 77.4805C96.2396 77.0475 96.0509 76.6088 95.8709 76.1666C95.8353 76.0786 95.8005 75.9902 95.7653 75.9018C95.5858 75.4481 95.4137 74.991 95.2562 74.5285C95.247 74.5008 95.2386 74.4726 95.229 74.4449C95.0776 73.9979 94.939 73.5464 94.8083 73.0919C94.7846 73.0088 94.7595 72.9265 94.7366 72.8433C94.6086 72.3831 94.492 71.9193 94.3855 71.4525C94.3643 71.3596 94.3446 71.2659 94.3243 71.1726C94.2192 70.6908 94.1219 70.2068 94.0405 69.7193C94.0374 69.7022 94.0357 69.6854 94.0326 69.6683C93.9534 69.1909 93.8883 68.71 93.8319 68.2273C93.8214 68.1362 93.8095 68.0456 93.7998 67.9549C93.7484 67.4753 93.7083 66.9935 93.6793 66.5095C93.6736 66.4149 93.6696 66.3199 93.6652 66.2253C93.6401 65.7228 93.623 65.219 93.623 64.713C93.623 64.2541 93.637 63.7974 93.6581 63.3415C93.6639 63.2161 93.67 63.0912 93.6771 62.9662C93.7021 62.5359 93.7325 62.1064 93.7756 61.6792C93.7897 61.5353 93.81 61.3923 93.8262 61.2489C93.8584 60.9721 93.8931 60.6958 93.9323 60.4208C93.9644 60.1942 93.9978 59.9676 94.0348 59.7419C94.0559 59.6165 94.0801 59.492 94.1026 59.3666C94.1536 59.0797 94.1989 58.7919 94.2579 58.5068C88.9898 55.8967 82.8808 55.1329 77.1036 56.368C75.2516 65.0074 77.9 74.1013 84.1713 80.373ZM37.8613 212.839C39.0766 212.839 40.0613 211.854 40.0613 210.639V152.423C40.0613 142.28 48.3139 134.027 58.4581 134.027H85.3492V142.309C85.3492 143.524 86.3339 144.509 87.5492 144.509C88.7645 144.509 89.7492 143.524 89.7492 142.309V131.827C89.7492 130.612 88.7645 129.627 87.5492 129.627H58.4581C45.8882 129.627 35.6613 139.854 35.6613 152.423V210.639C35.6613 211.854 36.646 212.839 37.8613 212.839ZM132.451 129.627C131.236 129.627 130.251 130.612 130.251 131.827V142.308C130.251 143.523 131.236 144.508 132.451 144.508C133.666 144.508 134.651 143.523 134.651 142.308V134.027H161.542C171.686 134.027 179.939 142.279 179.939 152.423V210.639C179.939 211.854 180.924 212.839 182.139 212.839C183.354 212.839 184.339 211.854 184.339 210.639V152.423C184.339 139.854 174.113 129.627 161.542 129.627H132.451V129.627ZM64.8601 154.27V210.639C64.8601 211.854 65.8449 212.839 67.0601 212.839C68.2754 212.839 69.2602 211.854 69.2602 210.639V154.27C69.2602 153.055 68.2754 152.07 67.0601 152.07C65.8449 152.07 64.8601 153.055 64.8601 154.27ZM150.74 154.27V210.639C150.74 211.854 151.725 212.839 152.94 212.839C154.156 212.839 155.14 211.854 155.14 210.639V154.27C155.14 153.055 154.156 152.07 152.94 152.07C151.725 152.07 150.74 153.055 150.74 154.27ZM118.271 196.002L119.924 197.654C120.353 198.084 120.916 198.298 121.479 198.298C122.042 198.298 122.605 198.084 123.035 197.654C123.894 196.794 123.894 195.401 123.034 194.542L121.382 192.89C120.856 192.364 120.566 191.664 120.566 190.92V179.897C120.566 176.378 117.702 173.514 114.183 173.514C113.49 173.514 112.825 173.631 112.2 173.836V157.606C112.2 157.468 112.184 157.334 112.16 157.203C112.184 157.072 112.2 156.938 112.2 156.8V155.581C112.2 154.366 111.215 153.381 110 153.381C108.785 153.381 107.8 154.366 107.8 155.581V156.8C107.8 156.938 107.816 157.072 107.841 157.203C107.816 157.334 107.8 157.468 107.8 157.606V173.836C107.175 173.631 106.511 173.514 105.818 173.514C102.298 173.514 99.4345 176.378 99.4345 179.897V190.92C99.4345 191.664 99.1445 192.364 98.6187 192.89L96.9661 194.542C96.1068 195.401 96.1068 196.794 96.9656 197.653C97.825 198.513 99.2176 198.513 100.077 197.653L101.73 196.001C103.087 194.643 103.834 192.838 103.834 190.919V179.897C103.834 178.803 104.724 177.914 105.818 177.914C106.911 177.914 107.8 178.803 107.8 179.897V206.018C107.8 207.233 108.785 208.218 110 208.218C111.215 208.218 112.2 207.233 112.2 206.018V179.897C112.2 178.803 113.089 177.914 114.183 177.914C115.276 177.914 116.166 178.803 116.166 179.897V190.919C116.166 192.84 116.913 194.645 118.271 196.002ZM126.84 202.097C126.433 203.463 126.322 204.878 126.508 206.304C126.651 207.4 127.584 208.219 128.689 208.219H138.93C140.145 208.219 141.13 207.234 141.13 206.019C141.13 204.805 140.145 203.819 138.93 203.819H130.939C130.971 203.662 131.011 203.507 131.057 203.352L131.956 200.331C134.588 191.477 134.008 181.937 130.322 173.468L119.229 147.987C118 145.164 115.217 143.341 112.139 143.341H107.86C104.783 143.341 102 145.165 100.772 147.987L89.6788 173.468C85.9916 181.937 85.4117 191.477 88.0446 200.331L88.9431 203.352C88.9889 203.507 89.028 203.662 89.061 203.819H81.0702C79.8549 203.819 78.8702 204.805 78.8702 206.019C78.8702 207.234 79.8549 208.219 81.0702 208.219H91.3108C92.416 208.219 93.3493 207.4 93.4923 206.304C93.6784 204.878 93.5666 203.462 93.1601 202.097L92.262 199.077C89.9243 191.215 90.4391 182.744 93.7127 175.224L104.806 149.743C105.335 148.527 106.534 147.741 107.86 147.741H112.139C113.466 147.741 114.665 148.527 115.195 149.743L126.287 175.224C129.56 182.744 130.076 191.215 127.738 199.076L126.84 202.097ZM196.303 215.6H23.6973C22.482 215.6 21.4973 216.585 21.4973 217.8C21.4973 219.015 22.482 220 23.6973 220H196.303C197.518 220 198.503 219.015 198.503 217.8C198.503 216.585 197.518 215.6 196.303 215.6ZM15.7777 215.6H14.3055C13.0902 215.6 12.1055 216.585 12.1055 217.8C12.1055 219.015 13.0902 220 14.3055 220H15.7777C16.993 220 17.9777 219.015 17.9777 217.8C17.9777 216.585 16.993 215.6 15.7777 215.6ZM205.694 215.6H204.222C203.007 215.6 202.022 216.585 202.022 217.8C202.022 219.015 203.007 220 204.222 220H205.694C206.91 220 207.894 219.015 207.894 217.8C207.894 216.585 206.91 215.6 205.694 215.6Z" fill="#1C1D21"/>
</svg>
