<svg width="220" height="220" viewBox="0 0 220 220" fill="none" xmlns="http://www.w3.org/2000/svg">
<path d="M212.906 30.2888H7.09363V186.004H212.906V30.2888Z" fill="#ECF4F7"/>
<path d="M7.09363 186.004V209.459C7.09363 214.066 10.8279 217.8 15.4343 217.8H204.566C209.172 217.8 212.906 214.066 212.906 209.459V186.004H7.09363Z" fill="#AAB1BA"/>
<path d="M212.906 170.354H7.09363V186.004H212.906V170.354Z" fill="#83E1E5"/>
<path d="M43.9118 208.586C47.5817 208.586 50.5567 205.611 50.5567 201.942C50.5567 198.272 47.5817 195.297 43.9118 195.297C40.242 195.297 37.267 198.272 37.267 201.942C37.267 205.611 40.242 208.586 43.9118 208.586Z" fill="#83E1E5"/>
<path d="M204.566 2.2H15.4343C10.8279 2.2 7.09363 5.93428 7.09363 10.5406V30.2887H212.906V10.5406C212.906 5.93428 209.172 2.2 204.566 2.2Z" fill="#83E1E5"/>
<path d="M26.6149 21.1037C29.2986 21.1037 31.4742 18.9281 31.4742 16.2444C31.4742 13.5606 29.2986 11.385 26.6149 11.385C23.9311 11.385 21.7555 13.5606 21.7555 16.2444C21.7555 18.9281 23.9311 21.1037 26.6149 21.1037Z" fill="#ECF4F7"/>
<path d="M45.8282 21.1037C48.512 21.1037 50.6876 18.9281 50.6876 16.2444C50.6876 13.5606 48.512 11.385 45.8282 11.385C43.1445 11.385 40.9689 13.5606 40.9689 16.2444C40.9689 18.9281 43.1445 21.1037 45.8282 21.1037Z" fill="#ECF4F7"/>
<path d="M65.0422 21.1037C67.726 21.1037 69.9016 18.9281 69.9016 16.2444C69.9016 13.5606 67.726 11.385 65.0422 11.385C62.3585 11.385 60.1829 13.5606 60.1829 16.2444C60.1829 18.9281 62.3585 21.1037 65.0422 21.1037Z" fill="#ECF4F7"/>
<path d="M71.9676 115.833H53.5659C51.4293 115.833 49.697 117.565 49.697 119.702C49.697 121.827 51.4113 123.555 53.5365 123.57L66.3545 123.617C68.2426 123.624 70.1214 123.809 71.9676 124.165V115.833Z" fill="#FDDF7F"/>
<path d="M110 88.564C122.142 88.564 131.985 78.721 131.985 66.579C131.985 54.437 122.142 44.5939 110 44.5939C97.8579 44.5939 88.0149 54.437 88.0149 66.579C88.0149 78.721 97.8579 88.564 110 88.564Z" fill="#FDDF7F"/>
<path d="M147.642 170.354H72.3581C66.3935 170.354 61.5583 165.519 61.5583 159.555V158.004C61.5583 152.04 66.3935 147.205 72.3581 147.205H147.642C153.607 147.205 158.442 152.04 158.442 158.004V159.555C158.442 165.519 153.607 170.354 147.642 170.354Z" fill="#AAB1BA"/>
<path d="M123.909 147.205H96.0911V170.354H123.909V147.205Z" fill="#FDDF7F"/>
<path d="M148.032 115.833H166.434C168.57 115.833 170.302 117.565 170.302 119.702C170.302 121.827 168.588 123.555 166.463 123.57L153.645 123.617C151.757 123.624 149.878 123.809 148.032 124.165V115.833Z" fill="#FDDF7F"/>
<path d="M26.6147 9.185C22.722 9.185 19.5554 12.3517 19.5554 16.2439C19.5554 20.1366 22.722 23.3033 26.6147 23.3033C30.5074 23.3033 33.6741 20.1366 33.6741 16.2439C33.6741 12.3521 30.5074 9.185 26.6147 9.185ZM26.6147 18.9037C25.1482 18.9037 23.9554 17.7109 23.9554 16.2444C23.9554 14.7778 25.1482 13.5854 26.6147 13.5854C28.0812 13.5854 29.2741 14.7783 29.2741 16.2444C29.2741 17.7104 28.0812 18.9037 26.6147 18.9037ZM45.8282 9.185C41.9355 9.185 38.7688 12.3517 38.7688 16.2439C38.7688 20.1366 41.9355 23.3033 45.8282 23.3033C49.7209 23.3033 52.8876 20.1366 52.8876 16.2439C52.8876 12.3521 49.7209 9.185 45.8282 9.185ZM45.8282 18.9037C44.3617 18.9037 43.1688 17.7109 43.1688 16.2444C43.1688 14.7778 44.3617 13.5854 45.8282 13.5854C47.2947 13.5854 48.4876 14.7783 48.4876 16.2444C48.4876 17.7104 47.2947 18.9037 45.8282 18.9037ZM65.0417 9.185C61.1494 9.185 57.9828 12.3517 57.9828 16.2439C57.9828 20.1366 61.1494 23.3033 65.0417 23.3033C68.9344 23.3033 72.101 20.1366 72.101 16.2439C72.101 12.3521 68.9344 9.185 65.0417 9.185ZM65.0417 18.9037C63.5756 18.9037 62.3828 17.7109 62.3828 16.2444C62.3828 14.7778 63.5756 13.5854 65.0417 13.5854C66.5082 13.5854 67.701 14.7783 67.701 16.2444C67.701 17.7104 66.5082 18.9037 65.0417 18.9037ZM4.89368 97.1511V94.7368C4.89368 93.522 5.8784 92.5368 7.09368 92.5368C8.30896 92.5368 9.29368 93.522 9.29368 94.7368V97.1511C9.29368 98.366 8.30896 99.3511 7.09368 99.3511C5.8784 99.3511 4.89368 98.366 4.89368 97.1511ZM204.566 0H15.4343C9.62236 0 4.89368 4.72868 4.89368 10.5406V86.9154C4.89368 88.1302 5.8784 89.1154 7.09368 89.1154C8.30896 89.1154 9.29368 88.1302 9.29368 86.9154V32.4887H210.706V183.804H9.29368V107.605C9.29368 106.39 8.30896 105.405 7.09368 105.405C5.8784 105.405 4.89368 106.39 4.89368 107.605V209.459C4.89368 215.271 9.62236 220 15.4343 220H204.566C210.378 220 215.106 215.271 215.106 209.459V10.5406C215.106 4.72868 210.378 0 204.566 0ZM210.706 209.459C210.706 212.845 207.951 215.6 204.566 215.6H15.4343C12.0485 215.6 9.29368 212.845 9.29368 209.459V188.204H210.706V209.459ZM210.706 28.0887H9.29368V10.5406C9.29368 7.15484 12.0485 4.4 15.4343 4.4H204.566C207.951 4.4 210.706 7.15484 210.706 10.5406V28.0887ZM47.5116 119.28C47.3955 120.971 47.9648 122.586 49.1141 123.826C50.2476 125.049 51.8535 125.757 53.5291 125.77L66.3467 125.816C68.0847 125.823 69.8051 125.989 71.4956 126.311C71.5136 126.315 71.5312 126.319 71.5493 126.323C73.1993 126.641 74.8207 127.106 76.402 127.721L88.4919 132.423V141.383C88.4919 142.598 89.4766 143.583 90.6919 143.583C91.9072 143.583 92.8919 142.598 92.8919 141.383V131.564V130.918V106.414C92.8919 105.2 91.9072 104.214 90.6919 104.214C89.4766 104.214 88.4919 105.2 88.4919 106.414V127.702L77.997 123.621C76.7413 123.132 75.4626 122.731 74.1682 122.405V118.033H79.3962C82.2523 118.033 84.5755 115.71 84.5755 112.854V103.198C84.5755 96.3415 90.1534 90.7641 97.009 90.7641H122.991C129.847 90.7641 135.424 96.3415 135.424 103.198V112.854C135.424 115.71 137.748 118.033 140.604 118.033H145.832V122.405C144.537 122.732 143.258 123.133 142.003 123.621L131.508 127.702V106.414C131.508 105.199 130.524 104.214 129.309 104.214C128.093 104.214 127.109 105.199 127.109 106.414V130.912C127.109 130.914 127.108 130.916 127.108 130.918V141.383C127.108 142.598 128.093 143.583 129.308 143.583C130.523 143.583 131.508 142.598 131.508 141.383V132.423L143.598 127.722C145.179 127.107 146.801 126.641 148.45 126.323C148.469 126.32 148.486 126.316 148.504 126.312C150.194 125.989 151.914 125.823 153.652 125.817L166.48 125.77C168.146 125.758 169.752 125.049 170.885 123.827C172.034 122.587 172.604 120.972 172.488 119.28C172.272 116.114 169.554 113.634 166.302 113.634H165.18C165.486 112.854 165.659 112.01 165.659 111.124C165.659 107.314 162.56 104.214 158.75 104.214C154.941 104.214 151.841 107.314 151.841 111.124C151.841 112.009 152.015 112.854 152.32 113.634H140.604C140.174 113.634 139.824 113.284 139.824 112.854V103.198C139.824 94.2049 132.736 86.8362 123.853 86.3861C130.094 82.0081 134.185 74.7644 134.185 66.579C134.185 53.2431 123.336 42.394 110 42.394C96.6645 42.394 85.8154 53.2435 85.8154 66.579C85.8154 74.7644 89.9065 82.0076 96.1475 86.3861C87.2643 86.8362 80.1759 94.2049 80.1759 103.198V112.854C80.1759 113.284 79.8261 113.633 79.3967 113.633H67.6804C67.9857 112.854 68.1591 112.009 68.1591 111.123C68.1591 107.313 65.0597 104.214 61.2502 104.214C57.4407 104.214 54.3413 107.313 54.3413 111.123C54.3413 112.009 54.5151 112.854 54.82 113.633H53.6985C50.4451 113.633 47.7281 116.114 47.5116 119.28ZM158.75 108.614C160.134 108.614 161.259 109.74 161.259 111.124C161.259 112.508 160.134 113.633 158.75 113.633C157.367 113.633 156.241 112.508 156.241 111.124C156.241 109.74 157.366 108.614 158.75 108.614ZM150.232 118.033H166.302C167.234 118.033 168.039 118.727 168.098 119.58C168.13 120.049 167.974 120.495 167.658 120.836C167.342 121.177 166.911 121.367 166.456 121.371L153.637 121.417C152.494 121.422 151.359 121.492 150.232 121.615V118.033ZM90.215 66.579C90.215 55.6697 99.0906 46.794 110 46.794C120.909 46.794 129.785 55.6697 129.785 66.579C129.785 77.4884 120.909 86.3641 110 86.3641C99.0906 86.3641 90.215 77.4888 90.215 66.579ZM61.2493 108.614C62.6331 108.614 63.7582 109.74 63.7582 111.124C63.7582 112.508 62.6327 113.633 61.2493 113.633C59.866 113.633 58.7404 112.508 58.7404 111.124C58.7404 109.74 59.866 108.614 61.2493 108.614ZM69.7677 118.033V121.614C68.6404 121.491 67.5052 121.421 66.3626 121.417L53.5537 121.37C53.0882 121.367 52.6579 121.177 52.3415 120.835C52.0256 120.495 51.8694 120.049 51.9015 119.58C51.96 118.727 52.7657 118.033 53.6976 118.033H69.7677ZM191.862 201.942C191.862 200.727 192.847 199.742 194.062 199.742H196.821C198.036 199.742 199.021 200.727 199.021 201.942C199.021 203.156 198.036 204.142 196.821 204.142H194.062C192.847 204.142 191.862 203.156 191.862 201.942ZM23.1792 204.142H35.3553C36.337 207.956 39.7954 210.787 43.912 210.787C48.0286 210.787 51.487 207.956 52.4691 204.142H185.496C186.711 204.142 187.696 203.156 187.696 201.942C187.696 200.727 186.711 199.742 185.496 199.742H52.4691C51.4875 195.927 48.0286 193.097 43.912 193.097C39.7958 193.097 36.3374 195.927 35.3553 199.742H23.1792C21.9639 199.742 20.9792 200.727 20.9792 201.942C20.9792 203.156 21.9639 204.142 23.1792 204.142ZM43.912 197.496C46.3628 197.496 48.3573 199.49 48.3573 201.941C48.3573 204.392 46.3628 206.386 43.912 206.386C41.4612 206.386 39.4671 204.392 39.4671 201.941C39.4671 199.49 41.4608 197.496 43.912 197.496ZM30.6601 170.354C30.6601 171.569 31.6448 172.554 32.8601 172.554H72.3584H147.642H187.141C188.356 172.554 189.341 171.569 189.341 170.354C189.341 169.14 188.356 168.154 187.141 168.154H157.379C159.408 165.861 160.642 162.85 160.642 159.555V158.004C160.642 150.836 154.81 145.005 147.642 145.005H72.3584C65.1904 145.005 59.3586 150.836 59.3586 158.004V159.555C59.3586 162.85 60.5933 165.861 62.6217 168.154H32.8601C31.6448 168.154 30.6601 169.14 30.6601 170.354ZM123.909 166.109C125.124 166.109 126.109 165.124 126.109 163.909V149.405H147.642C152.383 149.405 156.241 153.263 156.241 158.005V159.555C156.241 164.297 152.383 168.155 147.642 168.155H98.2912V160.98H121.709V163.909C121.709 165.124 122.694 166.109 123.909 166.109ZM63.7582 158.004C63.7582 153.263 67.6161 149.405 72.358 149.405H121.709V156.58H98.2907V153.479C98.2907 152.264 97.306 151.279 96.0907 151.279C94.8754 151.279 93.8907 152.264 93.8907 153.479V168.155H72.358C67.6161 168.155 63.7582 164.297 63.7582 159.555V158.004ZM20.46 172.554C19.2447 172.554 18.26 171.569 18.26 170.354C18.26 169.14 19.2447 168.154 20.46 168.154H22.7581C23.9734 168.154 24.9581 169.14 24.9581 170.354C24.9581 171.569 23.9734 172.554 22.7581 172.554H20.46ZM197.242 172.554C196.027 172.554 195.042 171.569 195.042 170.354C195.042 169.14 196.027 168.154 197.242 168.154H199.54C200.755 168.154 201.74 169.14 201.74 170.354C201.74 171.569 200.755 172.554 199.54 172.554H197.242ZM63.133 75.7134V78.3424H65.762C66.9772 78.3424 67.962 79.3276 67.962 80.5424C67.962 81.7573 66.9772 82.7424 65.762 82.7424H63.133V85.3714C63.133 86.5863 62.1482 87.5714 60.9329 87.5714C59.7177 87.5714 58.7329 86.5863 58.7329 85.3714V82.7424H56.104C54.8887 82.7424 53.904 81.7573 53.904 80.5424C53.904 79.3276 54.8887 78.3424 56.104 78.3424H58.7329V75.7134C58.7329 74.4986 59.7177 73.5134 60.9329 73.5134C62.1482 73.5134 63.133 74.4986 63.133 75.7134ZM161.267 75.7134V78.3424H163.896C165.111 78.3424 166.096 79.3276 166.096 80.5424C166.096 81.7573 165.111 82.7424 163.896 82.7424H161.267V85.3714C161.267 86.5863 160.282 87.5714 159.067 87.5714C157.852 87.5714 156.867 86.5863 156.867 85.3714V82.7424H154.238C153.023 82.7424 152.038 81.7573 152.038 80.5424C152.038 79.3276 153.023 78.3424 154.238 78.3424H156.867V75.7134C156.867 74.4986 157.852 73.5134 159.067 73.5134C160.282 73.5134 161.267 74.4986 161.267 75.7134Z" fill="#1C1D21"/>
</svg>
