<svg width="220" height="220" viewBox="0 0 220 220" fill="none" xmlns="http://www.w3.org/2000/svg">
<path d="M93.9408 90.4894C91.4381 90.6473 89.1008 92.1376 87.9863 94.5779L52.198 171.691C50.5863 175.22 52.1408 179.388 55.6705 181C59.2002 182.611 63.3679 181.057 64.9796 177.527L93.9413 115.127V90.4894H93.9408Z" fill="#FDDF7F"/>
<path d="M116.393 90.4692C128.793 90.4692 138.846 80.417 138.846 68.0169C138.846 55.6168 128.793 45.5646 116.393 45.5646C103.993 45.5646 93.9409 55.6168 93.9409 68.0169C93.9409 80.417 103.993 90.4692 116.393 90.4692Z" fill="#FDDF7F"/>
<path d="M130.639 102.442C127.895 99.6988 127.895 95.2504 130.639 92.5066C131.903 91.2429 133.529 90.5688 135.182 90.4694H93.9409V90.4896V115.127V156.831L138.845 134.908V110.649L130.639 102.442Z" fill="#83E1E5"/>
<path d="M159.808 78.6619V111.74L140.574 92.5065C137.831 89.7626 133.383 89.7626 130.639 92.5065C127.895 95.2503 127.895 99.6983 130.639 102.442L156.929 128.732C160.795 132.598 167.061 132.606 170.937 128.75C172.808 126.889 173.86 124.359 173.86 121.719V78.6623C173.86 74.7824 170.714 71.6368 166.834 71.6368C162.954 71.6364 159.808 74.782 159.808 78.6619Z" fill="#FDDF7F"/>
<path d="M181.157 159.607H173.86V121.72C173.86 124.359 172.808 126.889 170.937 128.75C167.061 132.606 160.795 132.599 156.929 128.732L155.146 126.949L93.9409 156.831V170.266C93.9409 176.546 99.0313 181.636 105.311 181.636H112.099H181.157C187.24 181.636 192.172 176.705 192.172 170.621C192.172 164.538 187.24 159.607 181.157 159.607ZM160.815 159.607H139.763L160.815 139.554V159.607Z" fill="#AAB1BA"/>
<path d="M128.199 170.622L119.615 178.798C117.539 180.628 114.867 181.636 112.099 181.636H149.795V170.622H128.199Z" fill="#FDDF7F"/>
<path d="M161.462 43.1926C161.462 41.9774 162.448 40.9926 163.662 40.9926H166.291V38.3636C166.291 37.1484 167.277 36.1636 168.491 36.1636C169.706 36.1636 170.691 37.1484 170.691 38.3636V40.9926H173.32C174.535 40.9926 175.52 41.9774 175.52 43.1926C175.52 44.4079 174.535 45.3926 173.32 45.3926H170.691V48.0212C170.691 49.2365 169.706 50.2212 168.491 50.2212C167.277 50.2212 166.291 49.2365 166.291 48.0212V45.3926H163.662C162.448 45.3926 161.462 44.4079 161.462 43.1926ZM65.0285 89.5633H67.6575V92.1923C67.6575 93.4076 68.6426 94.3923 69.8575 94.3923C71.0723 94.3923 72.0575 93.4076 72.0575 92.1923V89.5633H74.6865C75.9013 89.5633 76.8865 88.5786 76.8865 87.3633C76.8865 86.1481 75.9013 85.1633 74.6865 85.1633H72.0575V82.5344C72.0575 81.3191 71.0723 80.3344 69.8575 80.3344C68.6426 80.3344 67.6575 81.3191 67.6575 82.5344V85.1633H65.0285C63.8136 85.1633 62.8285 86.1481 62.8285 87.3633C62.8285 88.5786 63.8136 89.5633 65.0285 89.5633ZM111.134 145.989L109.63 146.723C108.538 147.257 108.085 148.574 108.618 149.666C109 150.447 109.783 150.901 110.597 150.901C110.921 150.901 111.25 150.829 111.561 150.678L113.065 149.943C114.156 149.41 114.609 148.093 114.076 147.001C113.543 145.909 112.226 145.455 111.134 145.989ZM4.33136 179.436H2.2C0.98516 179.436 0 180.421 0 181.636C0 182.852 0.98516 183.836 2.2 183.836H4.33136C5.5462 183.836 6.53136 182.852 6.53136 181.636C6.53136 180.421 5.5462 179.436 4.33136 179.436ZM84.1826 179.436H82.9836C81.7687 179.436 80.7836 180.421 80.7836 181.636C80.7836 182.852 81.7687 183.836 82.9836 183.836H84.1826C85.3974 183.836 86.3826 182.852 86.3826 181.636C86.3826 180.421 85.3974 179.436 84.1826 179.436ZM210.856 181.636C210.856 182.852 209.871 183.836 208.656 183.836H181.812C181.767 183.836 181.725 183.826 181.68 183.823C181.507 183.83 181.332 183.836 181.157 183.836H112.099H105.311C97.8287 183.836 91.7413 177.749 91.7413 170.267V156.831V93.4648C90.9898 93.9541 90.3742 94.6462 89.9879 95.4919L54.1935 172.616C53.6637 173.777 53.6171 175.087 54.0676 176.295C54.5178 177.503 55.4118 178.463 56.5844 178.999C57.7566 179.533 59.0674 179.58 60.2756 179.13C61.4834 178.68 62.443 177.786 62.9785 176.613L84.8232 129.547C85.3345 128.444 86.6426 127.965 87.7448 128.477C88.847 128.989 89.3257 130.297 88.814 131.399L66.975 178.453C66.8184 178.796 66.6384 179.121 66.4457 179.436H74.686C75.9009 179.436 76.886 180.42 76.886 181.636C76.886 182.851 75.9009 183.836 74.686 183.836H12.5906C11.3758 183.836 10.3906 182.851 10.3906 181.636C10.3906 180.42 11.3758 179.436 12.5906 179.436H50.7307C49.1814 176.905 48.8739 173.672 50.1965 170.776L85.991 93.6514C87.3519 90.6717 90.1938 88.6556 93.4564 88.327C93.6126 88.2909 93.7741 88.2684 93.9413 88.2684H102.346C101.157 87.4426 100.021 86.5071 98.9617 85.448C89.3499 75.8362 89.3499 60.1964 98.9617 50.5851C108.574 40.9733 124.214 40.9728 133.826 50.5851C143.437 60.1969 143.437 75.8367 133.826 85.448C132.766 86.5071 131.63 87.4426 130.441 88.2684H135.183C135.194 88.2684 135.204 88.2715 135.214 88.2715C137.706 88.1659 140.233 89.0521 142.131 90.9502L157.609 106.428V78.6615C157.609 73.5742 161.748 69.4356 166.835 69.4356C171.922 69.4356 176.061 73.5742 176.061 78.6615V121.719C176.061 121.719 176.061 121.719 176.061 121.719V152.743C176.061 153.959 175.076 154.943 173.861 154.943C172.646 154.943 171.661 153.959 171.661 152.743V131.062C171.65 131.07 171.639 131.077 171.628 131.086C171.363 131.303 171.091 131.505 170.813 131.697C170.773 131.725 170.735 131.752 170.694 131.779C170.419 131.964 170.137 132.136 169.85 132.295C169.805 132.32 169.76 132.345 169.715 132.37C169.428 132.525 169.136 132.667 168.84 132.798C168.793 132.818 168.746 132.839 168.699 132.858C168.401 132.986 168.098 133.1 167.793 133.202C167.747 133.218 167.702 133.232 167.656 133.246C167.345 133.346 167.032 133.434 166.715 133.507C166.676 133.516 166.636 133.524 166.597 133.533C166.272 133.606 165.945 133.666 165.616 133.712C165.589 133.716 165.561 133.718 165.535 133.721C165.191 133.767 164.847 133.799 164.502 133.815C164.496 133.815 164.491 133.815 164.485 133.815C164.304 133.823 164.124 133.828 163.943 133.828C163.77 133.828 163.597 133.823 163.425 133.815C163.414 133.815 163.404 133.815 163.393 133.815C163.05 133.799 162.709 133.768 162.368 133.723C162.339 133.72 162.309 133.716 162.28 133.713C161.952 133.667 161.626 133.607 161.301 133.536C161.261 133.526 161.221 133.518 161.181 133.509C160.864 133.436 160.55 133.348 160.239 133.249C160.194 133.234 160.149 133.22 160.105 133.205C159.797 133.103 159.493 132.988 159.192 132.861C159.148 132.842 159.104 132.822 159.059 132.803C158.759 132.671 158.464 132.528 158.174 132.371C158.133 132.349 158.094 132.326 158.053 132.305C157.76 132.142 157.472 131.968 157.191 131.779C157.16 131.758 157.129 131.736 157.098 131.714C156.81 131.517 156.528 131.308 156.255 131.084C156.237 131.069 156.22 131.054 156.203 131.039C155.919 130.803 155.642 130.553 155.375 130.287L154.702 129.614L118.543 147.268C117.451 147.801 116.134 147.348 115.601 146.256C115.068 145.164 115.521 143.847 116.612 143.314L136.646 133.533V119.686C136.646 118.471 137.631 117.486 138.846 117.486C140.06 117.486 141.046 118.471 141.046 119.686V131.385L151.41 126.324L129.084 103.998C126.014 100.928 125.574 96.2201 127.743 92.6689H96.1413V153.309L102.858 150.029C103.95 149.496 105.268 149.949 105.801 151.041C106.333 152.133 105.881 153.45 104.789 153.983L96.1418 158.206V170.267C96.1418 175.323 100.255 179.436 105.311 179.436H112.1C112.377 179.436 112.654 179.424 112.928 179.399C113.318 179.364 113.701 179.295 114.081 179.211C115.57 178.882 116.966 178.192 118.131 177.174L138.246 158.014C138.246 158.014 138.246 158.014 138.246 158.014L159.298 137.961C159.936 137.354 160.874 137.185 161.682 137.532C162.491 137.878 163.016 138.674 163.016 139.554V152.745C163.016 153.96 162.03 154.945 160.816 154.945C159.601 154.945 158.616 153.96 158.616 152.745V144.688L145.262 157.407H181.157C188.444 157.407 194.372 163.336 194.372 170.622C194.372 174.006 193.092 177.096 190.992 179.436H208.657C209.871 179.436 210.856 180.421 210.856 181.636ZM102.073 82.3377C106.02 86.2854 111.207 88.2592 116.393 88.2596C121.58 88.2605 126.765 86.2862 130.713 82.3377C138.61 74.4414 138.61 61.593 130.713 53.6963C122.817 45.8005 109.969 45.8014 102.073 53.6963C94.1767 61.5926 94.1767 74.4414 102.073 82.3377ZM139.019 94.0619C138.079 93.1212 136.843 92.6513 135.607 92.6513C134.371 92.6513 133.136 93.1212 132.195 94.0624C131.284 94.9731 130.782 96.1854 130.782 97.4746C130.782 98.7633 131.284 99.9755 132.195 100.887L156.7 125.393C156.701 125.393 156.701 125.393 156.702 125.393L158.485 127.177C161.299 129.99 165.773 130.172 168.8 127.717C169.002 127.553 169.198 127.377 169.385 127.19C170.281 126.3 170.939 125.195 171.31 123.999C171.365 123.822 171.408 123.642 171.45 123.463C171.468 123.386 171.492 123.31 171.508 123.233C171.546 123.043 171.571 122.851 171.595 122.658C171.602 122.599 171.615 122.541 171.622 122.482C171.637 122.329 171.639 122.174 171.645 122.021C171.649 121.921 171.66 121.821 171.66 121.72V78.6632C171.66 76.0021 169.495 73.8373 166.834 73.8373C164.174 73.8373 162.009 76.0021 162.009 78.6632V111.742V119.688C162.009 120.903 161.024 121.888 159.809 121.888C158.594 121.888 157.609 120.903 157.609 119.688V112.653L139.019 94.0619ZM181.157 161.807H140.643L133.698 168.421H175.816C177.03 168.421 178.016 169.406 178.016 170.621C178.016 171.837 177.03 172.821 175.816 172.821H151.996V179.436H181.157C186.017 179.436 189.972 175.482 189.972 170.621C189.972 165.761 186.017 161.807 181.157 161.807ZM122.135 179.436H147.596V172.822H129.079L122.135 179.436ZM217.8 179.436H216.545C215.33 179.436 214.345 180.421 214.345 181.636C214.345 182.852 215.33 183.836 216.545 183.836H217.8C219.015 183.836 220 182.852 220 181.636C220 180.421 219.015 179.436 217.8 179.436Z" fill="#1C1D21"/>
</svg>
