<svg width="220" height="220" viewBox="0 0 220 220" fill="none" xmlns="http://www.w3.org/2000/svg">
<path d="M42.0057 132.452C54.4057 132.452 64.458 122.4 64.458 110C64.458 97.6 54.4057 87.5477 42.0057 87.5477C29.6056 87.5477 19.5533 97.6 19.5533 110C19.5533 122.4 29.6056 132.452 42.0057 132.452Z" fill="#FDDF7F"/>
<path d="M116.537 89.3552L123.727 130.645H64.4577V89.3552H116.537Z" fill="#83E1E5"/>
<path d="M162.313 189.456L141.991 101.014C140.423 94.1912 134.35 89.3552 127.349 89.3552H116.537L123.727 130.644H104.701L91.1875 189.456C90.1852 193.817 92.7759 198.199 97.08 199.423C101.384 200.647 105.893 198.284 107.335 194.048L126.379 138.138L146.165 194.048C147.608 198.284 152.116 200.647 156.421 199.423C160.725 198.199 163.315 193.817 162.313 189.456Z" fill="#AAB1BA"/>
<path d="M160.43 181.26H141.639L146.165 194.048C147.608 198.284 152.116 200.647 156.42 199.423C160.724 198.199 163.315 193.817 162.313 189.456L160.43 181.26Z" fill="#FDDF7F"/>
<path d="M93.0707 181.26L91.1875 189.456C90.1852 193.817 92.7759 198.199 97.08 199.423C101.384 200.647 105.893 198.284 107.335 194.048L111.691 181.26H93.0707Z" fill="#FDDF7F"/>
<path d="M64.4577 191.71C64.4577 196.148 68.0552 199.745 72.4926 199.745C76.9304 199.745 80.5279 196.148 80.5279 191.71V130.644H64.4577V191.71Z" fill="#FDDF7F"/>
<path d="M80.5279 28.2894C80.5279 23.8515 76.9304 20.2545 72.493 20.2545C68.0552 20.2545 64.4577 23.852 64.4577 28.2894V89.3552H80.5279V28.2894Z" fill="#FDDF7F"/>
<path d="M91.8927 41.8071C91.8927 40.5918 92.8774 39.6071 94.0927 39.6071H96.7217V36.9781C96.7217 35.7628 97.7064 34.7781 98.9217 34.7781C100.137 34.7781 101.122 35.7628 101.122 36.9781V39.6071H103.751C104.966 39.6071 105.951 40.5918 105.951 41.8071C105.951 43.0223 104.966 44.0071 103.751 44.0071H101.122V46.6356C101.122 47.8509 100.137 48.8356 98.9217 48.8356C97.7064 48.8356 96.7217 47.8509 96.7217 46.6356V44.0071H94.0927C92.8774 44.0071 91.8927 43.0219 91.8927 41.8071ZM42.0059 166.802C40.7906 166.802 39.8059 167.787 39.8059 169.002V171.631H37.1769C35.9616 171.631 34.9769 172.616 34.9769 173.831C34.9769 175.047 35.9616 176.031 37.1769 176.031H39.8059V178.66C39.8059 179.876 40.7906 180.86 42.0059 180.86C43.2212 180.86 44.2059 179.876 44.2059 178.66V176.031H46.8349C48.0502 176.031 49.0349 175.047 49.0349 173.831C49.0349 172.616 48.0502 171.631 46.8349 171.631H44.2059V169.002C44.2059 167.787 43.2208 166.802 42.0059 166.802ZM124.172 151.442L109.418 194.758C107.921 199.152 103.818 201.947 99.3868 201.947C98.4245 201.947 97.4477 201.815 96.4779 201.539C91.0435 199.993 87.7782 194.47 89.0437 188.963L90.9154 180.818C90.9154 180.817 90.9159 180.816 90.9159 180.816L100.808 137.767C101.08 136.583 102.262 135.841 103.444 136.115C104.628 136.387 105.368 137.568 105.096 138.752L95.8342 179.06H110.117L120.007 150.023C120.399 148.873 121.649 148.258 122.8 148.65C123.948 149.041 124.564 150.291 124.172 151.442ZM108.618 183.46H94.8226L93.3319 189.949C92.5914 193.171 94.5019 196.403 97.6822 197.307C100.859 198.213 104.187 196.469 105.253 193.34L108.618 183.46ZM7.2578 197.546H2.2C0.98472 197.546 0 198.53 0 199.745C0 200.961 0.98472 201.945 2.2 201.945H7.2578C8.47308 201.945 9.4578 200.961 9.4578 199.745C9.4578 198.53 8.47308 197.546 7.2578 197.546ZM206.049 199.745C206.049 200.96 205.064 201.945 203.849 201.945H154.176C154.155 201.945 154.134 201.947 154.113 201.947C154.095 201.947 154.077 201.945 154.058 201.945H154.014C154.004 201.945 153.995 201.942 153.985 201.942C149.604 201.888 145.564 199.11 144.082 194.758L122.172 132.845H82.7284V191.71C82.7284 197.354 78.1365 201.945 72.4931 201.945H18.0611C16.8458 201.945 15.8611 200.961 15.8611 199.745C15.8611 198.53 16.8458 197.546 18.0611 197.546H64.0913C62.9372 195.889 62.2578 193.878 62.2578 191.71V130.645V124.047C61.4319 125.236 60.4965 126.372 59.4374 127.431C54.6317 132.238 48.3186 134.64 42.0059 134.64C35.6932 134.64 29.3801 132.238 24.5744 127.431C14.9622 117.82 14.9622 102.18 24.5744 92.5685C34.1858 82.9563 49.8265 82.9563 59.4374 92.5685C60.4965 93.6276 61.4319 94.7637 62.2578 95.953V89.3552V28.2894C62.2578 22.6459 66.8496 18.0545 72.4931 18.0545C78.1365 18.0545 82.7284 22.6459 82.7284 28.2894V87.1552H109.019C110.234 87.1552 111.219 88.1399 111.219 89.3552C111.219 90.5705 110.234 91.5552 109.019 91.5552H80.5284H66.6582V128.445H80.5284H121.111L114.37 89.7327C114.258 89.093 114.435 88.4369 114.853 87.9397C115.272 87.4425 115.888 87.1556 116.537 87.1556H127.349C135.425 87.1556 142.327 92.6521 144.135 100.522L164.457 188.964V188.964C165.167 192.054 164.45 195.15 162.723 197.545H203.849C205.064 197.545 206.049 198.529 206.049 199.745ZM56.3266 95.6793C52.378 91.7312 47.1922 89.7574 42.0059 89.7574C36.8196 89.7574 31.6338 91.7312 27.6852 95.6793C19.789 103.576 19.789 116.424 27.6852 124.321C35.5819 132.216 48.4295 132.216 56.3266 124.321C64.2228 116.424 64.2228 103.576 56.3266 95.6793ZM119.153 91.5552L125.863 130.085L143.194 179.06H157.667L139.847 101.507C138.5 95.6477 133.361 91.5552 127.349 91.5552H119.153ZM66.6578 87.1552H78.3279V28.2894C78.3279 25.0721 75.7104 22.4545 72.4926 22.4545C69.2749 22.4545 66.6574 25.0721 66.6574 28.2894V87.1552H66.6578ZM78.3284 132.845H66.6582V191.71C66.6582 194.928 69.2758 197.546 72.4935 197.546C75.7112 197.546 78.3288 194.928 78.3288 191.71V132.845H78.3284ZM154.013 197.545C154.013 197.545 154.014 197.545 154.014 197.545H154.066C154.645 197.549 155.234 197.474 155.818 197.307C158.998 196.403 160.908 193.171 160.168 189.948L158.678 183.46H144.751L148.239 193.314C149.109 195.871 151.461 197.502 154.013 197.545ZM217.8 197.546H214.601C213.385 197.546 212.401 198.53 212.401 199.745C212.401 200.961 213.385 201.945 214.601 201.945H217.8C219.015 201.945 220 200.961 220 199.745C220 198.53 219.015 197.546 217.8 197.546Z" fill="#1C1D21"/>
</svg>
