<svg width="220" height="220" viewBox="0 0 220 220" fill="none" xmlns="http://www.w3.org/2000/svg">
<path d="M204.493 194.874H159.239C151.891 194.874 145.933 200.832 145.933 208.181C145.933 200.832 139.975 194.874 132.627 194.874H87.3725C80.0236 194.874 74.066 200.832 74.066 208.181C74.066 200.832 68.1084 194.874 60.7595 194.874H15.5064C8.15755 194.874 2.19995 200.831 2.19995 208.18V217.8H217.8V208.18C217.8 200.831 211.842 194.874 204.493 194.874Z" fill="#83E1E5"/>
<path d="M124.055 47.2006C120.065 49.9678 115.224 51.594 110 51.594C104.776 51.594 99.935 49.9682 95.945 47.2006H30.6534V57.1838L77.9438 64.904C81.0814 65.4162 83.3857 68.127 83.3857 71.306V102.641H136.615V71.306C136.615 68.127 138.919 65.4162 142.057 64.904L189.347 57.1838V47.2006H124.055Z" fill="#83E1E5"/>
<path d="M110 51.5935C123.64 51.5935 134.697 40.5364 134.697 26.8968C134.697 13.2571 123.64 2.20001 110 2.20001C96.3603 2.20001 85.3032 13.2571 85.3032 26.8968C85.3032 40.5364 96.3603 51.5935 110 51.5935Z" fill="#FDDF7F"/>
<path d="M16.5333 47.2006C14.5731 47.2006 12.8329 48.6253 12.6169 50.5737C12.3903 52.6179 13.8035 54.4333 15.7831 54.7563L30.6533 57.1838V47.2006H16.5333Z" fill="#FDDF7F"/>
<path d="M207.383 50.5732C207.167 48.6249 205.427 47.2001 203.467 47.2001H189.347V57.1833L204.217 54.7558C206.196 54.4328 207.61 52.6174 207.383 50.5732Z" fill="#FDDF7F"/>
<path d="M157.22 131.681H62.7808C55.2986 131.681 49.2332 125.616 49.2332 118.134V116.189C49.2332 108.707 55.2986 102.641 62.7808 102.641H157.22C164.702 102.641 170.767 108.707 170.767 116.189V118.134C170.767 125.616 164.702 131.681 157.22 131.681Z" fill="#AAB1BA"/>
<path d="M127.448 102.641H92.552V131.681H127.448V102.641Z" fill="#FDDF7F"/>
<path d="M38.1338 194.874C50.5533 194.874 60.6213 184.806 60.6213 172.386C60.6213 159.967 50.5533 149.899 38.1338 149.899C25.7142 149.899 15.6462 159.967 15.6462 172.386C15.6462 184.806 25.7142 194.874 38.1338 194.874Z" fill="#FDDF7F"/>
<path d="M110 194.874C122.42 194.874 132.488 184.806 132.488 172.386C132.488 159.967 122.42 149.899 110 149.899C97.5807 149.899 87.5127 159.967 87.5127 172.386C87.5127 184.806 97.5807 194.874 110 194.874Z" fill="#FDDF7F"/>
<path d="M181.867 194.874C194.286 194.874 204.354 184.806 204.354 172.386C204.354 159.967 194.286 149.899 181.867 149.899C169.447 149.899 159.379 159.967 159.379 172.386C159.379 184.806 169.447 194.874 181.867 194.874Z" fill="#FDDF7F"/>
<path d="M51.1377 30.0956C51.1377 28.8807 52.1228 27.8956 53.3377 27.8956H55.9667V25.2666C55.9667 24.0517 56.9518 23.0666 58.1667 23.0666C59.3815 23.0666 60.3667 24.0517 60.3667 25.2666V27.8956H62.9957C64.2105 27.8956 65.1957 28.8807 65.1957 30.0956C65.1957 31.3104 64.2105 32.2956 62.9957 32.2956H60.3667V34.9246C60.3667 36.1394 59.3815 37.1246 58.1667 37.1246C56.9518 37.1246 55.9667 36.1394 55.9667 34.9246V32.2956H53.3377C52.1228 32.2956 51.1377 31.3108 51.1377 30.0956ZM157.005 32.2956H159.633V34.9246C159.633 36.1394 160.618 37.1246 161.833 37.1246C163.049 37.1246 164.033 36.1394 164.033 34.9246V32.2956H166.662C167.878 32.2956 168.862 31.3104 168.862 30.0956C168.862 28.8807 167.878 27.8956 166.662 27.8956H164.033V25.2666C164.033 24.0517 163.049 23.0666 161.833 23.0666C160.618 23.0666 159.633 24.0517 159.633 25.2666V27.8956H157.005C155.789 27.8956 154.805 28.8807 154.805 30.0956C154.805 31.3104 155.789 32.2956 157.005 32.2956ZM31.1815 129.481H51.8786C48.8954 126.614 47.0329 122.589 47.0329 118.134V116.189C47.0329 107.506 54.0971 100.441 62.7805 100.441H157.219C165.902 100.441 172.967 107.506 172.967 116.189V118.134C172.967 122.589 171.105 126.614 168.121 129.481H188.819C190.034 129.481 191.019 130.467 191.019 131.681C191.019 132.896 190.034 133.881 188.819 133.881H157.22H149.409H70.591H62.781H31.1815C29.9666 133.881 28.9815 132.896 28.9815 131.681C28.9815 130.467 29.9666 129.481 31.1815 129.481ZM157.219 104.841H129.648V123.596C129.648 124.811 128.663 125.796 127.448 125.796C126.232 125.796 125.248 124.811 125.248 123.596V119.361H94.7518V129.481H149.409H157.219C163.477 129.481 168.567 124.391 168.567 118.134V116.189C168.567 109.932 163.477 104.841 157.219 104.841ZM62.7805 129.481H70.5905H90.3518V110.512C90.3518 109.297 91.337 108.312 92.5518 108.312C93.7666 108.312 94.7518 109.297 94.7518 110.512V114.961H125.248V104.841H62.7805C56.5233 104.841 51.4329 109.932 51.4329 116.189V118.134C51.4329 124.391 56.5233 129.481 62.7805 129.481ZM20.7715 129.481C19.5567 129.481 18.5715 130.467 18.5715 131.681C18.5715 132.896 19.5567 133.881 20.7715 133.881H23.7459C24.9608 133.881 25.9459 132.896 25.9459 131.681C25.9459 130.467 24.9608 129.481 23.7459 129.481H20.7715ZM196.254 129.481C195.039 129.481 194.054 130.467 194.054 131.681C194.054 132.896 195.039 133.881 196.254 133.881H199.228C200.444 133.881 201.428 132.896 201.428 131.681C201.428 130.467 200.444 129.481 199.228 129.481H196.254ZM10.4306 50.3307C10.7681 47.2921 13.3914 45.0006 16.5339 45.0006H85.3037C86.5185 45.0006 87.5037 45.9857 87.5037 47.2006C87.5037 48.4154 86.5185 49.4006 85.3037 49.4006H32.8535V55.3137L78.2984 62.733C79.3412 62.9033 80.3128 63.2526 81.1857 63.745V59.3428C81.1857 58.128 82.1709 57.1428 83.3857 57.1428C84.6006 57.1428 85.5857 58.128 85.5857 59.3428V71.3064V72.9093V94.5019C85.5857 95.7167 84.6006 96.7019 83.3857 96.7019C82.1709 96.7019 81.1857 95.7167 81.1857 94.5019V72.9093V71.3064C81.1857 69.1953 79.6734 67.4159 77.5896 67.0758L15.4286 56.9272C12.2729 56.412 10.0773 53.5146 10.4306 50.3307ZM16.1379 52.5848L28.4535 54.5952V49.4001H16.5339C15.6521 49.4001 14.8922 50.0218 14.8042 50.8156C14.7092 51.6701 15.2948 52.4471 16.1379 52.5848ZM134.767 45.0001H203.467C206.609 45.0001 209.233 47.2916 209.569 50.3307C209.923 53.5141 207.727 56.4115 204.571 56.9268L142.411 67.0745C140.327 67.4146 138.815 69.194 138.815 71.3051V72.908V94.5006C138.815 95.7154 137.83 96.7006 136.615 96.7006C135.399 96.7006 134.415 95.7154 134.415 94.5006V72.908V71.3051V59.3415C134.415 58.1266 135.399 57.1415 136.615 57.1415C137.83 57.1415 138.815 58.1266 138.815 59.3415V63.7441C139.688 63.2518 140.659 62.9024 141.702 62.7321L187.147 55.3133V49.4001H134.767C133.551 49.4001 132.567 48.415 132.567 47.2001C132.567 45.9853 133.551 45.0001 134.767 45.0001ZM203.467 49.4001H191.547V54.5952L203.862 52.5844C204.705 52.4467 205.291 51.6696 205.196 50.8156C205.108 50.0218 204.349 49.4001 203.467 49.4001ZM83.1032 26.8968C83.1032 12.0657 95.1689 0 110 0C124.831 0 136.896 12.0657 136.896 26.8968C136.896 41.7278 124.831 53.7935 110 53.7935C95.1689 53.7935 83.1032 41.7278 83.1032 26.8968ZM87.5032 26.8968C87.5032 39.3017 97.5955 49.3935 110 49.3935C122.404 49.3935 132.496 39.3012 132.496 26.8968C132.497 14.4923 122.404 4.4 110 4.4C97.5955 4.4 87.5032 14.4923 87.5032 26.8968ZM220 208.181V210.907C220 212.122 219.015 213.107 217.8 213.107C216.585 213.107 215.6 212.122 215.6 210.907V208.181C215.6 202.057 210.618 197.074 204.494 197.074H159.24C153.116 197.074 148.133 202.057 148.133 208.181V210.907C148.133 212.122 147.149 213.107 145.933 213.107C144.718 213.107 143.733 212.122 143.733 210.907V208.181C143.733 202.057 138.751 197.074 132.627 197.074H87.373C81.2491 197.074 76.2665 202.057 76.2665 208.181V210.907C76.2665 212.122 75.2814 213.107 74.0665 213.107C72.8517 213.107 71.8665 212.122 71.8665 210.907V208.181C71.8665 202.057 66.8844 197.074 60.76 197.074H15.5065C9.38212 197.074 4.4 202.056 4.4 208.181V210.907C4.4 212.122 3.41484 213.107 2.2 213.107C0.98516 213.107 0 212.122 0 210.907V208.181C0 199.63 6.9564 192.674 15.5065 192.674H24.0896C17.6638 188.213 13.4455 180.785 13.4455 172.387C13.4455 158.774 24.5203 147.699 38.133 147.699C51.7458 147.699 62.8206 158.774 62.8206 172.387C62.8206 180.785 58.6023 188.213 52.1765 192.674H60.76C66.4048 192.674 71.3539 195.705 74.0665 200.226C76.7791 195.705 81.7282 192.674 87.373 192.674H95.9561C89.5303 188.213 85.312 180.785 85.312 172.387C85.312 158.774 96.3868 147.699 110 147.699C123.612 147.699 134.687 158.774 134.687 172.387C134.687 180.785 130.469 188.213 124.043 192.674H132.626C138.27 192.674 143.22 195.705 145.933 200.226C148.645 195.705 153.594 192.674 159.239 192.674H167.822C161.396 188.213 157.178 180.785 157.178 172.387C157.178 158.774 168.252 147.699 181.865 147.699C195.478 147.699 206.553 158.774 206.553 172.387C206.553 180.785 202.334 188.213 195.909 192.674H204.492C213.044 192.674 220 199.63 220 208.181ZM38.1335 192.674C49.32 192.674 58.421 183.573 58.421 172.387C58.421 161.2 49.32 152.099 38.1335 152.099C26.9469 152.099 17.846 161.2 17.846 172.387C17.8455 183.573 26.9465 192.674 38.1335 192.674ZM110 192.674C121.187 192.674 130.288 183.573 130.288 172.387C130.288 161.2 121.186 152.099 110 152.099C98.8134 152.099 89.7125 161.2 89.7125 172.387C89.7125 183.573 98.8134 192.674 110 192.674ZM181.867 192.674C193.053 192.674 202.154 183.573 202.154 172.387C202.154 161.2 193.053 152.099 181.867 152.099C170.68 152.099 161.579 161.2 161.579 172.387C161.579 183.573 170.68 192.674 181.867 192.674Z" fill="#1C1D21"/>
</svg>
