<svg width="220" height="220" viewBox="0 0 220 220" fill="none" xmlns="http://www.w3.org/2000/svg">
<path d="M189.635 14.8109H30.3656V171.023H189.635V14.8109Z" fill="#83E1E5"/>
<path d="M128.026 149.41V134.204L140.623 129.306C143.851 128.051 147.283 127.4 150.747 127.388L162.714 127.344C164.782 127.329 166.433 125.577 166.29 123.479C166.159 121.565 164.483 120.121 162.564 120.121H138.571C137.035 120.121 135.79 118.875 135.79 117.339V108.324C135.79 100.779 129.673 94.6617 122.128 94.6617H97.87C90.3249 94.6617 84.208 100.779 84.208 108.324V117.339C84.208 118.875 82.9628 120.121 81.4263 120.121H57.4336C55.5152 120.121 53.8388 121.565 53.7077 123.479C53.5642 125.577 55.2155 127.329 57.2835 127.344L69.2507 127.388C72.7148 127.4 76.1468 128.05 79.3751 129.306L91.9714 134.204V149.41H128.026Z" fill="#ECF4F7"/>
<path d="M180.601 196.513H39.3992C34.4101 196.513 30.3656 192.468 30.3656 187.479V208.766C30.3656 213.756 34.4101 217.8 39.3992 217.8H180.601C185.59 217.8 189.634 213.756 189.634 208.766V187.479C189.634 192.468 185.59 196.513 180.601 196.513Z" fill="#AAB1BA"/>
<path d="M189.634 14.8109V11.2341C189.634 6.24449 185.59 2.20001 180.601 2.20001H39.3992C34.4101 2.20001 30.3656 6.24449 30.3656 11.2337V14.8104H189.634V14.8109Z" fill="#ECF4F7"/>
<path d="M108.482 32.2595H46.4222C44.7753 32.2595 43.4403 30.9245 43.4403 29.2776V17.7923C43.4403 16.1454 44.7753 14.8104 46.4222 14.8104H108.482C110.129 14.8104 111.464 16.1454 111.464 17.7923V29.2776C111.464 30.9245 110.129 32.2595 108.482 32.2595Z" fill="#FDDF7F"/>
<path d="M189.634 187.479V171.023H30.3656V187.479C30.3656 192.468 34.4101 196.513 39.3992 196.513H180.601C185.59 196.513 189.634 192.468 189.634 187.479Z" fill="#ECF4F7"/>
<path d="M74.4925 120.12H57.3123C55.3173 120.12 53.7003 121.737 53.7003 123.732C53.7003 125.716 55.3006 127.329 57.285 127.344L69.2521 127.388C71.0148 127.394 72.769 127.567 74.4925 127.9V120.12Z" fill="#FDDF7F"/>
<path d="M110 94.6616C121.336 94.6616 130.525 85.472 130.525 74.136C130.525 62.8001 121.336 53.6105 110 53.6105C98.664 53.6105 89.4744 62.8001 89.4744 74.136C89.4744 85.472 98.664 94.6616 110 94.6616Z" fill="#FDDF7F"/>
<path d="M145.143 171.023H74.8568C69.2882 171.023 64.7738 166.508 64.7738 160.94V159.492C64.7738 153.924 69.2882 149.409 74.8568 149.409H145.143C150.712 149.409 155.226 153.924 155.226 159.492V160.94C155.226 166.508 150.712 171.023 145.143 171.023Z" fill="#AAB1BA"/>
<path d="M122.986 149.41H97.0144V171.023H122.986V149.41Z" fill="#FDDF7F"/>
<path d="M145.507 120.12H162.687C164.682 120.12 166.299 121.737 166.299 123.732C166.299 125.716 164.699 127.329 162.714 127.344L150.747 127.388C148.985 127.394 147.23 127.567 145.507 127.9V120.12Z" fill="#FDDF7F"/>
<path d="M201.74 215.6H189.508C190.965 213.705 191.834 211.336 191.834 208.766V187.479V11.2336C191.834 5.03932 186.795 0 180.601 0H39.3994C33.205 0 28.1657 5.03932 28.1657 11.2336V187.479V208.766C28.1657 211.336 29.0352 213.705 30.492 215.6H18.26C17.0447 215.6 16.06 216.585 16.06 217.8C16.06 219.015 17.0447 220 18.26 220H39.3994H180.601H201.74C202.955 220 203.94 219.015 203.94 217.8C203.94 216.585 202.955 215.6 201.74 215.6ZM187.434 198.123C187.434 201.891 184.369 204.956 180.601 204.956H71.8665C70.6512 204.956 69.6665 205.942 69.6665 207.156C69.6665 208.371 70.6512 209.356 71.8665 209.356H180.601C183.17 209.356 185.54 208.487 187.434 207.03V208.766C187.434 212.535 184.368 215.6 180.601 215.6H39.3994C35.6316 215.6 32.5657 212.535 32.5657 208.766V207.03C34.4604 208.487 36.8298 209.356 39.3994 209.356H53.7002C54.9155 209.356 55.9002 208.371 55.9002 207.156C55.9002 205.942 54.9155 204.956 53.7002 204.956H39.3994C35.6312 204.956 32.5657 201.891 32.5657 198.123V196.39C32.5785 196.4 32.5926 196.409 32.6053 196.418C32.8126 196.576 33.0255 196.726 33.2438 196.87C33.2864 196.898 33.3296 196.925 33.3722 196.952C33.598 197.097 33.8281 197.235 34.0644 197.364C34.0745 197.369 34.0846 197.374 34.0947 197.379C34.3262 197.504 34.5633 197.618 34.804 197.727C34.8467 197.746 34.8885 197.766 34.9316 197.784C35.1736 197.89 35.4196 197.986 35.6699 198.074C35.7174 198.091 35.7654 198.107 35.8129 198.123C36.073 198.211 36.3365 198.292 36.6049 198.361C36.6089 198.362 36.6128 198.363 36.6168 198.364C36.883 198.432 37.1536 198.488 37.4268 198.536C37.4744 198.545 37.5219 198.554 37.5698 198.562C37.8387 198.606 38.1106 198.641 38.3852 198.665C38.4349 198.67 38.4846 198.673 38.5343 198.677C38.8199 198.699 39.1076 198.713 39.3989 198.713H180.6C180.891 198.713 181.179 198.699 181.465 198.677C181.515 198.673 181.564 198.67 181.614 198.665C181.889 198.641 182.16 198.606 182.429 198.562C182.477 198.554 182.525 198.545 182.572 198.536C182.846 198.488 183.116 198.432 183.382 198.364C183.386 198.363 183.39 198.362 183.394 198.361C183.663 198.293 183.926 198.211 184.186 198.123C184.234 198.106 184.281 198.091 184.329 198.074C184.579 197.986 184.826 197.89 185.067 197.784C185.11 197.766 185.152 197.746 185.195 197.727C185.435 197.619 185.673 197.504 185.904 197.379C185.914 197.374 185.924 197.369 185.934 197.364C186.171 197.235 186.401 197.097 186.627 196.952C186.67 196.925 186.713 196.898 186.755 196.87C186.974 196.727 187.187 196.576 187.394 196.418C187.407 196.409 187.421 196.4 187.433 196.39V198.123H187.434ZM187.434 187.479C187.434 191.247 184.368 194.313 180.601 194.313H39.3994C35.6316 194.313 32.5657 191.247 32.5657 187.479V17.0108H41.3063C41.2672 17.2665 41.2408 17.5261 41.2408 17.7927V29.2776C41.2408 32.135 43.5653 34.4595 46.4222 34.4595H108.482C111.339 34.4595 113.664 32.135 113.664 29.2776V17.7927C113.664 17.5265 113.637 17.2665 113.598 17.0108H187.434V187.479ZM45.6408 29.2776V17.7927C45.6408 17.3615 45.9914 17.0108 46.4222 17.0108H108.482C108.913 17.0108 109.264 17.3615 109.264 17.7927V29.2776C109.264 29.7088 108.913 30.0595 108.482 30.0595H46.4222C45.991 30.0595 45.6408 29.7088 45.6408 29.2776ZM187.434 12.6108H108.482H46.4222H32.5657V11.2341C32.5657 7.46548 35.6312 4.4 39.3994 4.4H180.601C184.368 4.4 187.434 7.46548 187.434 11.2336V12.6108ZM11.7203 217.8C11.7203 219.015 10.7356 220 9.52027 220H6.82C5.60472 220 4.62 219.015 4.62 217.8C4.62 216.585 5.60472 215.6 6.82 215.6H9.52027C10.7351 215.6 11.7203 216.585 11.7203 217.8ZM215.38 217.8C215.38 219.015 214.395 220 213.18 220H210.48C209.264 220 208.28 219.015 208.28 217.8C208.28 216.585 209.264 215.6 210.48 215.6H213.18C214.395 215.6 215.38 216.585 215.38 217.8ZM66.2966 207.156C66.2966 208.371 65.3118 209.356 64.0966 209.356H61.16C59.9447 209.356 58.96 208.371 58.96 207.156C58.96 205.942 59.9447 204.956 61.16 204.956H64.0966C65.3118 204.956 66.2966 205.942 66.2966 207.156ZM118.972 41.9778C118.972 40.7629 119.956 39.7778 121.172 39.7778H124.721C125.936 39.7778 126.921 40.7629 126.921 41.9778C126.921 43.1926 125.936 44.1778 124.721 44.1778H121.172C119.956 44.1778 118.972 43.1926 118.972 41.9778ZM113.456 39.7778C114.671 39.7778 115.656 40.7629 115.656 41.9778C115.656 43.1926 114.671 44.1778 113.456 44.1778H82.6188C81.4035 44.1778 80.4188 43.1926 80.4188 41.9778C80.4188 40.7629 81.4035 39.7778 82.6188 39.7778H113.456ZM68.6286 41.9778C68.6286 40.7629 69.6133 39.7778 70.8286 39.7778H75.2457C76.461 39.7778 77.4457 40.7629 77.4457 41.9778C77.4457 43.1926 76.461 44.1778 75.2457 44.1778H70.8286C69.6133 44.1778 68.6286 43.1926 68.6286 41.9778ZM41.2408 42.3456C41.2408 41.1308 42.2255 40.1456 43.4408 40.1456H63.7608C64.9761 40.1456 65.9608 41.1308 65.9608 42.3456C65.9608 43.5604 64.9761 44.5456 63.7608 44.5456H43.4408C42.2255 44.5456 41.2408 43.5604 41.2408 42.3456ZM132.726 74.136C132.726 61.6053 122.531 51.4105 110 51.4105C97.4692 51.4105 87.2744 61.6053 87.2744 74.136C87.2744 81.6825 90.9748 88.3775 96.6535 92.5131C88.4743 93.1379 82.009 99.9874 82.009 108.324V117.339C82.009 117.66 81.748 117.92 81.4277 117.92H71.3095C71.7424 116.973 71.9902 115.924 71.9902 114.816C71.9902 110.678 68.6237 107.312 64.4855 107.312C60.3473 107.312 56.9813 110.678 56.9813 114.816C56.9813 115.924 57.229 116.973 57.662 117.92H57.4345C54.3224 117.92 51.7216 120.296 51.5139 123.328C51.403 124.949 51.9482 126.495 53.0486 127.683C54.1341 128.854 55.6719 129.532 57.2761 129.544L69.2437 129.588C70.8567 129.594 72.4526 129.748 74.0212 130.047C74.0379 130.05 74.0546 130.054 74.0718 130.057C75.6039 130.353 77.11 130.785 78.5787 131.356L89.7728 135.71V143.975C89.7728 145.19 90.7575 146.175 91.9728 146.175C93.188 146.175 94.1728 145.19 94.1728 143.975V134.808V134.204V111.327C94.1728 110.112 93.188 109.127 91.9728 109.127C90.7575 109.127 89.7728 110.112 89.7728 111.327V130.988L80.1737 127.255C79.0315 126.811 77.8686 126.445 76.692 126.144V122.32H81.4273C84.1738 122.32 86.4085 120.086 86.4085 117.339V108.324C86.4085 102.003 91.5508 96.8616 97.871 96.8616H122.129C128.449 96.8616 133.591 102.003 133.591 108.324V117.339C133.591 120.086 135.825 122.32 138.572 122.32H143.307V126.144C142.131 126.445 140.968 126.812 139.825 127.255L130.227 130.988V111.327C130.227 110.113 129.243 109.127 128.027 109.127C126.812 109.127 125.827 110.113 125.827 111.327V134.199C125.827 134.201 125.827 134.203 125.827 134.205V143.975C125.827 145.19 126.812 146.175 128.027 146.175C129.242 146.175 130.227 145.19 130.227 143.975V135.71L141.42 131.357C142.889 130.786 144.395 130.353 145.927 130.058C145.944 130.054 145.961 130.051 145.977 130.047C147.546 129.748 149.143 129.594 150.756 129.588L162.732 129.545C164.328 129.532 165.865 128.854 166.951 127.683C168.051 126.496 168.597 124.949 168.486 123.329C168.278 120.296 165.677 117.921 162.565 117.921H162.338C162.771 116.974 163.018 115.924 163.018 114.816C163.018 110.678 159.652 107.312 155.514 107.312C151.376 107.312 148.01 110.678 148.01 114.816C148.01 115.924 148.258 116.973 148.691 117.921H138.572C138.251 117.921 137.991 117.66 137.991 117.339V108.324C137.991 99.9874 131.526 93.1379 123.347 92.5131C129.025 88.3775 132.726 81.6825 132.726 74.136ZM64.4855 111.712C66.1976 111.712 67.5902 113.104 67.5902 114.816C67.5902 116.527 66.1971 117.92 64.4855 117.92C62.7739 117.92 61.3813 116.527 61.3813 114.816C61.3813 113.104 62.7739 111.712 64.4855 111.712ZM72.2924 125.353C71.2884 125.25 70.2772 125.191 69.26 125.187L57.3012 125.144C56.9074 125.141 56.5435 124.98 56.276 124.691C56.1207 124.524 55.8668 124.164 55.9033 123.629C55.9526 122.907 56.6394 122.32 57.4341 122.32H72.292V125.353H72.2924ZM155.514 111.712C157.226 111.712 158.618 113.104 158.618 114.816C158.618 116.527 157.226 117.92 155.514 117.92C153.802 117.92 152.41 116.527 152.41 114.816C152.41 113.104 153.803 111.712 155.514 111.712ZM147.707 122.32H162.565C163.36 122.32 164.047 122.907 164.096 123.629C164.132 124.164 163.878 124.524 163.724 124.692C163.456 124.981 163.091 125.141 162.706 125.144L150.74 125.188C149.722 125.191 148.711 125.25 147.707 125.354V122.32H147.707ZM110 92.4616C99.895 92.4616 91.6744 84.2406 91.6744 74.136C91.6744 64.0314 99.8954 55.8105 110 55.8105C120.105 55.8105 128.326 64.0314 128.326 74.136C128.326 84.2406 120.105 92.4616 110 92.4616ZM45.4876 171.023C45.4876 172.238 44.5029 173.223 43.2876 173.223H41.5303C40.315 173.223 39.3303 172.238 39.3303 171.023C39.3303 169.808 40.315 168.823 41.5303 168.823H43.2876C44.5029 168.823 45.4876 169.808 45.4876 171.023ZM157.426 160.94V159.492C157.426 152.719 151.916 147.209 145.143 147.209H74.8568C68.0838 147.209 62.5737 152.719 62.5737 159.492V160.94C62.5737 163.938 63.6552 166.687 65.4465 168.823H51.0127C49.7974 168.823 48.8127 169.808 48.8127 171.023C48.8127 172.238 49.7974 173.223 51.0127 173.223H74.8568H81.2156H138.784H145.143H168.987C170.203 173.223 171.187 172.238 171.187 171.023C171.187 169.808 170.203 168.823 168.987 168.823H154.553C156.345 166.688 157.426 163.938 157.426 160.94ZM97.0143 153.067C95.799 153.067 94.8143 154.052 94.8143 155.267V168.823H81.2156H74.8568C70.51 168.823 66.9737 165.286 66.9737 160.94V159.492C66.9737 155.145 70.51 151.609 74.8568 151.609H120.786V158.015H99.2147V155.267C99.2143 154.052 98.2296 153.067 97.0143 153.067ZM153.026 160.94C153.026 165.286 149.49 168.823 145.143 168.823H138.784H99.2143V162.416H120.785V165.005C120.785 166.22 121.77 167.205 122.985 167.205C124.201 167.205 125.185 166.22 125.185 165.005V151.609H145.143C149.49 151.609 153.026 155.146 153.026 159.493V160.94H153.026ZM174.512 171.023C174.512 169.808 175.497 168.823 176.712 168.823H178.47C179.685 168.823 180.67 169.808 180.67 171.023C180.67 172.238 179.685 173.223 178.47 173.223H176.712C175.497 173.223 174.512 172.238 174.512 171.023ZM65.762 77.282C66.9772 77.282 67.962 78.2672 67.962 79.482C67.962 80.6969 66.9772 81.682 65.762 81.682H63.133V84.311C63.133 85.5259 62.1482 86.511 60.933 86.511C59.7177 86.511 58.733 85.5259 58.733 84.311V81.682H56.104C54.8887 81.682 53.904 80.6969 53.904 79.482C53.904 78.2672 54.8887 77.282 56.104 77.282H58.733V74.653C58.733 73.4382 59.7177 72.453 60.933 72.453C62.1482 72.453 63.133 73.4382 63.133 74.653V77.282H65.762ZM152.038 79.482C152.038 78.2672 153.023 77.282 154.238 77.282H156.867V74.653C156.867 73.4382 157.852 72.453 159.067 72.453C160.282 72.453 161.267 73.4382 161.267 74.653V77.282H163.896C165.111 77.282 166.096 78.2672 166.096 79.482C166.096 80.6969 165.111 81.682 163.896 81.682H161.267V84.311C161.267 85.5259 160.282 86.511 159.067 86.511C157.852 86.511 156.867 85.5259 156.867 84.311V81.682H154.238C153.023 81.682 152.038 80.6969 152.038 79.482Z" fill="#1C1D21"/>
</svg>
