<svg width="220" height="220" viewBox="0 0 220 220" fill="none" xmlns="http://www.w3.org/2000/svg">
<path d="M160.293 217.8H59.7068C51.7375 217.8 45.2775 211.34 45.2775 203.371V201.299C45.2775 193.33 51.7375 186.87 59.7068 186.87H160.293C168.262 186.87 174.722 193.33 174.722 201.299V203.371C174.723 211.34 168.262 217.8 160.293 217.8Z" fill="#ECF4F7"/>
<path d="M194.569 147.912C194.373 145.036 191.854 142.867 188.972 142.867H152.926C150.618 142.867 148.747 140.996 148.747 138.688V125.144C148.747 116.617 143.548 109.307 136.148 106.206C133.024 108.97 129.423 111.256 125.434 112.919L124.862 113.158C115.351 117.125 104.652 117.127 95.1417 113.159C94.9512 113.08 94.7598 113 94.568 112.92C90.5789 111.256 86.978 108.97 83.854 106.206C76.4532 109.307 71.2537 116.617 71.2537 125.144V138.688C71.2537 140.996 69.3828 142.867 67.075 142.867H31.0285C28.146 142.867 25.6275 145.036 25.4308 147.912C25.2152 151.065 27.6959 153.696 30.8032 153.719L48.7825 153.784C53.9868 153.803 59.1427 154.78 63.9933 156.666L82.9177 164.026V186.869H91.4163V217.8H128.583V186.869H137.083V164.026L156.007 156.666C160.858 154.78 166.014 153.803 171.218 153.784L189.197 153.719C192.304 153.696 194.785 151.065 194.569 147.912Z" fill="#FDDF7F"/>
<path d="M109.703 26.1963C88.1031 26.3569 70.826 44.2609 70.826 65.861V77.2939C70.826 92.8717 80.1906 106.923 94.5671 112.92C94.759 113 94.9504 113.08 95.1409 113.16C104.651 117.127 115.351 117.126 124.861 113.159L125.434 112.92C139.811 106.923 149.173 92.8717 149.173 77.2944V65.3695C149.174 43.6353 131.474 26.0348 109.703 26.1963Z" fill="#AAB1BA"/>
<path d="M102.67 81.0242L90.6198 84.1452C95.5257 89.2082 102.393 92.36 110 92.36C117.607 92.36 124.474 89.2082 129.38 84.1452C125.423 83.12 120.968 81.9663 117.327 81.0234C112.519 79.7782 107.477 79.779 102.67 81.0242Z" fill="#FDDF7F"/>
<path d="M117.327 70.5095C122.942 71.9637 130.492 73.919 135.164 75.1295C136.339 72.1014 136.991 68.8124 136.991 65.3694C136.991 50.4626 124.907 38.3785 110 38.3785C95.0931 38.3785 83.0089 50.4626 83.0089 65.3694C83.0089 68.8124 83.6606 72.1018 84.8358 75.1295L102.669 70.5104C107.477 69.2652 112.519 69.2643 117.327 70.5095Z" fill="#FDDF7F"/>
<path d="M102.971 7.029C102.971 5.81372 103.956 4.829 105.171 4.829H107.8V2.2C107.8 0.98472 108.785 0 110 0C111.215 0 112.2 0.98472 112.2 2.2V4.829H114.829C116.044 4.829 117.029 5.81372 117.029 7.029C117.029 8.24428 116.044 9.229 114.829 9.229H112.2V11.858C112.2 13.0733 111.215 14.058 110 14.058C108.785 14.058 107.8 13.0733 107.8 11.858V9.229H105.171C103.956 9.229 102.971 8.24384 102.971 7.029ZM155.293 40.5786H157.922V43.2076C157.922 44.4228 158.907 45.4076 160.122 45.4076C161.338 45.4076 162.322 44.4228 162.322 43.2076V40.5786H164.951C166.167 40.5786 167.151 39.5938 167.151 38.3786C167.151 37.1633 166.167 36.1786 164.951 36.1786H162.322V33.5496C162.322 32.3343 161.338 31.3496 160.122 31.3496C158.907 31.3496 157.922 32.3343 157.922 33.5496V36.1786H155.293C154.078 36.1786 153.093 37.1633 153.093 38.3786C153.093 39.5938 154.079 40.5786 155.293 40.5786ZM55.049 40.5786H57.6776V43.2076C57.6776 44.4228 58.6628 45.4076 59.8776 45.4076C61.0924 45.4076 62.0776 44.4228 62.0776 43.2076V40.5786H64.7066C65.9214 40.5786 66.9066 39.5938 66.9066 38.3786C66.9066 37.1633 65.9214 36.1786 64.7066 36.1786H62.0776V33.5496C62.0776 32.3343 61.0924 31.3496 59.8776 31.3496C58.6628 31.3496 57.6776 32.3343 57.6776 33.5496V36.1786H55.049C53.8342 36.1786 52.849 37.1633 52.849 38.3786C52.849 39.5938 53.8342 40.5786 55.049 40.5786ZM20.2309 215.6H17.1355C15.9207 215.6 14.9355 216.585 14.9355 217.8C14.9355 219.015 15.9207 220 17.1355 220H20.2309C21.4458 220 22.4309 219.015 22.4309 217.8C22.4309 216.585 21.4462 215.6 20.2309 215.6ZM194.231 217.8C194.231 219.015 193.246 220 192.031 220H160.294H151.015H68.9851H59.7073H27.9701C26.7553 220 25.7701 219.015 25.7701 217.8C25.7701 216.585 26.7553 215.6 27.9701 215.6H48.4534C45.1512 212.559 43.0779 208.203 43.0779 203.371V201.299C43.0779 192.13 50.5377 184.67 59.7073 184.67H160.294C169.463 184.67 176.923 192.13 176.923 201.299V203.371C176.923 208.203 174.85 212.559 171.547 215.6H192.031C193.246 215.6 194.231 216.585 194.231 217.8ZM68.9851 215.6H89.2164V195.253C89.2164 194.038 90.2015 193.053 91.4164 193.053C92.6312 193.053 93.6164 194.038 93.6164 195.253V200.135H126.384V189.07H59.7069C52.9634 189.07 47.4775 194.557 47.4775 201.3V203.371C47.4775 210.114 52.9634 215.6 59.7069 215.6H68.9851V215.6ZM160.294 215.6C167.037 215.6 172.523 210.114 172.523 203.371V201.299C172.523 194.556 167.037 189.07 160.294 189.07H130.784V209.188C130.784 210.404 129.799 211.388 128.584 211.388C127.369 211.388 126.384 210.404 126.384 209.188V204.535H93.6168V215.6H151.016H160.294ZM202.865 215.6H199.769C198.554 215.6 197.569 216.585 197.569 217.8C197.569 219.015 198.554 220 199.769 220H202.865C204.08 220 205.065 219.015 205.065 217.8C205.065 216.585 204.08 215.6 202.865 215.6ZM196.764 147.762C196.909 149.889 196.194 151.919 194.749 153.477C193.326 155.013 191.308 155.903 189.213 155.919L171.226 155.984C166.273 156.002 161.421 156.922 156.805 158.717L139.283 165.53V178.704C139.283 179.92 138.298 180.904 137.083 180.904C135.868 180.904 134.883 179.92 134.883 178.704V164.025C134.883 164.024 134.884 164.021 134.884 164.02V129.655C134.884 128.44 135.868 127.455 137.084 127.455C138.299 127.455 139.284 128.44 139.284 129.655V160.809L155.21 154.615C160.332 152.624 165.715 151.603 171.21 151.583L189.189 151.518C190.079 151.511 190.911 151.144 191.523 150.485C192.134 149.826 192.436 148.965 192.374 148.06C192.26 146.381 190.765 145.065 188.972 145.065H152.926C149.409 145.065 146.547 142.204 146.547 138.687V125.142C146.547 118.184 142.652 111.908 136.516 108.798C134.23 110.676 131.72 112.321 129.014 113.689C128.909 113.742 128.801 113.791 128.695 113.843C128.355 114.011 128.016 114.179 127.669 114.339C127.211 114.55 126.748 114.754 126.281 114.949L125.708 115.188C121.182 117.076 116.355 118.099 111.5 118.275C110.999 118.293 110.499 118.312 109.999 118.312C104.641 118.312 99.2849 117.271 94.294 115.189L93.7171 114.948C93.2507 114.754 92.7887 114.55 92.3307 114.339C91.9593 114.168 91.5941 113.989 91.2302 113.807C91.1497 113.767 91.0679 113.73 90.9878 113.69C88.2809 112.322 85.7707 110.676 83.4836 108.798C77.3482 111.908 73.4525 118.185 73.4525 125.142V138.688C73.4525 142.205 70.5912 145.067 67.0738 145.067H31.0285C29.2351 145.067 27.7409 146.382 27.626 148.062C27.564 148.966 27.8667 149.827 28.4774 150.486C29.089 151.146 29.9211 151.513 30.8195 151.52L48.7905 151.584C54.2856 151.604 59.669 152.625 64.7906 154.616L80.7178 160.81V129.657C80.7178 128.441 81.7029 127.457 82.9178 127.457C84.1326 127.457 85.1178 128.441 85.1178 129.657V164.026V164.933V178.706C85.1178 179.921 84.1326 180.906 82.9178 180.906C81.7029 180.906 80.7178 179.921 80.7178 178.706V165.532L63.1961 158.718C58.5796 156.923 53.7273 156.003 48.7746 155.985L30.7953 155.921C28.6926 155.905 26.6747 155.015 25.2505 153.478C23.8059 151.92 23.0905 149.89 23.2361 147.763C23.5081 143.785 26.9308 140.668 31.0285 140.668H34.8235C34.3998 139.732 34.1583 138.697 34.1583 137.605C34.1583 133.489 37.5062 130.142 41.6211 130.142C45.736 130.142 49.084 133.489 49.084 137.605C49.084 138.697 48.8424 139.732 48.4187 140.668H67.0742C68.165 140.668 69.0529 139.78 69.0529 138.689V125.145C69.0529 117.066 73.2892 109.729 80.0749 105.662C72.8616 98.2093 68.6261 88.1258 68.6261 77.2952V65.8627C68.6261 42.9466 87.0454 24.1661 109.686 23.998C109.791 23.9972 109.897 23.9967 110.002 23.9967C120.998 23.9967 131.337 28.2542 139.146 36.0061C147.031 43.8328 151.374 54.2612 151.374 65.3708V77.2957C151.374 88.1258 147.139 98.2093 139.925 105.662C146.711 109.729 150.947 117.066 150.947 125.145V138.688C150.947 139.779 151.835 140.667 152.926 140.667H171.581C171.157 139.731 170.916 138.696 170.916 137.603C170.916 133.488 174.263 130.141 178.378 130.141C182.494 130.141 185.842 133.488 185.842 137.603C185.842 138.695 185.6 139.731 185.176 140.667H188.971C193.07 140.667 196.492 143.783 196.764 147.762ZM175.316 137.603C175.316 139.292 176.69 140.666 178.379 140.666C180.068 140.666 181.442 139.292 181.442 137.603C181.442 135.915 180.068 134.541 178.379 134.541C176.69 134.541 175.316 135.915 175.316 137.603ZM38.5583 137.603C38.5583 139.292 39.9324 140.666 41.6211 140.666C43.3098 140.666 44.6839 139.292 44.6839 137.603C44.6839 135.915 43.3098 134.541 41.6211 134.541C39.9324 134.541 38.5583 135.915 38.5583 137.603ZM73.0261 77.2939C73.0261 87.8768 77.5594 97.6615 85.153 104.437C85.2066 104.476 85.2612 104.514 85.3114 104.558C86.7968 105.873 88.3804 107.057 90.048 108.107C90.0801 108.127 90.1122 108.148 90.1443 108.167C90.5038 108.392 90.8681 108.608 91.2355 108.82C91.3108 108.863 91.3847 108.908 91.4604 108.951C91.7904 109.138 92.1252 109.318 92.4614 109.495C92.5652 109.549 92.6673 109.606 92.7715 109.66C93.098 109.828 93.4285 109.988 93.7607 110.146C93.8702 110.198 93.9771 110.253 94.0872 110.304C94.5254 110.507 94.9672 110.703 95.4142 110.89L95.9915 111.131C104.893 114.844 115.109 114.844 124.014 111.128L124.587 110.889C125.035 110.703 125.477 110.506 125.915 110.303C126.022 110.253 126.126 110.2 126.232 110.15C126.568 109.989 126.902 109.828 127.232 109.658C127.333 109.606 127.432 109.551 127.532 109.498C127.872 109.319 128.21 109.138 128.544 108.948C128.617 108.907 128.688 108.864 128.76 108.823C129.131 108.609 129.497 108.391 129.859 108.165C129.89 108.146 129.92 108.126 129.951 108.108C131.619 107.058 133.203 105.873 134.689 104.559C134.739 104.515 134.793 104.478 134.846 104.438C142.44 97.6628 146.974 87.8777 146.974 77.2935V65.3686C146.974 55.4409 143.093 46.1212 136.046 39.1266C129.068 32.1992 119.828 28.3941 110.002 28.3941C109.907 28.3941 109.813 28.3945 109.719 28.3954C89.4861 28.5459 73.0257 45.3526 73.0257 65.8601L73.0261 77.2939ZM131.498 83.5503C131.71 84.3044 131.505 85.114 130.96 85.6764C125.409 91.4052 117.965 94.56 110 94.56C102.034 94.56 94.5905 91.4047 89.0395 85.6764C88.4948 85.114 88.2897 84.3044 88.5014 83.5503C88.713 82.7966 89.3096 82.2118 90.0678 82.016L102.118 78.8951C107.275 77.5592 112.725 77.5592 117.878 78.8942L129.932 82.0156C130.69 82.2118 131.287 82.7966 131.498 83.5503ZM124.826 85.2386L116.776 83.1538C112.343 82.0059 107.656 82.0063 103.221 83.1543L95.1735 85.2386C99.4296 88.4347 104.573 90.1604 110 90.1604C115.428 90.1604 120.57 88.4343 124.826 85.2386ZM82.7853 75.926C81.4741 72.5476 80.8093 68.996 80.8093 65.3695C80.8093 49.2738 93.9041 36.1786 110 36.1786C126.096 36.1786 139.191 49.2738 139.191 65.3695C139.191 68.9955 138.526 72.5472 137.215 75.926C136.88 76.7884 136.053 77.33 135.165 77.33C134.982 77.33 134.797 77.3071 134.612 77.2592L116.776 72.6392C112.344 71.4921 107.656 71.4916 103.222 72.64L85.3884 77.2592C84.3082 77.5394 83.1892 76.9666 82.7853 75.926ZM85.2093 65.369C85.2093 67.7961 85.56 70.1831 86.2534 72.49L102.118 68.3808C102.325 68.3272 102.533 68.2796 102.74 68.2304V59.7071C102.74 59.6798 102.718 59.6578 102.691 59.6578H98.2403C97.0255 59.6578 96.0403 58.6731 96.0403 57.4578C96.0403 56.2426 97.0255 55.2578 98.2403 55.2578H102.691C105.144 55.2578 107.14 57.2537 107.14 59.7071V67.5101C109.043 67.3367 110.959 67.3367 112.86 67.5101V59.7071C112.86 57.2537 114.856 55.2578 117.309 55.2578H121.76C122.975 55.2578 123.96 56.2426 123.96 57.4578C123.96 58.6731 122.975 59.6578 121.76 59.6578H117.309C117.282 59.6578 117.26 59.6803 117.26 59.7071V68.2304C117.467 68.2792 117.673 68.3267 117.879 68.38L133.747 72.49C134.44 70.1831 134.791 67.7961 134.791 65.369C134.791 51.6996 123.67 40.5781 110 40.5781C96.3298 40.5781 85.2093 51.6996 85.2093 65.369ZM110 124.286C108.785 124.286 107.8 125.271 107.8 126.486V133.196C107.8 135.753 106.692 138.181 104.761 139.856C103.157 141.247 101.106 142.012 98.9839 142.012H94.0559C92.8411 142.012 91.8559 142.997 91.8559 144.212C91.8559 145.427 92.8411 146.412 94.0559 146.412H98.9839C102.165 146.412 105.241 145.265 107.644 143.18C107.698 143.133 107.748 143.084 107.8 143.037V157.689H103.008C101.793 157.689 100.808 158.673 100.808 159.889C100.808 161.104 101.793 162.089 103.008 162.089H107.8V174.393C107.8 175.608 108.785 176.593 110 176.593C111.215 176.593 112.2 175.608 112.2 174.393V162.089H116.993C118.208 162.089 119.193 161.104 119.193 159.889C119.193 158.673 118.208 157.689 116.993 157.689H112.2V143.037C112.253 143.084 112.303 143.133 112.356 143.18C114.759 145.264 117.835 146.412 121.016 146.412H125.944C127.159 146.412 128.144 145.427 128.144 144.212C128.144 142.997 127.159 142.012 125.944 142.012H121.016C118.894 142.012 116.843 141.247 115.24 139.856C113.308 138.181 112.2 135.753 112.2 133.196V126.486C112.2 125.271 111.215 124.286 110 124.286Z" fill="#1C1D21"/>
</svg>
