<svg width="220" height="220" viewBox="0 0 220 220" fill="none" xmlns="http://www.w3.org/2000/svg">
<g clip-path="url(#clip0_101_808)">
<path d="M190.371 186.726H29.6292C25.3867 186.726 21.9477 183.287 21.9477 179.044V210.119C21.9477 214.361 25.3867 217.8 29.6292 217.8H190.371C194.613 217.8 198.052 214.361 198.052 210.119V179.044C198.052 183.287 194.613 186.726 190.371 186.726Z" fill="#AAB1BA"/>
<path d="M63.6259 30.0956C59.9995 30.0956 57.0594 27.1555 57.0594 23.529V8.76657C57.0594 5.14009 59.9995 2.20001 63.6259 2.20001C67.2524 2.20001 70.1925 5.14009 70.1925 8.76657V23.5295C70.1925 27.1559 67.2524 30.0956 63.6259 30.0956Z" fill="#AAB1BA"/>
<path d="M110 30.0956C106.373 30.0956 103.433 27.1555 103.433 23.529V8.76657C103.433 5.14009 106.373 2.20001 110 2.20001C113.626 2.20001 116.566 5.14009 116.566 8.76657V23.5295C116.566 27.1559 113.626 30.0956 110 30.0956Z" fill="#AAB1BA"/>
<path d="M156.374 30.0956C152.748 30.0956 149.808 27.1555 149.808 23.529V8.76657C149.808 5.14009 152.748 2.20001 156.374 2.20001C160.001 2.20001 162.941 5.14009 162.941 8.76657V23.5295C162.941 27.1559 160.001 30.0956 156.374 30.0956Z" fill="#AAB1BA"/>
<path d="M190.371 15.9003H162.941V23.5295C162.941 27.156 160.001 30.096 156.374 30.096C152.748 30.096 149.808 27.156 149.808 23.5295V15.9003H116.567V23.5295C116.567 27.156 113.627 30.096 110 30.096C106.374 30.096 103.433 27.156 103.433 23.5295V15.9003H70.1924V23.5295C70.1924 27.156 67.2523 30.096 63.6258 30.096C59.9993 30.096 57.0592 27.156 57.0592 23.5295V15.9003H29.6292C25.3867 15.9003 21.9477 19.3394 21.9477 23.5818V42.948H198.052V23.5818C198.052 19.3394 194.613 15.9003 190.371 15.9003Z" fill="#83E1E5"/>
<path d="M21.9477 42.948V179.044C21.9477 183.287 25.3867 186.726 29.6292 186.726H190.371C194.613 186.726 198.052 183.287 198.052 179.044V42.948H21.9477Z" fill="#ECF4F7"/>
<path d="M173.895 151.124H144.731C142.863 151.124 141.35 149.611 141.35 147.743V136.785C141.35 127.613 133.915 120.178 124.743 120.178H110H95.257C86.0857 120.178 78.6505 127.613 78.6505 136.785V147.743C78.6505 149.611 77.1369 151.124 75.2696 151.124H46.1055C43.7735 151.124 41.7359 152.879 41.5766 155.206C41.4019 157.757 43.4092 159.886 45.9233 159.905L60.4697 159.958C64.6805 159.973 68.8522 160.763 72.7765 162.29L88.0881 168.244V186.726H110H131.912V168.244L147.224 162.29C151.148 160.763 155.32 159.973 159.53 159.958L174.077 159.905C176.591 159.886 178.598 157.757 178.423 155.206C178.264 152.879 176.227 151.124 173.895 151.124Z" fill="#83E1E5"/>
<path d="M66.8396 151.124H45.9564C43.5315 151.124 41.566 153.09 41.566 155.515C41.566 157.926 43.5113 159.886 45.9234 159.905L60.4698 159.957C62.6126 159.965 64.7448 160.176 66.8396 160.58V151.124Z" fill="#FDDF7F"/>
<path d="M110 120.178C123.779 120.178 134.95 109.008 134.95 95.2283C134.95 81.4489 123.779 70.2785 110 70.2785C96.2207 70.2785 85.0503 81.4489 85.0503 95.2283C85.0503 109.008 96.2207 120.178 110 120.178Z" fill="#FDDF7F"/>
<path d="M153.161 151.124H174.044C176.469 151.124 178.434 153.09 178.434 155.515C178.434 157.926 176.489 159.886 174.077 159.905L159.531 159.957C157.388 159.965 155.255 160.176 153.161 160.58V151.124Z" fill="#FDDF7F"/>
<path d="M158.036 146.035C158.036 147.061 158.251 148.038 158.636 148.924H144.73C144.079 148.924 143.549 148.394 143.549 147.743V136.784C143.549 126.43 135.138 118.004 124.789 117.979C132.223 113.13 137.15 104.746 137.15 95.2279C137.15 80.2578 124.971 68.0781 110 68.0781C95.0298 68.0781 82.8506 80.2573 82.8506 95.2279C82.8506 104.746 87.7782 113.13 95.2115 117.979C84.8623 118.003 76.4504 126.429 76.4504 136.784V147.743C76.4504 148.394 75.9206 148.924 75.2694 148.924H61.3641C61.7487 148.037 61.9643 147.061 61.9643 146.035C61.9643 142.016 58.6946 138.747 54.6761 138.747C50.6576 138.747 47.3879 142.017 47.3879 146.035C47.3879 147.061 47.6035 148.038 47.9881 148.924H46.1062C42.5713 148.924 39.6175 151.617 39.3826 155.056C39.2567 156.893 39.8749 158.647 41.1232 159.994C42.3539 161.322 44.0976 162.091 45.9161 162.105L60.463 162.157C62.4557 162.164 64.4278 162.355 66.366 162.725C66.3854 162.73 66.4047 162.734 66.4245 162.738C68.313 163.102 70.1698 163.635 71.9804 164.339L85.8893 169.748V180.119C85.8893 181.334 86.8744 182.319 88.0893 182.319C89.3041 182.319 90.2893 181.334 90.2893 180.119V168.976V168.243V140.434C90.2893 139.22 89.3041 138.234 88.0893 138.234C86.8744 138.234 85.8893 139.22 85.8893 140.434V165.026L73.5754 160.237C72.0895 159.66 70.5755 159.187 69.0412 158.81V153.322H75.2712C78.3485 153.322 80.8521 150.819 80.8521 147.741V136.783C80.8521 128.839 87.3149 122.376 95.2586 122.376H124.745C132.689 122.376 139.151 128.839 139.151 136.783V147.741C139.151 150.819 141.655 153.322 144.732 153.322H150.962V158.81C149.428 159.187 147.914 159.659 146.428 160.237L134.114 165.026V140.434C134.114 139.219 133.129 138.234 131.914 138.234C130.699 138.234 129.714 139.219 129.714 140.434V168.237C129.714 168.238 129.714 168.24 129.714 168.242V180.119C129.714 181.334 130.699 182.319 131.914 182.319C133.129 182.319 134.114 181.334 134.114 180.119V169.748L148.023 164.339C149.833 163.634 151.689 163.101 153.578 162.737C153.598 162.733 153.617 162.729 153.637 162.725C155.575 162.355 157.547 162.164 159.54 162.157L174.096 162.104C175.905 162.091 177.649 161.321 178.88 159.994C180.128 158.647 180.746 156.893 180.62 155.055C180.385 151.617 177.432 148.923 173.897 148.923H172.015C172.399 148.037 172.615 147.061 172.615 146.035C172.615 142.016 169.345 138.747 165.327 138.747C161.308 138.747 158.036 142.016 158.036 146.035ZM54.6757 143.147C56.2685 143.147 57.5638 144.442 57.5638 146.035C57.5638 147.627 56.268 148.923 54.6757 148.923C53.0833 148.923 51.7875 147.627 51.7875 146.035C51.7875 144.442 53.0833 143.147 54.6757 143.147ZM64.6395 158.019C63.2631 157.856 61.8754 157.762 60.4775 157.757L45.9395 157.705C45.3292 157.7 44.7642 157.451 44.3489 157.003C43.9344 156.556 43.7289 155.971 43.7711 155.356C43.8477 154.236 44.8949 153.324 46.1053 153.324H64.6395V158.019ZM87.2506 95.2283C87.2506 82.6844 97.456 72.4786 110 72.4786C122.545 72.4786 132.75 82.6839 132.75 95.2283C132.75 107.773 122.544 117.978 110 117.978C97.4555 117.978 87.2506 107.772 87.2506 95.2283ZM176.229 155.356C176.271 155.971 176.066 156.556 175.651 157.003C175.236 157.451 174.671 157.7 174.069 157.705L159.522 157.757C158.125 157.762 156.737 157.856 155.36 158.019V153.324H173.895C175.105 153.324 176.152 154.235 176.229 155.356ZM165.324 143.147C166.917 143.147 168.212 144.442 168.212 146.035C168.212 147.627 166.917 148.923 165.324 148.923C163.732 148.923 162.436 147.627 162.436 146.035C162.436 144.442 163.731 143.147 165.324 143.147ZM51.5407 202.263C51.5407 203.478 50.5555 204.463 49.3407 204.463H46.7636C45.5487 204.463 44.5636 203.478 44.5636 202.263C44.5636 201.048 45.5487 200.063 46.7636 200.063H49.3407C50.5555 200.063 51.5407 201.048 51.5407 202.263ZM170.06 42.948C170.06 41.7331 171.045 40.748 172.26 40.748H176C177.215 40.748 178.2 41.7331 178.2 42.948C178.2 44.1628 177.215 45.148 176 45.148H172.26C171.045 45.148 170.06 44.1628 170.06 42.948ZM190.371 13.7003H165.14V8.76656C165.14 3.93272 161.208 0 156.374 0C151.54 0 147.608 3.93272 147.608 8.76656V13.7003H118.767V8.76656C118.767 3.93272 114.834 0 110 0C105.166 0 101.233 3.93272 101.233 8.76656V13.7003H72.3923V8.76656C72.3923 3.93272 68.4595 0 63.6257 0C58.7919 0 54.8596 3.93272 54.8596 8.76656V13.7003H29.6291C24.1806 13.7003 19.7476 18.1333 19.7476 23.5818V42.948V179.044V210.118C19.7476 215.567 24.1806 220 29.6291 220H190.371C195.819 220 200.252 215.567 200.252 210.118V179.044V42.948V23.5818C200.252 18.1328 195.819 13.7003 190.371 13.7003ZM152.008 8.76656C152.008 6.35888 153.967 4.4 156.374 4.4C158.782 4.4 160.74 6.35888 160.74 8.76656V15.9003V23.5294C160.74 25.9371 158.781 27.896 156.374 27.896C153.967 27.896 152.008 25.9371 152.008 23.5294V15.9003V8.76656ZM105.633 8.76656C105.633 6.35888 107.592 4.4 110 4.4C112.408 4.4 114.367 6.35888 114.367 8.76656V15.9003V23.5294C114.367 25.9371 112.408 27.896 110 27.896C107.592 27.896 105.633 25.9371 105.633 23.5294V15.9003V8.76656ZM59.2596 8.76656C59.2596 6.35888 61.2185 4.4 63.6257 4.4C66.0334 4.4 67.9923 6.35888 67.9923 8.76656V15.9003V23.5294C67.9923 25.9371 66.0334 27.896 63.6257 27.896C61.218 27.896 59.2596 25.9371 59.2596 23.5294V15.9003V8.76656ZM24.1476 23.5818C24.1476 20.5594 26.6067 18.1003 29.6291 18.1003H54.8596V23.5294C54.8596 28.3633 58.7923 32.296 63.6257 32.296C68.4591 32.296 72.3923 28.3633 72.3923 23.5294V18.1003H101.233V23.5294C101.233 28.3633 105.166 32.296 110 32.296C114.834 32.296 118.767 28.3633 118.767 23.5294V18.1003H147.608V23.5294C147.608 28.3633 151.54 32.296 156.374 32.296C161.208 32.296 165.14 28.3633 165.14 23.5294V18.1003H190.371C193.393 18.1003 195.852 20.5594 195.852 23.5818V40.748H186.12C184.905 40.748 183.92 41.7331 183.92 42.948C183.92 44.1628 184.905 45.148 186.12 45.148H195.852V179.044C195.852 182.067 193.393 184.526 190.371 184.526H29.6291C26.6067 184.526 24.1476 182.067 24.1476 179.044V45.148H159.5C160.715 45.148 161.7 44.1628 161.7 42.948C161.7 41.7331 160.715 40.748 159.5 40.748H24.1476V23.5818ZM190.371 215.6H29.6291C26.6067 215.6 24.1476 213.141 24.1476 210.118V202.798C25.7171 203.849 27.6025 204.463 29.6291 204.463H38.0415C39.2563 204.463 40.2415 203.478 40.2415 202.263C40.2415 201.048 39.2563 200.063 38.0415 200.063H29.6291C26.6067 200.063 24.1476 197.604 24.1476 194.581V187.262C24.1652 187.274 24.1841 187.284 24.2021 187.296C24.3566 187.398 24.5141 187.495 24.6747 187.588C24.7209 187.615 24.7667 187.642 24.8133 187.668C24.995 187.77 25.1794 187.868 25.3681 187.958C25.3888 187.968 25.4104 187.977 25.4315 187.987C25.604 188.068 25.7791 188.144 25.9569 188.215C26.007 188.235 26.0572 188.255 26.1073 188.274C26.3049 188.35 26.5047 188.421 26.7079 188.484C26.7238 188.489 26.7396 188.493 26.7555 188.498C26.946 188.556 27.1391 188.607 27.3341 188.653C27.3877 188.666 27.4414 188.679 27.4951 188.69C27.7059 188.737 27.9179 188.779 28.1335 188.812C28.1428 188.813 28.152 188.814 28.1613 188.815C28.3689 188.847 28.5788 188.869 28.7905 188.887C28.8463 188.892 28.9027 188.896 28.959 188.899C29.1807 188.914 29.4034 188.925 29.6287 188.925H190.37C190.596 188.925 190.819 188.914 191.04 188.899C191.096 188.896 191.153 188.892 191.209 188.887C191.42 188.869 191.63 188.846 191.838 188.815C191.847 188.814 191.856 188.813 191.865 188.812C192.081 188.779 192.293 188.737 192.504 188.69C192.558 188.679 192.611 188.666 192.665 188.653C192.86 188.606 193.053 188.555 193.244 188.498C193.259 188.493 193.276 188.489 193.291 188.484C193.494 188.421 193.694 188.35 193.892 188.274C193.942 188.255 193.992 188.235 194.042 188.215C194.22 188.144 194.395 188.068 194.568 187.987C194.589 187.977 194.61 187.968 194.631 187.958C194.82 187.868 195.004 187.77 195.186 187.668C195.232 187.642 195.278 187.615 195.324 187.588C195.484 187.495 195.642 187.397 195.797 187.296C195.814 187.284 195.833 187.274 195.851 187.262V194.581C195.851 197.604 193.392 200.063 190.37 200.063H59.6485C58.4337 200.063 57.4485 201.048 57.4485 202.263C57.4485 203.478 58.4337 204.463 59.6485 204.463H190.371C192.397 204.463 194.283 203.848 195.852 202.798V210.118C195.852 213.141 193.393 215.6 190.371 215.6ZM14.5142 49.9506C14.5142 51.1654 13.5291 52.1506 12.3142 52.1506H9.68522V54.7791C9.68522 55.994 8.70006 56.9791 7.48522 56.9791C6.27038 56.9791 5.28522 55.994 5.28522 54.7791V52.1506H2.65667C1.44183 52.1506 0.456665 51.1654 0.456665 49.9506C0.456665 48.7357 1.44183 47.7506 2.65667 47.7506H5.28566V45.1216C5.28566 43.9067 6.27083 42.9216 7.48567 42.9216C8.70051 42.9216 9.68567 43.9067 9.68567 45.1216V47.7506H12.3147C13.5295 47.7506 14.5142 48.7357 14.5142 49.9506ZM9.68567 76.9793V141.295C9.68567 142.509 8.70051 143.495 7.48567 143.495C6.27083 143.495 5.28566 142.509 5.28566 141.295V76.9793C5.28566 75.7645 6.27083 74.7793 7.48567 74.7793C8.70051 74.7793 9.68567 75.764 9.68567 76.9793ZM9.68567 64.2193V67.5391C9.68567 68.754 8.70051 69.7391 7.48567 69.7391C6.27083 69.7391 5.28566 68.754 5.28566 67.5391V64.2193C5.28566 63.0045 6.27083 62.0193 7.48567 62.0193C8.70051 62.0193 9.68567 63.004 9.68567 64.2193ZM219.543 179.723C219.543 180.938 218.558 181.923 217.343 181.923H214.714V184.552C214.714 185.767 213.729 186.752 212.514 186.752C211.299 186.752 210.314 185.767 210.314 184.552V181.923H207.685C206.47 181.923 205.485 180.938 205.485 179.723C205.485 178.508 206.47 177.523 207.685 177.523H210.314V174.894C210.314 173.679 211.299 172.694 212.514 172.694C213.729 172.694 214.714 173.679 214.714 174.894V177.523H217.343C218.558 177.523 219.543 178.508 219.543 179.723ZM210.314 152.695V88.3793C210.314 87.1644 211.299 86.1793 212.514 86.1793C213.729 86.1793 214.714 87.1644 214.714 88.3793V152.695C214.714 153.909 213.729 154.895 212.514 154.895C211.299 154.895 210.314 153.909 210.314 152.695ZM210.314 165.455V162.134C210.314 160.919 211.299 159.934 212.514 159.934C213.729 159.934 214.714 160.919 214.714 162.134V165.455C214.714 166.669 213.729 167.655 212.514 167.655C211.299 167.655 210.314 166.669 210.314 165.455Z" fill="#1C1D21"/>
</g>
<defs>
<clipPath id="clip0_101_808">
<rect width="220" height="220" fill="white"/>
</clipPath>
</defs>
</svg>
